<svg class="svg-shopping-cart" xmlns="http://www.w3.org/2000/svg" xmlns:xlink="http://www.w3.org/1999/xlink" x="0px" y="0px" viewBox="0 0 29 29" style="user-select: auto;" xml:space="preserve">
<path class="st0" d="M8,24.3c0-0.4,0-0.9,0-1.4c0-0.3,0-0.5,0-0.8c0-0.3,0-0.6,0-0.9c0-0.6,0-1.2,0-1.9c0-0.3,0-0.7,0-1&#10;&#9;c0-0.2,0-0.3,0-0.5c0-0.1,0-0.2,0-0.3l0-0.1c0,0,0,0,0-0.1c0,0,0-0.1,0-0.1c0,0,0-0.1,0-0.1C8,17,7.9,16.8,7.8,16.8c0,0-0.1,0-0.1,0&#10;&#9;c0,0-0.1,0-0.1,0l0,0l0,0l0,0l0,0l0,0c0,0,0,0,0,0l0,0c-0.2,0-0.3,0-0.5,0l-0.3,0l-0.1,0c0,0-0.1,0-0.2,0c-0.2,0-0.3,0.1-0.4,0.3&#10;&#9;c0,0,0,0.1-0.1,0.1l0,0.1c0,0,0,0,0,0.1c0,0,0,0.1,0,0.1l0,0l0,0l0,0l0,0c0,0.7,0,1.4,0,2.1l0,0.1l0,0.1c0,0.1,0,0.2,0,0.3&#10;&#9;c0,0.2,0,0.3,0,0.5c0,0.2,0,0.3,0,0.5c0,0.2,0,0.3,0,0.5c0,0.1,0,0.2,0,0.2l0,0.1l0,0.1c0,0.2,0,0.3,0,0.5c0,0.2,0,0.3,0,0.5&#10;&#9;c0,0.2,0,0.3,0,0.4c0,0.3,0,0.6,0,0.9c0,0.3,0,0.6,0,0.8c0,0.3,0,0.5,0,0.8c0,0.1,0,0.2,0,0.4c0,0.1,0,0.1,0,0.2c0,0,0,0.1,0,0.1&#10;&#9;c0,0,0,0.1,0,0.1c0,0,0,0.1,0.1,0.1c0,0,0,0,0,0c0,0,0,0,0,0c0.1,0.1,0.1,0.1,0.2,0.1c0,0,0,0,0,0l0,0c0,0,0.1,0,0.1,0&#10;&#9;c0,0,0.1,0,0.1,0c0.1,0,0.2,0,0.2,0c0.1,0,0.2,0,0.3,0c0.1,0,0.1,0,0.2,0c0,0,0.2,0,0.3,0c0.2-0.1,0.3-0.2,0.3-0.3c0,0,0,0,0-0.1&#10;&#9;c0,0,0,0,0,0c0,0,0,0,0,0c0,0,0-0.1,0-0.1c0,0,0-0.1,0-0.1l0,0c0,0,0-0.4,0-1C8.1,25.1,8.1,24.7,8,24.3z M7.7,26.4&#10;&#9;C7.7,26.4,7.7,26.4,7.7,26.4c0,0.1,0,0.1,0,0.1c0,0-0.1,0.1-0.1,0.1c0,0,0,0,0,0l0,0l0,0l0,0c0,0,0,0-0.1,0c-0.1,0-0.1,0-0.2,0&#10;&#9;c-0.1,0-0.1,0-0.2,0c-0.1,0-0.2,0-0.3,0c0,0-0.1,0-0.2,0l0,0l0,0c0,0,0,0,0,0l0,0l0,0l0,0c0,0,0,0,0,0c0,0,0,0,0,0c0,0,0,0,0,0&#10;&#9;c0,0,0,0,0,0c0,0,0,0,0,0c0,0,0,0,0,0c0,0,0,0,0,0c0-0.1,0-0.1,0-0.2c0-0.1,0-0.2,0-0.4c0-0.2,0-0.5,0-0.8c0-0.3,0-0.5,0-0.8&#10;&#9;c0-0.3,0-0.6,0-0.9c0-0.2,0-0.3,0-0.5c0-0.2,0-0.3,0-0.5c0-0.2,0-0.3,0-0.5l0-0.1l0-0.1c0-0.1,0-0.2,0-0.2c0-0.2,0-0.3,0-0.5&#10;&#9;c0-0.2,0-0.3,0-0.5c0-0.2,0-0.3,0-0.5c0-0.1,0-0.2,0-0.3l0-0.1l0-0.1c0-0.7,0-1.4,0-2.1l0,0l0,0c0,0,0,0,0,0c0,0,0,0,0,0&#10;&#9;c0,0,0,0,0,0c0,0,0,0,0,0c0,0,0,0,0,0c0,0,0,0,0.1,0l0.1,0l0.3,0c0.2,0,0.4,0,0.5,0l0,0l0,0l0,0l0,0l0,0c0,0,0,0,0,0c0,0,0,0,0,0&#10;&#9;c0,0,0,0,0,0c0,0,0.1,0,0.1,0.1c0,0,0,0,0,0c0,0,0,0,0,0c0,0,0,0,0,0l0,0.1c0,0.1,0,0.2,0,0.3c0,0.2,0,0.3,0,0.5c0,0.3,0,0.7,0,1&#10;&#9;c0,0.7,0,1.3,0,1.9c0,0.3,0,0.6,0,0.9c0,0.3,0,0.6,0,0.8c0,0.5,0,1,0,1.4c0,0.4,0,0.8,0,1.1C7.7,26,7.7,26.3,7.7,26.4L7.7,26.4&#10;&#9;C7.7,26.3,7.7,26.3,7.7,26.4z" style="user-select: auto;"/>
<path class="st0" d="M11.9,23.5c0-0.1,0-0.2,0-0.4c0-0.1,0-0.3,0-0.4c0-0.3,0-0.5,0-0.8l0-0.1l0,0l0,0l0-0.1c0-0.1,0-0.1,0-0.2&#10;&#9;c0-0.1,0-0.3,0-0.4c0-0.2,0-0.3,0-0.5c0-0.2,0-0.3,0-0.5c0-0.2,0-0.3,0-0.5c0-0.2,0-0.3,0-0.5c0-0.3,0-0.7,0-1c0-0.2,0-0.3,0-0.5&#10;&#9;c0-0.1,0-0.2,0-0.3l0,0c0,0,0,0,0,0c0,0,0-0.1,0-0.1c0-0.1,0-0.1-0.1-0.2c-0.1-0.1-0.2-0.2-0.3-0.3l0,0c0,0,0,0-0.1,0&#10;&#9;c0,0-0.1,0-0.1,0l-0.1,0l0,0c-0.1,0,0,0,0,0l0,0l0,0c-0.1,0-0.2,0-0.3,0l-0.3,0l-0.1,0l-0.1,0l-0.1,0l0,0l0,0c0,0,0,0,0,0l-0.1,0&#10;&#9;c0,0-0.1,0-0.1,0c-0.1,0-0.3,0.1-0.4,0.2c-0.1,0-0.1,0.1-0.1,0.2c0,0,0,0.1-0.1,0.1c0,0,0,0,0,0.1l0,0c0,0.1,0,0,0,0l0,0l0,0l0,0.1&#10;&#9;l0,0.1l0,0.3c0,0.2,0,0.4,0,0.5c0,0.4,0,0.7,0,1.1l0,0.1l0,0.1c0,0.1,0,0.2,0,0.3c0,0.2,0,0.3,0,0.5c0,0.3,0,0.7,0,1&#10;&#9;c0,0.7,0,1.3,0.1,1.9c0,0.3,0,0.6,0,0.9c0,0.3,0,0.6,0,0.8c0,0.3,0,0.5,0,0.8c0,0.1,0,0.2,0,0.4c0,0,0,0.1,0,0.1l0,0l0,0.1&#10;&#9;c0,0,0,0.1,0,0.1c0,0,0,0.1,0,0.1c0,0,0,0.1,0.1,0.1c0,0,0,0.1,0.1,0.1c0,0,0.1,0.1,0.1,0.1c0,0,0,0,0.1,0c0,0,0,0,0.1,0&#10;&#9;c0,0,0.1,0,0.1,0l0,0l0,0c0,0,0,0,0,0l0,0l0,0l0,0c0,0,0.1,0,0.1,0c0.2,0,0.4,0,0.5,0c0.1,0,0.2,0,0.2,0c0,0,0.1,0,0.1,0&#10;&#9;c0,0,0.1,0,0.1,0c0.2-0.1,0.3-0.2,0.3-0.3c0,0,0,0,0-0.1c0,0,0,0,0-0.1c0,0,0,0,0-0.1c0,0,0,0,0,0c0,0,0,0,0,0c0,0,0-0.1,0-0.1&#10;&#9;l0-0.1c0-0.2,0-0.4,0-0.8c0-0.3,0-0.7,0-1.1C11.9,24,11.9,23.8,11.9,23.5z M11.5,26.4C11.5,26.4,11.5,26.4,11.5,26.4&#10;&#9;C11.5,26.4,11.5,26.4,11.5,26.4c-0.1,0.1-0.1,0.2-0.2,0.2c0,0,0,0,0,0c0,0-0.1,0-0.1,0c-0.1,0-0.1,0-0.2,0c-0.2,0-0.3,0-0.5,0&#10;&#9;c0,0-0.1,0-0.1,0l0,0l0,0l0,0l0,0c0,0,0,0,0,0c0,0,0,0,0,0c0,0,0,0,0,0c0,0,0,0,0,0c0,0,0,0,0,0c0,0,0,0,0,0c0-0.1,0-0.1,0-0.2&#10;&#9;c0-0.1,0-0.2,0-0.4c0-0.2,0-0.5,0-0.8c0-0.3,0-0.5,0-0.8c0-0.3,0-0.6,0-0.9c0-0.6,0-1.2,0-1.9c0-0.3,0-0.7,0-1c0-0.2,0-0.3,0-0.5&#10;&#9;c0-0.1,0-0.2,0-0.3l0-0.1l0-0.1c0-0.7,0-1.4,0-2.1c0,0,0,0,0-0.1c0,0,0,0,0,0c0,0,0,0,0,0c0,0,0.1,0,0.1-0.1c0,0,0,0,0,0l0,0l0,0&#10;&#9;l0.1,0l0.1,0l0.1,0l0.3,0l0.2,0l0,0l0,0l0.1,0c0,0,0,0,0,0c0,0,0,0,0,0c0,0,0.1,0.1,0.1,0.1c0,0,0,0,0,0c0,0,0,0,0,0c0,0,0,0,0,0&#10;&#9;l0,0c0,0.1,0,0.2,0,0.3c0,0.2,0,0.3,0,0.5c0,0.3,0,0.7,0,1c0,0.2,0,0.3,0,0.5c0,0.2,0,0.3,0,0.5c0,0.2,0,0.3,0,0.5&#10;&#9;c0,0.2,0,0.3,0,0.5c0,0.2,0,0.3,0,0.5c0,0.1,0,0.1,0,0.2l0,0.1l0,0l0,0l0,0.1c0,0.3,0,0.6,0,0.8c0,0.1,0,0.3,0,0.4&#10;&#9;c0,0.1,0,0.2,0,0.4c0,0.2,0,0.5,0,0.7c0,0.4,0,0.8,0,1.1C11.5,26,11.5,26.3,11.5,26.4L11.5,26.4C11.5,26.4,11.5,26.4,11.5,26.4z" style="user-select: auto;"/>
<path class="st0" d="M11.3,17.2C11.3,17.2,11.3,17.2,11.3,17.2C11.3,17.2,11.3,17.2,11.3,17.2z" style="user-select: auto;"/>
<path class="st0" d="M15.7,23.5c0-0.2,0-0.5,0-0.8c0-0.5,0-1.1,0-1.7c0-0.3,0-0.6,0-0.9c0-0.2,0-0.3,0-0.5l0-0.1l0-0.1&#10;&#9;c0-0.1,0-0.2,0-0.2c0-0.3,0-0.7,0-1c0-0.2,0-0.3,0-0.5c0-0.1,0-0.2,0-0.3l0-0.1l0,0c0,0,0,0,0,0c0,0,0-0.1,0-0.1c0,0,0-0.1,0-0.1&#10;&#9;c0-0.1-0.1-0.3-0.3-0.3c0,0-0.1,0-0.1-0.1c0,0-0.1,0-0.1,0c0,0,0,0-0.1,0l0,0l0,0l0,0l0,0c-0.2,0-0.3,0-0.5,0l-0.3,0l-0.1,0l0,0&#10;&#9;l-0.1,0c0,0-0.1,0-0.1,0c-0.1,0-0.3,0.1-0.4,0.3c0,0,0,0.1-0.1,0.1c0,0,0,0.1,0,0.1c0,0,0,0,0,0.1c0,0,0,0,0,0l0,0l0,0l0,0l0,0&#10;&#9;c0,0.7,0,1.4,0,2.1c0,0.7,0,1.4,0,2c0,0.1,0,0.2,0,0.2l0,0.1l0,0.1c0,0.2,0,0.3,0,0.5c0,0.3,0,0.6,0,0.9c0,0.6,0,1.2,0,1.7&#10;&#9;c0,0.3,0,0.5,0,0.8c0,0.1,0,0.2,0,0.4c0,0,0,0.1,0,0.1l0,0c0,0,0,0,0,0c0,0.1,0,0.2,0.1,0.2c0.1,0.1,0.2,0.2,0.4,0.3&#10;&#9;c0,0,0.1,0,0.1,0c0,0,0,0,0.1,0l0,0l0,0l0,0l0,0c0,0,0,0,0.1,0c0.2,0,0.4,0,0.5,0c0.1,0,0.1,0,0.2,0c0.1,0,0.1,0,0.2,0&#10;&#9;c0.2,0,0.3-0.1,0.4-0.2c0,0,0-0.1,0-0.1c0,0,0,0,0-0.1c0,0,0,0,0-0.1c0,0,0,0,0,0c0,0,0,0,0,0c0,0,0-0.1,0-0.1l0-0.2&#10;&#9;c0-0.2,0-0.4,0-0.7c0-0.3,0-0.7,0-1.1c0-0.1,0-0.1,0-0.2c0-0.1,0-0.1,0-0.2C15.7,23.8,15.7,23.7,15.7,23.5z M15.2,26.4&#10;&#9;C15.2,26.4,15.2,26.4,15.2,26.4c-0.1,0.1-0.1,0.1-0.2,0.1c0,0-0.1,0-0.2,0c-0.1,0-0.1,0-0.2,0c-0.2,0-0.3,0-0.5,0c0,0-0.1,0-0.1,0&#10;&#9;c0,0,0,0-0.1,0c0,0,0,0,0,0c-0.1,0-0.1-0.1-0.1-0.1c0,0,0,0,0-0.1c0,0,0,0,0,0l0,0c0,0,0-0.1,0-0.1c0-0.1,0-0.2,0-0.4&#10;&#9;c0-0.2,0-0.5,0-0.8c0-0.5,0-1.1,0-1.7c0-0.3,0-0.6,0-0.9c0-0.2,0-0.3,0-0.5l0-0.1l0-0.1c0-0.1,0-0.2,0-0.2c0-0.7,0.1-1.3,0.1-2&#10;&#9;c0-0.7,0-1.4,0-2.1c0,0,0-0.1,0-0.1c0,0,0,0,0,0c0,0,0,0,0.1,0c0,0,0,0,0,0c0,0,0,0,0,0l0,0l0.1,0l0.3,0c0.2,0,0.3,0,0.5,0l0,0l0,0&#10;&#9;l0,0c0,0,0,0,0.1,0c0,0,0,0,0,0c0,0,0,0,0,0c0,0,0,0,0,0.1c0,0,0,0,0,0c0,0,0,0,0,0c0,0,0,0,0,0l0,0l0,0.1c0,0.1,0,0.2,0,0.3&#10;&#9;c0,0.2,0,0.3,0,0.5c0,0.3,0,0.7,0,1c0,0.1,0,0.2,0,0.2l0,0.1l0,0.1c0,0.2,0,0.3,0,0.5c0,0.3,0,0.6,0,0.9c0,0.6,0,1.2,0,1.7&#10;&#9;c0,0.3,0,0.5,0,0.8c0,0.1,0,0.2,0,0.3c0,0.1,0,0.1,0,0.2c0,0.1,0,0.1,0,0.2c0,0.4,0,0.8,0,1.1C15.2,25.9,15.2,26.3,15.2,26.4&#10;&#9;L15.2,26.4C15.2,26.4,15.2,26.4,15.2,26.4z" style="user-select: auto;"/>
<path class="st0" d="M13.9,17.3C13.9,17.3,13.9,17.3,13.9,17.3C13.9,17.3,13.9,17.3,13.9,17.3z" style="user-select: auto;"/>
<path class="st0" d="M19.4,24.2c0-0.4,0-0.9,0-1.4c0-0.3,0-0.5,0-0.8l0-0.1l0-0.1l0-0.1c0-0.1,0-0.1,0-0.2c0-0.1,0-0.3,0-0.4&#10;&#9;c0-0.3,0-0.6,0-0.9c0-0.2,0-0.3,0-0.5c0,0,0-0.1,0-0.1l0-0.1c0-0.1,0-0.2,0-0.2c0-0.3,0-0.7,0-1c0-0.2,0-0.3,0-0.5&#10;&#9;c0-0.1,0-0.2,0-0.3l0-0.1c0,0,0,0,0,0l0-0.1c0-0.1,0-0.1-0.1-0.2c-0.1-0.1-0.2-0.3-0.3-0.3c0,0-0.1,0-0.1,0l0,0l0,0l0,0l-0.1,0&#10;&#9;c-0.1,0-0.2,0-0.2,0l-0.3,0c-0.1,0-0.2,0-0.3,0l-0.1,0l0,0l0,0l0,0c0,0-0.1,0-0.1,0c0,0-0.1,0-0.1,0c-0.1,0.1-0.2,0.2-0.3,0.3&#10;&#9;c0,0,0,0.1-0.1,0.1c0,0,0,0.1,0,0.1c0,0,0,0,0,0.1l0,0l0,0l0,0c0,0,0,0,0,0l0,0c0,0.7,0,1.4,0,2.1c0,0.7,0,1.4,0.1,2&#10;&#9;c0,0.1,0,0.2,0,0.2c0,0,0,0.1,0,0.1l0,0.1c0,0.2,0,0.3,0,0.5c0,0.3,0,0.6,0,0.9c0,0.2,0,0.3,0,0.4c0,0.1,0,0.1,0,0.2&#10;&#9;c0,0.1,0,0.1,0,0.2c0,0.3,0,0.6,0,0.8c0,0.3,0,0.5,0,0.8c0,0.1,0,0.2,0,0.4c0,0,0,0.1,0,0.1l0,0l0,0.1c0,0,0,0.1,0,0.1&#10;&#9;c0,0,0,0.1,0.1,0.1c0.1,0.1,0.1,0.1,0.2,0.2c0,0,0.1,0,0.1,0c0,0,0.1,0,0.1,0c0,0,0,0,0,0l0,0c0,0,0.1,0,0.1,0c0,0,0.1,0,0.1,0&#10;&#9;c0.1,0,0.2,0,0.2,0c0.1,0,0.2,0,0.3,0c0.1,0,0.1,0,0.2,0c0.1,0,0.2,0,0.3,0c0.2-0.1,0.3-0.2,0.3-0.3c0,0,0,0,0-0.1c0,0,0,0,0-0.1&#10;&#9;c0,0,0,0,0-0.1c0,0,0,0,0,0c0,0,0,0,0,0c0,0,0-0.1,0-0.1l0,0c0,0,0-0.4,0-1C19.4,25,19.4,24.6,19.4,24.2z M19.1,26.3&#10;&#9;C19.1,26.3,19.1,26.3,19.1,26.3C19.1,26.3,19.1,26.3,19.1,26.3C19,26.4,19,26.4,19.1,26.3C19,26.4,19,26.4,19.1,26.3&#10;&#9;C19,26.4,19,26.4,19.1,26.3c-0.1,0.1-0.1,0.2-0.2,0.2c0,0,0,0-0.1,0c-0.1,0-0.1,0-0.2,0c-0.1,0-0.1,0-0.2,0c-0.1,0-0.2,0-0.3,0&#10;&#9;c0,0-0.1,0-0.2,0l0,0l0,0l0,0c0,0,0,0,0,0l0,0l0,0c0,0,0,0,0,0c0,0,0,0,0,0c0,0,0,0,0,0c0,0,0,0-0.1,0c0,0,0,0,0,0c0,0,0,0,0,0&#10;&#9;c0,0,0,0,0,0l0,0c0,0,0-0.1,0-0.1c0-0.1,0-0.2,0-0.4c0-0.2,0-0.5,0-0.8c0-0.3,0-0.5,0-0.8c0-0.1,0-0.1,0-0.2c0-0.1,0-0.1,0-0.2&#10;&#9;c0-0.1,0-0.3,0-0.4c0-0.3,0-0.6,0-0.9c0-0.2,0-0.3,0-0.5l0-0.1c0,0,0-0.1,0-0.1c0-0.1,0-0.2,0-0.2c0-0.7,0-1.3,0-2&#10;&#9;c0-0.7,0-1.4,0-2.1c0,0,0-0.1,0-0.1c0,0,0,0,0,0c0,0,0,0,0,0c0,0,0,0,0,0c0,0,0-0.1,0.1-0.1c0,0,0,0,0,0c0,0,0,0,0,0l0,0l0,0l0,0&#10;&#9;l0.1,0c0.1,0,0.2,0,0.3,0l0.3,0c0.1,0,0.2,0,0.3,0l0.1,0l0,0l0,0l0,0l0,0l0,0l0,0c0,0,0,0,0,0c0,0,0,0,0,0c0,0,0,0,0,0c0,0,0,0,0,0&#10;&#9;c0,0,0,0,0,0l0,0l0,0.1c0,0.1,0,0.2,0,0.3c0,0.2,0,0.3,0,0.5c0,0.3,0,0.7,0,1c0,0.1,0,0.2,0,0.2l0,0.1c0,0,0,0.1,0,0.1&#10;&#9;c0,0.2,0,0.3,0,0.5c0,0.3,0,0.6,0,0.9c0,0.2,0,0.3,0,0.4c0,0.1,0,0.1,0,0.2l0,0.1l0,0.1l0,0.1c0,0.3,0,0.6,0,0.8c0,0.5,0,1,0,1.4&#10;&#9;c0,0.4,0,0.8,0,1.1C19.1,25.9,19.1,26.3,19.1,26.3L19.1,26.3C19.1,26.3,19.1,26.3,19.1,26.3z" style="user-select: auto;"/>
<path class="st0" d="M23.2,22.7c0-0.5,0-1.1,0-1.7c0-0.6,0-1.2,0-1.9c0-0.3,0-0.7,0-1c0-0.2,0-0.3,0-0.5c0-0.1,0-0.2,0-0.3l0-0.1&#10;&#9;c0,0,0-0.1,0-0.1c0,0,0-0.1,0-0.1c0,0,0-0.1,0-0.1c0-0.1-0.1-0.2-0.2-0.3c0,0-0.1,0-0.1-0.1c0,0,0,0-0.1,0l0,0l0,0l0,0l-0.1,0&#10;&#9;c0,0,0,0,0,0l0,0l0,0l0,0c-0.2,0-0.4,0-0.5,0l-0.3,0l-0.1,0l0,0c0,0,0,0,0,0l0,0l-0.1,0l-0.1,0l-0.1,0c-0.2,0.1-0.3,0.2-0.3,0.3&#10;&#9;c0,0,0,0.1,0,0.1c0,0,0,0.1,0,0.1c0,0.1,0,0.1,0,0.2c0,0.2,0,0.3,0,0.5c0,0.2,0,0.3,0,0.5c0,0.2,0,0.4,0,0.5c0,0.2,0,0.3,0,0.5&#10;&#9;c0,0.7,0,1.4,0,2c0,0.3,0,0.7,0,1c0,0.3,0,0.6,0,0.9c0,0.2,0,0.3,0,0.4c0,0.1,0,0.1,0,0.2c0,0.1,0,0.1,0,0.2c0,0.3,0,0.6,0,0.8&#10;&#9;c0,0.3,0,0.5,0,0.8c0,0.1,0,0.2,0,0.4c0,0,0,0.1,0,0.1l0,0c0,0,0,0,0,0l0,0.1c0,0.1,0.1,0.2,0.1,0.2c0,0.1,0.1,0.1,0.2,0.2&#10;&#9;c0,0,0.1,0,0.1,0.1l0,0c0,0,0,0,0.1,0c0,0,0.1,0,0.1,0l0,0l0,0l0,0l0,0c0,0,0.1,0,0.1,0c0.2,0,0.4,0,0.5,0c0.1,0,0.2,0,0.2,0&#10;&#9;c0,0,0.1,0,0.1,0c0,0,0.1,0,0.1,0c0.2,0,0.3-0.2,0.4-0.2c0,0,0,0,0-0.1c0,0,0,0,0-0.1c0,0,0,0,0-0.1c0,0,0,0,0,0c0,0,0,0,0,0&#10;&#9;c0,0,0-0.1,0-0.1l0-0.1c0-0.2,0-0.4,0-0.8C23.2,24.7,23.2,23.8,23.2,22.7z M22.8,26.3C22.8,26.3,22.8,26.3,22.8,26.3&#10;&#9;C22.8,26.4,22.8,26.4,22.8,26.3c-0.1,0.1-0.1,0.1-0.2,0.2c0,0,0,0-0.1,0c0,0-0.1,0-0.1,0c-0.1,0-0.1,0-0.2,0c-0.2,0-0.3,0-0.5,0&#10;&#9;c0,0-0.1,0-0.1,0l0,0l0,0l0,0c0,0,0,0,0,0c0,0,0,0,0,0l0,0c0,0,0,0,0,0c0,0,0,0-0.1-0.1c0,0,0,0,0-0.1c0,0,0,0,0,0c0,0,0,0,0,0l0,0&#10;&#9;c0,0,0-0.1,0-0.1c0-0.1,0-0.2,0-0.4c0-0.2,0-0.5,0-0.8c0-0.3,0-0.5,0-0.8c0-0.1,0-0.1,0-0.2c0-0.1,0-0.1,0-0.2c0-0.1,0-0.3,0-0.4&#10;&#9;c0-0.3,0-0.6,0-0.9c0-0.3,0-0.6,0-1c0-0.7,0-1.3,0-2c0-0.2,0-0.3,0-0.5c0-0.2,0-0.3,0-0.5c0-0.4,0-0.7,0-1.1c0,0,0-0.1,0-0.1&#10;&#9;c0,0,0,0,0,0c0,0,0,0,0,0c0,0,0,0,0,0c0,0,0,0,0,0c0,0,0,0,0,0c0,0,0,0,0,0l0,0c0,0,0,0,0,0l0,0l0.1,0l0.3,0c0.2,0,0.3,0,0.5,0l0,0&#10;&#9;l0,0l0,0l0,0l0,0c0,0,0,0,0,0c0,0,0,0,0,0c0,0,0,0,0,0c0,0,0,0,0.1,0.1c0,0,0,0,0,0c0,0,0,0,0,0c0,0,0,0,0,0l0,0.1&#10;&#9;c0,0.1,0,0.2,0,0.3c0,0.2,0,0.3,0,0.5c0,0.3,0,0.7,0,1c0,0.7,0,1.3,0,1.9c0,0.6,0,1.2,0,1.7c0,1.1,0,1.9,0,2.6&#10;&#9;C22.8,25.9,22.8,26.3,22.8,26.3L22.8,26.3L22.8,26.3z" style="user-select: auto;"/>
<path class="st0" d="M29,13.4c0-0.4,0-0.8,0-1.2l0-0.2l0-0.1l0-0.1c0-0.1-0.1-0.2-0.1-0.4c-0.1-0.2-0.3-0.4-0.6-0.5&#10;&#9;c-0.1,0-0.1,0-0.2,0c0,0-0.1,0-0.1,0l-0.1,0c-0.1,0-0.2,0-0.3,0c-0.1,0-0.2,0-0.3,0c-0.1,0-0.2,0-0.3,0c-0.2,0-0.4,0-0.6,0&#10;&#9;c-0.2,0-0.4,0-0.5,0c-0.2,0-0.4,0-0.5,0c-0.2,0-0.3,0-0.5,0c-0.2,0-0.4,0-0.5,0c-0.2,0-0.3,0-0.5,0c-0.3,0-0.7,0-1,0&#10;&#9;c-0.3,0-0.6,0-0.9,0c-0.3,0-0.6,0-0.9,0c-0.6,0-1.1,0-1.6,0c-0.5,0-0.9,0-1.3,0.1c-0.2,0-0.4,0-0.6,0c-0.2,0-0.4,0-0.5,0&#10;&#9;c-0.3,0-0.6,0-0.8,0c-0.2,0-0.3,0-0.4,0c0-0.1,0-0.2,0-0.3c0-0.1,0-0.2,0-0.4c0-0.1,0-0.3,0-0.4c0-0.5,0-1.1,0-1.8c0-0.3,0-0.7,0-1&#10;&#9;c0-0.4,0-0.7,0-1.1c0-0.8,0-1.5,0.1-2.4c0-0.3,0-0.7,0-1c0,0,0,0,0,0c0,0,0,0,0,0c0,0,0,0,0,0l0,0c0-0.1,0-0.1,0-0.2&#10;&#9;c0-0.2,0-0.4,0-0.6l0-0.2c0,0,0-0.1,0-0.1c0,0,0-0.1,0-0.1c0-0.1-0.1-0.3-0.2-0.4c0,0-0.1-0.1-0.1-0.1l0,0l0,0l0,0l0,0&#10;&#9;c-0.1-0.1-0.1-0.1-0.2-0.1c-0.1-0.1-0.2-0.1-0.4-0.2c0,0-0.1,0-0.1,0l0,0l0,0c0,0,0,0,0,0l0,0l-0.2,0c-0.1,0-0.1,0-0.2,0&#10;&#9;c0,0,0,0,0,0l0,0c0,0,0,0,0,0l-0.1,0l0,0l0,0l0,0c0,0,0,0,0,0c-0.1,0-0.1,0-0.2,0c-0.1,0-0.3,0.1-0.4,0.2C13.2,1.1,13,1.4,13,1.7&#10;&#9;l0,0l0,0l0,0l0,0.1l0,0.2l0,0.3c0,0.2,0,0.4,0,0.7c0,0.2,0,0.4,0,0.7l0,0.3c0,0.1,0,0.2,0,0.3c0,0.9,0,1.7,0,2.6c0,0.4,0,0.8,0,1.2&#10;&#9;c0,0.4,0,0.8,0,1.2c0,0.4,0,0.8,0,1.1c0,0.3,0,0.5,0,0.8c-0.4,0-1.2,0-2.3,0c-0.8,0-1.8,0-2.9,0c-0.3,0-0.6,0-0.9,0&#10;&#9;c-0.3,0-0.6,0-0.9,0c-0.3,0-0.6,0-1,0c-0.3,0-0.7,0-1,0c-0.7,0-1.4,0-2.2,0c-0.2,0-0.4,0-0.6,0c-0.1,0-0.2,0-0.3,0l-0.1,0&#10;&#9;c-0.1,0,0,0,0,0l0,0l0,0l-0.1,0c0,0,0,0,0,0l-0.1,0c-0.1,0-0.1,0-0.2,0.1c-0.1,0-0.1,0.1-0.2,0.1c-0.1,0-0.1,0.1-0.2,0.1&#10;&#9;c0,0.1-0.1,0.1-0.1,0.2C0,11.7,0,11.8,0,11.9C0,11.9,0,12,0,12l0,0.1l0,0l0,0l0,0.1c0,0.4,0,0.8,0,1.2l0,0.1c0,0,0,0.1,0,0.1l0,0.1&#10;&#9;L0,14c0.1,0.1,0.1,0.2,0.3,0.3c0.1,0.1,0.2,0.2,0.4,0.2c0.1,0,0.1,0,0.2,0.1c0,0,0.1,0,0.1,0l0.1,0c0.2,0,0.4,0,0.6,0l0,0.1&#10;&#9;c0,0,0,0.1,0,0.1l0,0.1c0,0.1,0,0.1,0.1,0.2l0.1,0.2l0,0.1c0,0,0,0,0,0.1c0,0,0,0,0,0c0,0.1,0.1,0.3,0.1,0.6&#10;&#9;c0.1,0.5,0.3,1.2,0.5,2.2c0.4,1.9,1,4.6,1.7,7.8c0.1,0.4,0.2,0.8,0.3,1.2l0,0.2l0,0.1c0,0,0,0.1,0,0l0,0l0,0l0,0l0,0l0,0&#10;&#9;c0,0,0,0.1,0.1,0.1c0,0,0,0.1,0.1,0.1l0.1,0.1c0.2,0.2,0.5,0.4,0.8,0.4c0.9,0,1.8,0,2.8,0c1.9,0,3.9,0,5.9,0c2.1,0,4.2,0,6.4,0&#10;&#9;c0.5,0,1.1,0,1.6,0c0.3,0,0.5,0,0.8,0l0.4,0l0.2,0l0.1,0l0.1,0c0,0,0.1,0,0.1,0l0,0c0,0,0.1,0,0.1,0c0.1,0,0.1,0,0.2,0&#10;&#9;c0.1,0,0.1,0,0.1-0.1l0.1,0c0,0,0,0,0.1,0c0.2-0.1,0.3-0.2,0.4-0.4c0-0.1,0.1-0.2,0.1-0.3l0-0.2l0.1-0.4c0.1-0.5,0.2-1.1,0.3-1.6&#10;&#9;c0.5-2.1,0.9-4.3,1.4-6.4c0.2-1.1,0.4-2.1,0.7-3.1l0-0.2l0-0.1c0,0,0-0.1,0-0.1c0,0,0,0,0,0c0,0,0,0,0,0l0-0.1l0-0.2l0.1-0.4l0-0.1&#10;&#9;c0,0,0,0,0,0l0.2,0c0.1,0,0.2,0,0.3,0c0.1,0,0,0,0,0l0,0l0,0l0.1,0c0.1,0,0.2,0,0.2-0.1c0.1,0,0.1-0.1,0.2-0.1&#10;&#9;c0.1,0,0.1-0.1,0.2-0.1c0.1-0.1,0.2-0.2,0.2-0.4c0-0.1,0-0.1,0-0.2C29,13.5,29,13.4,29,13.4z M14.2,13.4L14.2,13.4L14.2,13.4&#10;&#9;L14.2,13.4c-0.1,0-0.1,0-0.2,0c0,0,0,0-0.1,0l0,0c0,0,0,0,0,0c0,0,0,0-0.1,0c0,0,0,0-0.1,0l0,0c0,0,0,0,0,0l0-0.1&#10;&#9;c0-0.1-0.1-0.2-0.1-0.3c0-0.1,0-0.3,0-0.4c0-0.3,0-0.6,0-1c0-0.3,0-0.6,0-0.9c0.1,0,0.2,0,0.3,0c0.1,0,0.1,0,0.2,0&#10;&#9;c0.1,0,0.1,0,0.2,0c0.1,0,0.1,0,0.2,0c0.1,0,0.1,0,0.2,0c0.1,0,0.1,0,0.2,0c0.1,0,0.1,0,0.2,0c0.2,0,0.3-0.1,0.3-0.1c0,0,0,0,0,0&#10;&#9;c0,0,0,0,0,0c0,0,0,0-0.1,0c0,0-0.1,0-0.1,0s-0.1,0-0.1,0c0,0-0.1,0-0.2,0c-0.1,0-0.1,0-0.2,0c-0.1,0-0.1,0-0.2,0&#10;&#9;c-0.1,0-0.1,0-0.2,0c-0.1,0-0.1,0-0.2,0c-0.1,0-0.1,0-0.2,0c-0.1,0-0.1,0-0.2,0c0,0-0.1,0-0.1,0c0,0,0,0,0,0c0-0.1,0-0.2,0-0.3&#10;&#9;c0.1,0,0.2,0,0.3,0c0.1,0,0.1,0,0.2,0c0.1,0,0.1,0,0.2,0c0.1,0,0.1,0,0.2,0c0.1,0,0.1,0,0.2,0c0.1,0,0.1,0,0.2,0c0.1,0,0.1,0,0.2,0&#10;&#9;c0.2,0,0.3-0.1,0.3-0.1c0,0,0,0,0,0c0,0,0,0,0,0c0,0,0,0-0.1,0c0,0-0.1,0-0.1,0c0,0-0.1,0-0.1,0c0,0-0.1,0-0.2,0c-0.1,0-0.1,0-0.2,0&#10;&#9;c-0.1,0-0.1,0-0.2,0c-0.1,0-0.1,0-0.2,0c-0.1,0-0.1,0-0.2,0c-0.1,0-0.1,0-0.2,0c-0.1,0-0.1,0-0.2,0c-0.1,0-0.1,0-0.2,0c0,0,0,0,0,0&#10;&#9;c0-0.1,0-0.2,0-0.3c0,0,0.1,0,0.1,0c0.1,0,0.1,0,0.2,0c0.1,0,0.1,0,0.2,0c0.1,0,0.1,0,0.2,0c0.1,0,0.1,0,0.2,0c0.1,0,0.1,0,0.2,0&#10;&#9;c0.1,0,0.1,0,0.2,0c0.1,0,0.1,0,0.2,0c0.1,0,0.2,0,0.2-0.1c0,0.2,0,0.4,0,0.6c0,0.1,0,0.3,0,0.4c0,0.1,0,0.2,0,0.4&#10;&#9;c0,0.1,0,0.2,0,0.4c0,0,0,0,0,0c0,0,0,0,0,0c0,0.1,0,0.2,0,0.2c0,0.3,0,0.5,0,0.7l0,0.5c0,0,0,0,0,0.1c0,0,0,0.1-0.1,0.2&#10;&#9;c-0.1,0.1-0.3,0.3-0.6,0.3C14.6,13.4,14.4,13.4,14.2,13.4z M13.6,2.2c0.1,0,0.1,0,0.2,0c0.1,0,0.1,0,0.2,0c0.1,0,0.1,0,0.2,0&#10;&#9;c0.1,0,0.1,0,0.2,0c0.1,0,0.1,0,0.2,0c0.1,0,0.1,0,0.2,0c0.1,0,0.1,0,0.2,0c0.1,0,0.1,0,0.2,0c0,0,0,0,0,0c0,0.1,0,0.2,0,0.3&#10;&#9;c0,0-0.1,0-0.1,0c-0.1,0-0.2,0-0.3,0c-0.1,0-0.2,0-0.3,0c-0.1,0-0.2,0-0.3,0c-0.1,0-0.2,0-0.3,0c-0.2,0-0.3,0-0.3,0c0,0,0,0,0,0&#10;&#9;c0,0,0,0,0,0c0,0,0.1,0,0.3,0c0.1,0,0.2,0,0.3,0c0.1,0,0.2,0,0.3,0c0.1,0,0.2,0,0.3,0c0.1,0,0.2,0,0.3,0c0,0,0.1,0,0.1,0&#10;&#9;c0,0,0,0,0,0c0,0.1,0,0.2,0,0.3c-0.1,0-0.1,0-0.2,0c-0.1,0-0.1,0-0.2,0c-0.1,0-0.2,0-0.2,0c-0.1,0-0.2,0-0.2,0c-0.1,0-0.2,0-0.2,0&#10;&#9;c-0.1,0-0.1,0-0.2,0c-0.1,0-0.1,0-0.2,0c-0.1,0-0.1,0-0.2,0C13.6,2.6,13.6,2.4,13.6,2.2z M15.3,5C15.3,5,15.3,5,15.3,5&#10;&#9;c-0.1,0-0.1,0-0.1,0c0,0-0.1,0-0.1,0c-0.1,0-0.1,0-0.2,0c-0.1,0-0.1,0-0.2,0c-0.1,0-0.1,0-0.2,0c-0.1,0-0.1,0-0.2,0&#10;&#9;c-0.1,0-0.1,0-0.2,0c-0.1,0-0.1,0-0.2,0c-0.1,0-0.1,0-0.1,0c-0.1,0-0.1,0-0.2,0c0-0.1,0-0.2,0-0.2c0,0,0.1,0,0.1,0c0,0,0.1,0,0.2,0&#10;&#9;c0.1,0,0.1,0,0.2,0c0.1,0,0.1,0,0.2,0c0.1,0,0.1,0,0.2,0c0.1,0,0.1,0,0.2,0c0.1,0,0.1,0,0.2,0c0.1,0,0.1,0,0.2,0c0.1,0,0.1,0,0.2,0&#10;&#9;c0,0,0,0,0,0C15.3,4.9,15.3,4.9,15.3,5z M13.6,4.4c0-0.1,0-0.2,0-0.2c0,0,0.1,0,0.2,0c0,0,0.1,0,0.2,0c0.1,0,0.1,0,0.2,0&#10;&#9;c0.1,0,0.1,0,0.2,0c0.1,0,0.1,0,0.2,0c0.1,0,0.1,0,0.2,0c0.1,0,0.1,0,0.2,0c0.1,0,0.1,0,0.2,0c0.1,0,0.1,0,0.2,0c0,0,0,0,0.1,0&#10;&#9;c0,0.1,0,0.2,0,0.2c0,0,0,0,0,0c0,0-0.1,0-0.2,0c0,0-0.1,0-0.1,0c0,0-0.1,0-0.1,0c0,0-0.1,0-0.2,0c-0.1,0-0.1,0-0.2,0&#10;&#9;c-0.1,0-0.1,0-0.2,0c-0.1,0-0.1,0-0.2,0c-0.1,0-0.2,0-0.3,0C13.8,4.4,13.7,4.3,13.6,4.4C13.7,4.3,13.7,4.4,13.6,4.4z M15.3,3.6&#10;&#9;C15.3,3.6,15.3,3.6,15.3,3.6c-0.1,0-0.1,0-0.2,0c-0.1,0-0.1,0-0.2,0c-0.1,0-0.1,0-0.2,0c-0.1,0-0.1,0-0.2,0c-0.1,0-0.1,0-0.2,0&#10;&#9;c-0.1,0-0.1,0-0.2,0c-0.1,0-0.1,0-0.2,0c-0.1,0-0.1,0-0.2,0c-0.1,0-0.2,0-0.2,0c0-0.1,0-0.2,0-0.3c0.1,0,0.1,0,0.2,0&#10;&#9;c0,0,0.1,0,0.2,0c0.1,0,0.1,0,0.2,0c0.1,0,0.1,0,0.2,0c0.1,0,0.1,0,0.2,0c0.1,0,0.1,0,0.2,0c0.1,0,0.1,0,0.2,0c0.1,0,0.1,0,0.2,0&#10;&#9;c0,0,0.1,0,0.1,0C15.3,3.5,15.3,3.5,15.3,3.6z M13.6,3.7c0.1,0,0.1,0,0.2,0c0.1,0,0.2,0,0.3,0c0.1,0,0.1,0,0.2,0c0.1,0,0.1,0,0.2,0&#10;&#9;c0.1,0,0.1,0,0.2,0c0.1,0,0.1,0,0.2,0c0.1,0,0.1,0,0.2,0c0.1,0,0.1,0,0.2,0c0,0,0,0,0,0c0,0.1,0,0.1,0,0.2c0,0,0,0.1,0,0.1&#10;&#9;c0,0,0,0-0.1,0c0,0-0.1,0-0.2,0C15,4,15,4,14.9,4c-0.1,0-0.1,0-0.2,0c-0.1,0-0.1,0-0.2,0c-0.1,0-0.1,0-0.2,0c-0.1,0-0.1,0-0.2,0&#10;&#9;c-0.1,0-0.1,0-0.2,0c-0.1,0-0.1,0-0.2,0c-0.1,0-0.1,0-0.2,0L13.6,3.7z M13.6,4.4c0,0,0.1,0,0.3,0.1c0.1,0,0.2,0,0.3,0&#10;&#9;c0.1,0,0.1,0,0.2,0c0.1,0,0.1,0,0.2,0c0.1,0,0.1,0,0.2,0c0.1,0,0.1,0,0.2,0c0.1,0,0.1,0,0.1,0c0,0,0.1,0,0.1,0c0.1,0,0.1,0,0.2-0.1&#10;&#9;c0,0.1,0,0.2,0,0.3c0,0,0,0-0.1,0c-0.1,0-0.1,0-0.2,0c-0.1,0-0.1,0-0.2,0c-0.1,0-0.1,0-0.2,0c-0.1,0-0.1,0-0.2,0c-0.1,0-0.1,0-0.2,0&#10;&#9;c-0.1,0-0.1,0-0.2,0c-0.1,0-0.1,0-0.2,0c-0.1,0-0.1,0-0.2,0c0,0-0.1,0-0.1,0C13.6,4.6,13.6,4.5,13.6,4.4z M13.6,5.1c0,0,0.1,0,0.1,0&#10;&#9;c0.1,0,0.2,0,0.3,0c0.1,0,0.1,0,0.2,0c0.1,0,0.1,0,0.2,0c0.1,0,0.1,0,0.2,0c0.1,0,0.1,0,0.2,0c0.1,0,0.2,0,0.3-0.1c0,0,0.1,0,0.1,0&#10;&#9;c0,0.1,0,0.2,0,0.2c0,0,0,0,0,0c-0.1,0-0.1,0-0.2,0c-0.1,0-0.1,0-0.2,0c-0.1,0-0.1,0-0.2,0c-0.1,0-0.1,0-0.2,0c-0.1,0-0.1,0-0.2,0&#10;&#9;c-0.1,0-0.1,0-0.2,0c-0.1,0-0.1,0-0.2,0c-0.1,0-0.1,0-0.2,0c0,0-0.1,0-0.1,0C13.6,5.3,13.6,5.2,13.6,5.1z M13.7,5.5&#10;&#9;c0.1,0,0.1,0,0.2,0c0.1,0,0.1,0,0.2,0c0.1,0,0.1,0,0.2,0c0.1,0,0.1,0,0.2,0c0.1,0,0.1,0,0.2,0c0.1,0,0.1,0,0.2,0c0.1,0,0.1,0,0.2,0&#10;&#9;c0.1,0,0.1,0,0.2,0c0,0.1,0,0.2,0,0.3c0,0,0,0-0.1,0c0,0-0.1,0-0.2,0c-0.1,0-0.1,0-0.2,0c-0.1,0-0.1,0-0.2,0c-0.1,0-0.1,0-0.2,0&#10;&#9;c-0.1,0-0.1,0-0.2,0c-0.1,0-0.1,0-0.2,0c-0.1,0-0.1,0-0.2,0c-0.1,0-0.1,0-0.2,0c0,0-0.1,0-0.1,0C13.6,5.7,13.6,5.6,13.7,5.5&#10;&#9;C13.7,5.5,13.7,5.5,13.7,5.5z M13.6,5.8c0,0,0.1,0,0.1,0c0,0,0.1,0,0.2,0c0.1,0,0.1,0,0.2,0c0.1,0,0.1,0,0.2,0c0.1,0,0.1,0,0.2,0&#10;&#9;c0.1,0,0.1,0,0.2,0c0.1,0,0.1,0,0.2,0c0.1,0,0.1,0,0.2,0c0.1,0,0.1,0,0.2,0c0,0,0,0,0.1,0c0,0.1,0,0.2,0,0.3c0,0,0,0-0.1,0&#10;&#9;c0,0-0.1,0-0.2,0c-0.1,0-0.1,0-0.2,0c-0.1,0-0.1,0-0.2,0c-0.1,0-0.1,0-0.2,0c-0.1,0-0.1,0-0.2,0c-0.1,0-0.1,0-0.2,0&#10;&#9;c-0.1,0-0.1,0-0.2,0c-0.1,0-0.1,0-0.2,0c-0.1,0-0.1,0-0.2,0C13.7,6,13.7,5.9,13.6,5.8z M13.7,6.9C13.7,6.9,13.7,6.9,13.7,6.9&#10;&#9;c0,0,0.1,0,0.1,0c0.1,0,0.2,0,0.3,0c0.1,0,0.1,0,0.2,0c0.1,0,0.1,0,0.2,0c0.1,0,0.1,0,0.2,0c0.1,0,0.1,0,0.2,0c0.1,0,0.1,0,0.2,0&#10;&#9;c0.1,0,0.1,0,0.2,0c0,0,0.1,0,0.1,0c0,0.1,0,0.2,0,0.3c0,0,0,0,0,0c-0.1,0-0.1,0-0.2,0c-0.1,0-0.1,0-0.2,0c-0.1,0-0.1,0-0.2,0&#10;&#9;c-0.1,0-0.1,0-0.2,0c-0.1,0-0.1,0-0.2,0c-0.1,0-0.1,0-0.2,0c-0.1,0-0.1,0-0.2,0c-0.1,0-0.1,0-0.2,0C13.7,7.1,13.7,7,13.7,6.9z&#10;&#9; M15.3,6.7C15.3,6.7,15.2,6.7,15.3,6.7c-0.1,0-0.2,0-0.2,0c-0.1,0-0.1,0-0.2,0c-0.1,0-0.1,0-0.2,0c-0.1,0-0.1,0-0.2,0&#10;&#9;c-0.1,0-0.1,0-0.2,0c-0.1,0-0.1,0-0.2,0c-0.1,0-0.1,0-0.2,0c-0.1,0-0.1,0-0.2,0c-0.1,0-0.1,0-0.1,0c0-0.1,0-0.1,0-0.2&#10;&#9;c0.1,0,0.1,0,0.2,0c0.1,0,0.1,0,0.2,0c0.1,0,0.1,0,0.2,0c0.1,0,0.2,0,0.2,0c0.1,0,0.2,0,0.2,0c0.1,0,0.2,0,0.2,0c0.1,0,0.1,0,0.2,0&#10;&#9;c0,0,0.1,0,0.1,0C15.3,6.6,15.3,6.7,15.3,6.7z M13.7,9.3c0-0.1,0-0.2,0-0.3c0,0,0,0,0,0c0.1,0,0.2,0,0.3,0c0.1,0,0.1,0,0.2,0&#10;&#9;c0.1,0,0.1,0,0.2,0c0.1,0,0.1,0,0.2,0c0.1,0,0.1,0,0.2,0c0.1,0,0.1,0,0.2,0C15,9,15,9,15.1,9c0.1,0,0.2,0,0.2-0.1c0,0.1,0,0.2,0,0.3&#10;&#9;c0,0-0.1,0-0.1,0c0,0-0.1,0-0.1,0c-0.1,0-0.1,0-0.2,0c-0.1,0-0.1,0-0.2,0c-0.1,0-0.1,0-0.2,0c-0.1,0-0.1,0-0.2,0c-0.1,0-0.1,0-0.2,0&#10;&#9;c-0.1,0-0.1,0-0.2,0C13.9,9.3,13.8,9.3,13.7,9.3C13.7,9.3,13.7,9.3,13.7,9.3z M15.3,8.8C15.3,8.8,15.3,8.9,15.3,8.8&#10;&#9;c-0.1,0-0.1,0-0.1,0c0,0-0.1,0-0.1,0c0,0-0.1,0-0.2,0c-0.1,0-0.1,0-0.2,0c-0.1,0-0.1,0-0.2,0c-0.1,0-0.1,0-0.2,0c-0.1,0-0.1,0-0.2,0&#10;&#9;c-0.1,0-0.1,0-0.2,0c-0.1,0-0.1,0-0.2,0c-0.1,0-0.1,0-0.2,0c0,0,0,0,0,0c0-0.1,0-0.2,0-0.2c0.1,0,0.2,0,0.3,0c0.1,0,0.1,0,0.2,0&#10;&#9;c0.1,0,0.1,0,0.2,0c0.1,0,0.1,0,0.2,0c0.1,0,0.1,0,0.2,0c0.1,0,0.1,0,0.2,0c0.1,0,0.1,0,0.2,0c0.1,0,0.2,0,0.2-0.1&#10;&#9;C15.3,8.7,15.3,8.8,15.3,8.8z M15.3,8.4C15.3,8.4,15.3,8.5,15.3,8.4C15.3,8.5,15.3,8.5,15.3,8.4c0,0.1-0.1,0.1-0.1,0.1&#10;&#9;c0,0-0.1,0-0.1,0c0,0-0.1,0-0.2,0c-0.1,0-0.1,0-0.2,0c-0.1,0-0.1,0-0.2,0c-0.1,0-0.1,0-0.2,0c-0.1,0-0.1,0-0.2,0c-0.1,0-0.1,0-0.2,0&#10;&#9;c-0.1,0-0.1,0-0.2,0c-0.1,0-0.1,0-0.2,0c0,0,0,0,0,0c0-0.1,0-0.1,0-0.2c0,0,0.1,0,0.1,0c0.1,0,0.1,0,0.2,0c0.1,0,0.1,0,0.2,0&#10;&#9;c0.1,0,0.1,0,0.2,0c0.1,0,0.1,0,0.2,0c0.1,0,0.1,0,0.2,0c0.1,0,0.1,0,0.2,0c0.1,0,0.1,0,0.2,0c0,0,0.1,0,0.1,0&#10;&#9;C15.3,8.3,15.3,8.3,15.3,8.4z M15.3,8.1C15.3,8.1,15.3,8.1,15.3,8.1c0,0-0.1,0-0.2,0c-0.1,0-0.1,0-0.2,0c-0.1,0-0.1,0-0.2,0&#10;&#9;c-0.1,0-0.1,0-0.2,0c-0.1,0-0.1,0-0.2,0c-0.1,0-0.1,0-0.2,0c-0.1,0-0.1,0-0.2,0c-0.1,0-0.1,0-0.2,0c0,0-0.1,0-0.1,0c0,0,0,0,0-0.1&#10;&#9;c0-0.1,0-0.1,0-0.2c0,0,0.1,0,0.1,0c0.1,0,0.1,0,0.2,0c0.1,0,0.1,0,0.2,0c0.1,0,0.1,0,0.2,0c0.1,0,0.1,0,0.2,0c0.1,0,0.1,0,0.2,0&#10;&#9;c0.1,0,0.1,0,0.2,0c0.1,0,0.1,0,0.2,0c0.1,0,0.2,0,0.2-0.1C15.3,8,15.3,8,15.3,8.1z M13.7,9.4C13.7,9.4,13.7,9.4,13.7,9.4&#10;&#9;c0.1,0,0.2,0,0.3,0c0.1,0,0.1,0,0.2,0c0.1,0,0.1,0,0.2,0c0.1,0,0.1,0,0.2,0c0.1,0,0.1,0,0.2,0c0.1,0,0.1,0,0.2,0c0.1,0,0.1,0,0.2,0&#10;&#9;c0.1,0,0.2,0,0.2-0.1c0,0.1,0,0.2,0,0.4c0,0-0.1,0-0.1,0c0,0-0.1,0-0.1,0c-0.1,0-0.1,0-0.2,0c-0.1,0-0.1,0-0.2,0c-0.1,0-0.1,0-0.2,0&#10;&#9;c-0.1,0-0.1,0-0.2,0c-0.1,0-0.1,0-0.2,0c-0.1,0-0.1,0-0.2,0c-0.1,0-0.1,0-0.2,0c0,0-0.1,0-0.1,0C13.6,9.6,13.7,9.5,13.7,9.4z&#10;&#9; M15.3,7.4c0,0.1,0,0.3,0,0.4c0,0-0.1,0-0.1,0c0,0-0.1,0-0.1,0c0,0-0.1,0-0.2,0c-0.1,0-0.1,0-0.2,0c-0.1,0-0.1,0-0.2,0&#10;&#9;c-0.1,0-0.1,0-0.2,0c-0.1,0-0.1,0-0.2,0c-0.1,0-0.1,0-0.2,0c-0.1,0-0.1,0-0.2,0c0,0-0.1,0-0.1,0c0-0.1,0-0.2,0-0.3c0,0,0.1,0,0.1,0&#10;&#9;c0.1,0,0.2,0,0.3,0c0.1,0,0.1,0,0.2,0c0.1,0,0.1,0,0.2,0c0.1,0,0.1,0,0.2,0c0.1,0,0.1,0,0.2,0c0.1,0,0.1,0,0.1,0c0,0,0.1,0,0.1,0&#10;&#9;c0.2,0,0.3-0.1,0.3-0.1c0,0,0,0,0,0C15.3,7.5,15.2,7.5,15.3,7.4c-0.1,0.1-0.1,0.1-0.1,0.1c0,0-0.1,0-0.1,0c0,0-0.1,0-0.1,0&#10;&#9;c0,0-0.1,0-0.1,0c0,0-0.1,0-0.1,0c0,0-0.1,0-0.2,0c-0.1,0-0.1,0-0.2,0c-0.1,0-0.1,0-0.2,0c-0.1,0-0.1,0-0.2,0c-0.1,0-0.2,0-0.3,0&#10;&#9;c-0.1,0-0.1,0-0.1,0c0-0.1,0-0.1,0-0.2c0,0,0.1,0,0.1,0c0.1,0,0.1,0,0.2,0c0.1,0,0.1,0,0.2,0c0.1,0,0.2,0,0.2,0c0.1,0,0.2,0,0.2,0&#10;&#9;c0.1,0,0.1,0,0.2,0c0.1,0,0.1,0,0.2,0c0.1,0,0.1,0,0.2,0c0,0,0,0,0,0C15.3,7.2,15.3,7.3,15.3,7.4z M13.8,3c0.1,0,0.1,0,0.2,0&#10;&#9;c0.1,0,0.1,0,0.2,0c0.1,0,0.2,0,0.2,0c0.1,0,0.2,0,0.2,0c0.1,0,0.2,0,0.2,0C15,3,15,3,15.1,3c0.1,0,0.1,0,0.2,0c0,0.1,0,0.2,0,0.3&#10;&#9;c0,0-0.1,0-0.2,0c-0.1,0-0.1,0-0.2,0c-0.1,0-0.1,0-0.2,0c-0.1,0-0.1,0-0.2,0c-0.1,0-0.1,0-0.2,0c-0.1,0-0.1,0-0.2,0&#10;&#9;c-0.1,0-0.1,0-0.2,0c-0.1,0-0.1,0-0.2,0c-0.1,0-0.2,0-0.2,0c0-0.1,0-0.2,0-0.2c0,0,0-0.1,0-0.1C13.7,3,13.7,3,13.8,3z M13.7,6.2&#10;&#9;c0,0,0.1,0,0.1,0c0.1,0,0.2,0,0.3,0c0.1,0,0.1,0,0.2,0c0.1,0,0.1,0,0.2,0c0.1,0,0.1,0,0.2,0c0.1,0,0.1,0,0.2,0c0.1,0,0.1,0,0.2,0&#10;&#9;c0.1,0,0.1,0,0.2,0c0,0,0,0,0.1,0c0,0,0,0.1,0,0.1c0,0,0,0.1,0,0.1c0,0-0.1,0-0.1,0c-0.1,0-0.1,0-0.2,0c-0.1,0-0.1,0-0.2,0&#10;&#9;c-0.1,0-0.2,0-0.2,0c-0.1,0-0.2,0-0.2,0c-0.1,0-0.1,0-0.2,0c-0.1,0-0.1,0-0.2,0c-0.1,0-0.1,0-0.2,0c0,0,0,0,0,0&#10;&#9;C13.7,6.4,13.7,6.3,13.7,6.2z M13.7,1.6c0-0.1,0.1-0.1,0.1-0.1c0.1,0,0.1-0.1,0.2-0.1c0,0,0.1,0,0.1,0l0.2,0c0,0,0,0,0,0l0.1,0&#10;&#9;l0.1,0c0.1,0,0.1,0,0.1,0c0,0,0.1,0,0.1,0l0,0l0,0l0,0c0,0,0,0,0,0c0.1,0,0.3,0.1,0.3,0.2c0,0.1,0.1,0.1,0.1,0.2l0,0c0,0,0,0-0.1,0&#10;&#9;c-0.1,0-0.2,0-0.3,0c-0.1,0-0.2,0-0.3,0c-0.1,0-0.2,0-0.3,0c-0.1,0-0.2,0-0.3,0c-0.2,0-0.3,0-0.3,0c0,0,0,0,0,0c0,0,0,0,0,0&#10;&#9;c0,0,0.1,0,0.3,0c0.1,0,0.2,0,0.3,0c0.1,0,0.2,0,0.3,0c0.1,0,0.2,0,0.3,0c0.1,0,0.2,0,0.3,0c0,0,0,0,0.1,0l0,0.1c0,0,0,0.1,0,0.1&#10;&#9;c0,0,0,0-0.1,0c-0.1,0-0.1,0-0.2,0c-0.1,0-0.1,0-0.2,0c-0.1,0-0.1,0-0.2,0c-0.1,0-0.1,0-0.2,0c-0.1,0-0.1,0-0.2,0&#10;&#9;c-0.1,0-0.1,0-0.2,0c-0.1,0-0.1,0-0.2,0c-0.1,0-0.2,0-0.2,0c0-0.1,0-0.2,0-0.4C13.6,1.7,13.6,1.6,13.7,1.6z M17.3,15&#10;&#9;C17.3,15,17.4,15,17.3,15c0-0.1,0-0.1,0-0.1c0.1,0,0.1,0,0.1,0c0,0,0,0,0,0c-0.1,0-0.1,0-0.1,0l0,0c0,0,0,0,0,0&#10;&#9;C17.4,14.9,17.4,15,17.3,15c0.1-0.1,0.1-0.1,0.2-0.1c0,0,0,0,0,0c0,0,0,0,0,0c0,0,0,0,0,0c0.1,0,0.1,0,0.2,0c0,0,0.1,0,0.1,0&#10;&#9;c0,0,0,0.1,0,0.1c0,0,0,0,0,0L17.3,15z M11.1,15.1C11.1,15.1,11.1,15.1,11.1,15.1C11.1,15,11.1,15,11.1,15.1c0-0.1,0.1,0,0.1,0&#10;&#9;c0,0,0,0,0,0c0,0,0,0,0,0L11.1,15.1z M2,14.8C2,14.8,1.9,14.8,2,14.8c-0.1,0-0.1-0.1-0.1-0.2c0,0,0.1,0,0.1,0c0,0,0,0,0,0&#10;&#9;C2,14.7,2,14.7,2,14.8C2,14.7,2,14.8,2,14.8C2,14.8,2,14.8,2,14.8z M2.1,14.7C2.1,14.7,2.1,14.7,2.1,14.7c0.1-0.1,0.1-0.1,0.1-0.1&#10;&#9;c0.4,0,0.8,0,1.2,0c0,0,0,0,0,0c0,0,0,0.1,0,0.1c0,0,0,0,0,0c-0.1,0-0.1,0-0.1,0l0,0c0,0,0,0,0,0c0,0,0,0,0,0c0,0,0,0,0.1,0&#10;&#9;c0,0,0,0,0,0c0,0,0,0.1,0,0.1c-0.1,0-0.2,0-0.3,0c0,0,0,0,0,0c0-0.1,0-0.2,0-0.2c0-0.1,0-0.1,0-0.1l0,0c0,0,0,0,0,0c0,0,0,0,0,0&#10;&#9;c0,0,0,0,0,0.1c0,0.1,0,0.1,0,0.2c0,0,0,0,0,0C3.1,15,3,15,3,15c0,0,0,0,0,0c0,0,0-0.1,0-0.1c0,0,0,0,0,0c0,0,0,0,0,0c0,0,0,0,0,0&#10;&#9;c0-0.1,0-0.1,0-0.1c0,0,0,0,0,0c0,0,0,0,0,0c0,0,0,0,0,0.1c0,0-0.1,0-0.1,0c-0.1,0-0.2,0-0.4,0c0,0,0,0,0,0c0,0,0-0.1,0-0.1&#10;&#9;c0,0,0,0,0,0c0,0,0,0,0,0c0,0,0,0,0,0l0,0c0,0,0,0,0,0.1C2.2,14.8,2.2,14.8,2.1,14.7C2.1,14.8,2.1,14.8,2.1,14.7z M9.3,14.9&#10;&#9;C9.3,14.9,9.3,14.9,9.3,14.9c0-0.1,0-0.1,0-0.2c0,0,0.1,0,0.1,0c0,0,0,0.1,0,0.1c0,0,0,0.1,0,0.1C9.4,15,9.3,14.9,9.3,14.9z M9,14.9&#10;&#9;c0,0,0-0.1,0-0.1c0,0,0,0,0-0.1c0,0,0.1,0,0.1,0c0,0,0,0,0,0c0,0,0,0.1,0,0.1c0,0,0,0,0,0C9.1,14.9,9.1,14.9,9,14.9z M8.3,15.1&#10;&#9;C8.3,15.1,8.3,15.1,8.3,15.1C8.4,15.1,8.4,15.1,8.3,15.1c0.1-0.1,0.2-0.1,0.2-0.1c0,0,0,0,0,0.1L8.3,15.1z M8,15.1L8,15.1&#10;&#9;C8,15.1,8,15.1,8,15.1C8,15,8,15,8,15.1C8.1,15,8.1,15,8.2,15c0,0,0,0,0.1,0c0,0,0,0,0,0.1L8,15.1z M7.1,15.2c0,0,0-0.1,0-0.1&#10;&#9;c0.1,0,0.2,0,0.3,0c0,0,0,0,0,0c0,0,0,0.1,0,0.1c0,0,0,0,0,0L7.1,15.2C7.1,15.2,7.1,15.2,7.1,15.2z M6.1,14.8c0.1,0,0.2,0,0.3,0&#10;&#9;c0,0,0,0.1,0,0.1c0,0,0,0,0,0c-0.1,0-0.1,0-0.2,0c0,0,0,0,0,0C6.1,14.9,6.1,14.9,6.1,14.8z M6.6,14.9C6.6,14.9,6.6,14.9,6.6,14.9&#10;&#9;c-0.1,0-0.1,0-0.1,0c0,0,0-0.1,0-0.1c0.1,0,0.1,0,0.2,0C6.6,14.9,6.6,14.9,6.6,14.9C6.6,14.9,6.6,14.9,6.6,14.9z M6.1,15.1&#10;&#9;C6.1,15.1,6.1,15.1,6.1,15.1c0.1,0,0.2,0,0.2,0c0,0,0,0,0,0c0,0,0,0,0,0.1c0,0,0,0.1,0,0.1c-0.1,0-0.2,0-0.3,0c0,0,0,0,0,0&#10;&#9;C6.1,15.2,6.1,15.1,6.1,15.1C6.1,15.1,6.1,15.1,6.1,15.1z M6.5,15.1C6.5,15.1,6.5,15.1,6.5,15.1c0.1,0,0.1,0,0.1,0c0,0,0,0.1,0,0.1&#10;&#9;c0,0,0,0,0,0c-0.1,0-0.1,0-0.2,0C6.5,15.2,6.5,15.1,6.5,15.1z M6.7,15.2C6.7,15.2,6.7,15.2,6.7,15.2c0-0.1,0-0.1,0-0.1c0,0,0,0,0,0&#10;&#9;c0.1,0,0.1,0,0.2,0c0,0,0,0,0,0c0,0,0,0.1,0,0.1C6.9,15.2,6.8,15.2,6.7,15.2C6.7,15.2,6.7,15.2,6.7,15.2z M7.1,14.8c0,0,0.1,0,0.2,0&#10;&#9;c0,0,0,0,0,0c0,0,0,0.1,0,0.1c0,0,0,0,0,0.1c0,0,0,0,0,0c-0.1,0-0.2,0-0.3,0C7.1,14.9,7.1,14.8,7.1,14.8z M7.6,15&#10;&#9;C7.6,15,7.6,15,7.6,15c0,0-0.1,0-0.1,0c0,0,0,0,0-0.1c0,0,0,0,0-0.1c0,0,0.1,0,0.1,0c0,0,0,0,0,0C7.6,14.9,7.6,14.9,7.6,15&#10;&#9;C7.6,15,7.6,15,7.6,15z M7.4,15.1c0,0,0.1,0,0.1,0c0,0,0,0,0,0c0,0,0,0,0,0c0,0,0,0,0,0C7.6,15.1,7.5,15.1,7.4,15.1l0,0.1&#10;&#9;C7.4,15.1,7.4,15.1,7.4,15.1z M7.7,14.9c0,0,0-0.1,0-0.1c0,0,0.1,0,0.1,0c0,0,0.1,0,0.1,0c0,0,0,0.1,0,0.1c0,0,0,0,0,0c0,0,0,0,0,0&#10;&#9;c0,0,0,0,0,0c0,0,0,0.1,0,0.1c0,0,0,0,0,0l0,0c-0.1,0-0.1,0-0.2,0c0,0,0,0,0,0C7.7,15,7.7,15,7.7,14.9z M8.2,14.8&#10;&#9;C8.2,14.9,8.2,14.9,8.2,14.8c0,0.1,0,0.1,0,0.1c0,0,0,0-0.1,0c0,0-0.1,0-0.1,0c0,0,0-0.1,0-0.1C8.1,14.8,8.2,14.8,8.2,14.8z&#10;&#9; M8.5,14.8C8.5,14.8,8.5,14.8,8.5,14.8c0,0.1,0,0.1,0,0.1c-0.1,0-0.1,0-0.2,0c0,0,0,0-0.1,0c0,0,0,0,0,0c0,0,0-0.1,0-0.1&#10;&#9;c0,0,0,0,0,0C8.4,14.8,8.5,14.8,8.5,14.8z M8.9,14.8c0,0,0,0.1,0,0.1c-0.1,0-0.1,0-0.2,0c0,0,0,0,0,0c0,0,0,0,0-0.1c0,0,0-0.1,0-0.1&#10;&#9;c0,0,0.1,0,0.1,0C8.8,14.7,8.8,14.8,8.9,14.8C8.9,14.8,8.9,14.8,8.9,14.8z M8.7,15.1C8.7,15.1,8.7,15.1,8.7,15.1c0.1,0,0.2,0,0.2,0&#10;&#9;c0,0,0,0,0,0.1c0,0,0,0,0,0L8.7,15.1C8.7,15.1,8.7,15.1,8.7,15.1z M8.5,14.7c0,0-0.1,0-0.2,0c0,0,0,0,0,0c0,0,0,0,0,0&#10;&#9;C8.4,14.7,8.5,14.7,8.5,14.7C8.5,14.7,8.5,14.7,8.5,14.7z M8.2,14.7c-0.1,0-0.1,0-0.2,0c0,0,0,0,0,0C8.1,14.7,8.2,14.7,8.2,14.7&#10;&#9;C8.2,14.7,8.2,14.7,8.2,14.7z M8,14.7c0,0-0.1,0-0.1,0c-0.1,0-0.1,0-0.2,0c0,0,0,0,0,0C7.8,14.7,7.9,14.7,8,14.7&#10;&#9;C8,14.7,8,14.7,8,14.7z M7.6,14.7C7.6,14.7,7.6,14.7,7.6,14.7c-0.1,0-0.1,0-0.2,0c0,0,0,0,0,0C7.5,14.7,7.5,14.7,7.6,14.7&#10;&#9;C7.6,14.7,7.6,14.7,7.6,14.7C7.6,14.7,7.6,14.7,7.6,14.7z M7.3,14.7C7.3,14.7,7.3,14.7,7.3,14.7c-0.1,0-0.2,0-0.3,0c0,0,0,0,0,0&#10;&#9;C7.1,14.7,7.2,14.7,7.3,14.7C7.3,14.7,7.3,14.7,7.3,14.7z M7,14.7c0,0.1,0,0.1,0,0.2c-0.1,0-0.1,0-0.2,0c0,0,0,0,0,0c0,0,0,0,0,0&#10;&#9;c0,0,0-0.1,0-0.1C6.8,14.8,6.9,14.8,7,14.7C6.9,14.8,6.9,14.8,7,14.7C6.9,14.8,6.9,14.8,7,14.7c-0.1,0-0.1,0-0.2,0c0,0,0,0,0,0&#10;&#9;c0,0,0,0,0,0C6.8,14.7,6.9,14.7,7,14.7C7,14.7,7,14.7,7,14.7z M6.6,14.7C6.6,14.7,6.6,14.7,6.6,14.7c-0.1,0-0.1,0-0.2,0c0,0,0,0,0,0&#10;&#9;C6.5,14.7,6.6,14.7,6.6,14.7C6.6,14.7,6.6,14.7,6.6,14.7z M6.4,14.7C6.4,14.7,6.4,14.7,6.4,14.7c-0.1,0-0.2,0-0.3,0c0,0,0,0,0,0&#10;&#9;c0.1,0,0.1,0,0.2,0C6.3,14.7,6.3,14.7,6.4,14.7C6.4,14.7,6.4,14.7,6.4,14.7z M6,14.7c-0.1,0-0.1,0-0.1,0l0,0c0,0,0,0,0,0&#10;&#9;c0,0,0,0,0,0C5.8,14.8,5.9,14.8,6,14.7c0,0.1,0,0.2,0,0.2c0,0,0,0,0,0c0,0-0.1,0-0.1,0c0,0,0,0,0,0c0-0.1,0-0.1,0-0.2&#10;&#9;c0,0,0-0.1,0-0.1c0,0,0,0,0,0c0,0,0,0,0,0l0,0c0,0,0,0,0,0.1c0,0,0,0,0,0c0,0-0.1,0-0.1,0c0,0,0,0,0,0c0,0,0,0,0,0c0,0,0,0,0,0&#10;&#9;c0,0,0,0,0,0l0,0c0,0,0,0,0,0c-0.1,0-0.1,0-0.2,0c0,0,0-0.1,0-0.1c0.1,0,0.2,0,0.3,0C5.7,14.7,5.8,14.7,6,14.7C6,14.7,6,14.7,6,14.7&#10;&#9;z M5.6,15c0,0,0-0.1,0-0.1c0,0,0,0,0,0c0.1,0,0.1,0,0.1,0c0,0,0,0.1,0,0.1c0,0,0,0,0,0C5.6,15,5.6,15,5.6,15z M4.7,15.2&#10;&#9;C4.7,15.2,4.7,15.2,4.7,15.2C4.7,15.2,4.7,15.2,4.7,15.2C4.7,15.2,4.7,15.2,4.7,15.2C4.7,15.2,4.7,15.2,4.7,15.2&#10;&#9;C4.7,15.2,4.7,15.2,4.7,15.2C4.7,15.2,4.7,15.2,4.7,15.2C4.8,15.2,4.8,15.2,4.7,15.2c0-0.1,0-0.1,0-0.1c0.1,0,0.1,0,0.2,0&#10;&#9;c0,0,0,0.1,0,0.1c0,0,0,0,0,0.1L4.7,15.2z M2.8,15C2.8,15,2.8,15,2.8,15c-0.1,0-0.1,0-0.1,0c0,0,0,0,0,0c0,0,0-0.1,0-0.1&#10;&#9;c0,0,0.1,0,0.1,0c0,0,0.1,0,0.1,0C2.8,14.9,2.8,15,2.8,15z M2.7,15.2C2.7,15.2,2.7,15.2,2.7,15.2C2.7,15.1,2.7,15.1,2.7,15.2&#10;&#9;c0.1-0.1,0.1-0.1,0.2-0.1c0,0,0,0.1,0,0.1c0,0,0,0,0,0L2.7,15.2C2.7,15.2,2.7,15.2,2.7,15.2z M3,15.3C3,15.2,3,15.2,3,15.3&#10;&#9;c0-0.1,0-0.1,0-0.1c0,0,0.1,0,0.1,0c0,0,0,0,0,0c0,0,0,0,0,0c0,0,0,0,0,0L3,15.3z M3.2,15.2C3.3,15.2,3.3,15.2,3.2,15.2&#10;&#9;C3.3,15.2,3.3,15.1,3.2,15.2c0.1-0.1,0.2-0.1,0.3-0.1c0,0,0,0,0,0c0,0,0,0.1,0,0.1c0,0-0.1,0-0.1,0L3.2,15.2&#10;&#9;C3.2,15.2,3.2,15.2,3.2,15.2z M3.6,14.9c0,0,0.1,0,0.1,0c0,0,0,0,0,0c0,0,0,0.1,0,0.1c0,0-0.1,0-0.1,0c0,0,0,0,0,0&#10;&#9;C3.6,15,3.6,15,3.6,14.9z M3.6,15.1C3.6,15.1,3.6,15.1,3.6,15.1C3.6,15.1,3.7,15.1,3.6,15.1c0.1,0,0.1,0,0.2,0c0,0,0,0,0,0.1&#10;&#9;c0,0,0,0,0,0C3.7,15.2,3.7,15.2,3.6,15.1C3.6,15.2,3.6,15.2,3.6,15.1z M3.9,15.1C3.9,15.1,3.9,15.1,3.9,15.1&#10;&#9;C3.9,15.1,3.9,15.1,3.9,15.1c0-0.1,0-0.1,0-0.2c0,0,0,0,0,0c0.1,0,0.1,0,0.2,0c0,0,0,0,0,0c0,0,0,0.1,0,0.1c0,0,0,0.1,0,0.1&#10;&#9;c0,0,0,0.1,0,0.1c-0.1,0-0.1,0-0.2,0C3.9,15.2,3.9,15.2,3.9,15.1C3.9,15.2,3.9,15.1,3.9,15.1z M4.2,15.2C4.2,15.1,4.2,15.1,4.2,15.2&#10;&#9;C4.2,15.1,4.2,15.1,4.2,15.2c0.1-0.1,0.2-0.1,0.2-0.1c0,0,0,0.1,0,0.1l0,0l0,0c0,0,0,0,0,0L4.2,15.2C4.2,15.2,4.2,15.2,4.2,15.2&#10;&#9;C4.2,15.2,4.2,15.2,4.2,15.2z M4.5,15.2C4.5,15.2,4.5,15.2,4.5,15.2L4.5,15.2L4.5,15.2L4.5,15.2L4.5,15.2&#10;&#9;C4.5,15.2,4.5,15.1,4.5,15.2C4.5,15.1,4.6,15.1,4.5,15.2c0.1-0.1,0.1-0.1,0.1-0.1c0,0,0,0,0,0.1c0,0,0,0,0,0.1c0,0,0,0,0,0L4.5,15.2&#10;&#9;C4.5,15.2,4.5,15.2,4.5,15.2z M5,15.1C5.1,15.1,5.1,15.1,5,15.1L5,15.1C5.1,15.1,5.1,15.1,5,15.1C5.1,15,5.1,15,5,15.1&#10;&#9;C5.1,15,5.1,15,5,15.1C5,15,5,15,5,14.9c0,0,0,0,0,0c0,0,0.1,0,0.1,0c0,0.1,0,0.1,0,0.2c0,0,0,0.1,0,0.1l-0.1,0l-0.1,0&#10;&#9;C5,15.2,5,15.2,5,15.1C5,15.1,5,15.1,5,15.1z M5.3,15.1c0-0.1,0-0.1,0-0.2c0.1,0,0.1,0,0.2,0c0,0,0,0.1,0,0.1c0,0,0,0,0,0&#10;&#9;c0,0,0,0,0,0l0,0c0,0,0,0,0,0c0,0,0,0,0,0c0,0,0,0,0,0c0,0,0,0.1,0,0.1c0,0,0,0,0,0l-0.2,0C5.3,15.2,5.3,15.1,5.3,15.1z M5.2,14.8&#10;&#9;c-0.1,0-0.1,0-0.2,0c0,0,0-0.1,0-0.1c0,0,0,0,0,0c0.1,0,0.1,0,0.2,0c0,0,0,0,0,0C5.2,14.7,5.2,14.8,5.2,14.8z M4.9,14.7&#10;&#9;C4.9,14.7,4.9,14.8,4.9,14.7c-0.1,0.1-0.1,0.1-0.1,0.1l0,0c0,0,0,0,0,0c0,0,0,0,0,0c0,0,0.1,0,0.1,0c0,0,0,0,0,0c0,0,0,0,0,0&#10;&#9;c0,0-0.1,0-0.2,0c0-0.1,0-0.1,0-0.1c0,0,0-0.1,0-0.1l0,0c0,0,0,0,0,0c0,0,0,0,0,0c0,0,0,0,0,0.1c0,0,0,0.1,0,0.1c0,0,0,0,0,0&#10;&#9;c0,0-0.1,0-0.1,0c0,0,0-0.1,0-0.1c0-0.1,0-0.2,0-0.2C4.6,14.7,4.7,14.7,4.9,14.7C4.9,14.7,4.9,14.7,4.9,14.7&#10;&#9;C4.9,14.7,4.9,14.7,4.9,14.7z M4.4,14.9C4.4,14.9,4.4,15,4.4,14.9C4.3,15,4.3,15,4.4,14.9C4.2,15,4.2,15,4.2,15c0,0,0-0.1,0-0.1&#10;&#9;c0,0,0,0,0,0c0,0,0,0,0,0C4.3,14.9,4.3,14.9,4.4,14.9L4.4,14.9C4.4,14.9,4.4,14.9,4.4,14.9C4.4,14.9,4.4,14.8,4.4,14.9&#10;&#9;c0-0.1-0.1-0.1-0.2-0.1c0,0,0,0,0,0c0,0,0,0,0,0c0,0,0-0.1,0-0.1c0,0,0,0,0,0c0,0,0.1,0,0.1,0c0.1,0,0.1,0,0.2,0&#10;&#9;C4.4,14.7,4.4,14.8,4.4,14.9z M4.1,14.7c0,0,0,0.1,0,0.1c-0.1,0-0.1,0-0.2,0c0,0,0-0.1,0-0.1c0,0,0,0,0,0l0,0&#10;&#9;C4,14.7,4,14.7,4.1,14.7C4.1,14.7,4.1,14.7,4.1,14.7z M3.8,14.7c0,0,0,0.1,0,0.1c-0.1,0-0.1,0-0.2,0c0,0,0,0,0,0c0,0,0-0.1,0-0.1&#10;&#9;c0,0,0,0,0,0c0,0,0,0,0,0L3.8,14.7L3.8,14.7L3.8,14.7C3.8,14.7,3.8,14.7,3.8,14.7z M2.4,15.2c0,0,0-0.1,0-0.2c0,0,0-0.1,0-0.1&#10;&#9;c0.1,0,0.1,0,0.2,0c0,0,0,0.1,0,0.1c0,0-0.1,0-0.1,0c0,0,0,0,0,0C2.5,15.1,2.5,15.1,2.4,15.2c0.1-0.1,0.1-0.1,0.2-0.1&#10;&#9;c0,0,0,0.1,0,0.1c0,0,0,0,0,0L2.4,15.2C2.4,15.2,2.4,15.2,2.4,15.2z M5.5,15.2C5.5,15.2,5.5,15.2,5.5,15.2c0-0.1,0-0.1,0-0.2&#10;&#9;c0,0,0.1,0,0.1,0c0,0,0,0,0,0.1c0,0,0,0.1,0,0.1c0,0,0,0,0,0c0,0,0,0,0,0l0,0c0,0,0,0,0-0.1c0,0,0,0,0-0.1c0.1,0,0.1,0,0.2,0&#10;&#9;c0,0,0,0,0,0c0,0,0,0.1,0,0.1c0,0,0,0,0,0c-0.1,0-0.1,0-0.2,0L5.5,15.2z M9,15.1C9,15.1,9,15.1,9,15.1C9,15,9,15,9,15.1&#10;&#9;C9,15,9.1,15,9,15.1C9.1,15,9.1,15,9.2,15c0,0,0,0,0,0.1L9,15.1z M9.3,15c0.1,0,0.1,0,0.1,0c0,0,0,0,0,0l0,0c0,0,0,0,0,0&#10;&#9;c0,0,0,0,0,0L9.3,15C9.3,15.1,9.3,15,9.3,15z M9.5,15.1L9.5,15.1c0-0.1,0-0.1,0-0.2c0,0,0-0.1,0-0.1c0.1,0,0.1,0,0.1,0c0,0,0,0,0,0&#10;&#9;c0,0,0,0,0,0c0.1,0,0.1,0,0.2,0c0,0,0,0,0,0c0,0.1,0,0.1,0,0.1c0,0,0,0,0,0c0,0,0,0,0,0c0,0,0,0,0,0c0,0,0.1,0,0.1,0c0,0,0,0,0,0&#10;&#9;c0,0,0,0.1,0,0.1c0,0.1,0,0.1,0,0.1c0,0,0,0,0,0c0,0,0,0,0,0c0,0,0,0,0-0.1c0,0,0-0.1,0-0.1c0,0,0.1,0,0.1,0c0,0,0,0.1,0,0.1&#10;&#9;c0,0,0,0.1,0,0.1c0,0,0,0,0,0.1l0,0l-0.4,0L9.5,15.1C9.5,15.1,9.5,15.1,9.5,15.1z M10.9,14.9C10.9,14.9,10.9,14.9,10.9,14.9&#10;&#9;c-0.1,0-0.1,0-0.1,0c0,0,0,0,0,0c0,0,0-0.1,0-0.1c0,0,0.1,0,0.1,0c0,0,0.1,0,0.1,0C10.9,14.8,10.9,14.8,10.9,14.9z M10.1,14.7&#10;&#9;C10.1,14.7,10.1,14.7,10.1,14.7C10,14.7,10,14.7,10.1,14.7C10,14.7,10,14.7,10.1,14.7C10,14.7,10.1,14.7,10.1,14.7&#10;&#9;C10.1,14.7,10.1,14.7,10.1,14.7z M10.5,14.9C10.5,14.8,10.5,14.8,10.5,14.9c0.1-0.1,0.1-0.1,0.2-0.1c0,0,0,0.1,0,0.1&#10;&#9;C10.6,14.9,10.6,14.9,10.5,14.9C10.5,14.9,10.5,14.9,10.5,14.9C10.5,15,10.5,15,10.5,14.9c0.1,0.1,0.1,0.1,0.2,0.1c0,0,0,0.1,0,0.1&#10;&#9;l-0.2,0C10.5,15,10.5,14.9,10.5,14.9z M10.7,15.1L10.7,15.1C10.7,15,10.7,15,10.7,15.1C10.8,15,10.8,15,10.7,15.1&#10;&#9;c0.1-0.1,0.1-0.1,0.2-0.1c0,0,0,0,0,0.1L10.7,15.1z M11.3,15c0.1,0,0.2,0,0.3,0c0,0,0,0,0,0c0,0,0,0,0,0l0,0L11.3,15&#10;&#9;C11.3,15.1,11.3,15.1,11.3,15C11.3,15,11.3,15,11.3,15z M12.8,14.7C12.8,14.7,12.8,14.7,12.8,14.7c0,0,0.1,0,0.2,0c0,0,0,0,0,0&#10;&#9;C12.9,14.7,12.8,14.7,12.8,14.7L12.8,14.7C12.8,14.7,12.8,14.7,12.8,14.7C12.8,14.7,12.8,14.8,12.8,14.7c0,0,0.1,0.1,0.2,0.1&#10;&#9;c0,0,0,0,0,0c0,0,0,0,0,0c0,0-0.1,0-0.2,0C12.8,14.8,12.8,14.8,12.8,14.7z M15,14.9C15,15,15,15,15,14.9c0,0.1,0,0.1,0,0.1l-0.2,0&#10;&#9;c0,0,0,0,0,0c0,0,0,0,0,0c0,0,0-0.1,0-0.1c0,0,0,0,0,0C14.9,14.9,15,14.9,15,14.9z M15.5,14.7C15.6,14.7,15.6,14.7,15.5,14.7&#10;&#9;c0.1,0,0.1,0,0.1,0c0,0,0,0.1,0,0.1c0,0,0,0,0,0c0,0,0,0,0,0c0,0-0.1,0-0.1,0C15.5,14.8,15.5,14.8,15.5,14.7&#10;&#9;C15.5,14.8,15.5,14.7,15.5,14.7z M18.9,15C18.9,15,18.9,15,18.9,15c0,0.1,0,0.1,0,0.1c-0.1,0-0.1,0-0.2,0c0,0,0,0,0,0&#10;&#9;c0,0,0-0.1,0-0.1c0,0,0,0,0,0C18.8,15,18.9,15,18.9,15z M19.1,14.7c0,0,0.1,0,0.2,0c0,0,0,0,0,0c0,0,0,0.1,0,0.1c0,0,0,0,0,0.1&#10;&#9;c0,0,0,0,0,0c-0.1,0-0.2,0-0.3,0C19.1,14.8,19.1,14.7,19.1,14.7z M19.4,14.6c0.1,0,0.1,0,0.2,0c0,0,0,0,0,0c0,0,0,0-0.1,0&#10;&#9;C19.5,14.6,19.5,14.6,19.4,14.6C19.4,14.6,19.4,14.6,19.4,14.6z M21.8,14.6C21.8,14.6,21.8,14.6,21.8,14.6c0,0.1,0,0.1,0,0.1&#10;&#9;c0,0,0,0,0,0c0,0,0,0,0,0C21.9,14.7,21.9,14.7,21.8,14.6c0.1,0.1,0.2,0.1,0.2,0.1l0,0c0,0,0,0.1,0,0.1c0,0.1,0,0.1,0,0.1&#10;&#9;c0,0,0,0,0,0c0,0,0,0,0,0c0,0,0,0,0-0.1c0,0,0-0.1,0-0.1c0,0,0.1,0,0.1,0c0,0,0,0.1,0,0.1c0,0,0,0.1,0,0.1c0,0,0,0.1,0,0.1l-1,0&#10;&#9;c0,0,0,0,0-0.1c0,0,0,0,0,0c0,0,0.1,0,0.1,0c0,0,0,0,0,0l0,0c0,0,0,0,0,0c0,0,0,0,0,0c0,0,0,0,0.1,0l0,0c0,0,0,0,0,0&#10;&#9;c0,0,0.1,0,0.1,0c0.2,0,0.3,0,0.3,0l0,0c0,0,0,0,0,0c0,0,0,0,0,0c0,0-0.1,0-0.3,0c0,0-0.1,0-0.1,0c0,0,0,0,0,0c0,0,0-0.1,0-0.1&#10;&#9;c0.1,0,0.1,0,0.1,0c0,0,0,0,0,0C21.7,14.6,21.8,14.6,21.8,14.6z M26.7,14.8c0.1,0,0.1,0,0.2,0l0,0.1l0,0.1l-0.2,0&#10;&#9;c-0.1,0-0.1,0-0.2,0c0,0,0,0,0,0c0,0,0-0.1,0-0.1C26.5,14.9,26.6,14.8,26.7,14.8z M26.3,14.7C26.3,14.7,26.3,14.7,26.3,14.7&#10;&#9;c-0.1,0-0.1,0-0.2,0c0,0,0,0-0.1,0c0,0,0-0.1,0-0.1l0.3,0C26.3,14.7,26.3,14.7,26.3,14.7z M26,14.6c0,0,0,0.1,0,0.1c0,0-0.1,0-0.1,0&#10;&#9;c0,0,0,0-0.1,0c0,0,0-0.1,0-0.1L26,14.6L26,14.6z M25.7,14.8C25.7,14.8,25.7,14.8,25.7,14.8c-0.1,0-0.1,0-0.1,0c0,0,0-0.1,0-0.1&#10;&#9;c0,0,0,0,0,0C25.6,14.7,25.7,14.7,25.7,14.8C25.7,14.7,25.7,14.7,25.7,14.8C25.7,14.8,25.7,14.8,25.7,14.8z M25.7,14.9&#10;&#9;C25.7,14.9,25.7,14.9,25.7,14.9c0,0-0.1,0-0.1,0c0,0,0-0.1,0-0.1C25.6,14.9,25.6,14.9,25.7,14.9C25.7,14.9,25.7,14.9,25.7,14.9&#10;&#9;C25.7,14.9,25.7,14.9,25.7,14.9z M25.4,14.8C25.4,14.8,25.4,14.8,25.4,14.8C25.4,14.8,25.4,14.8,25.4,14.8&#10;&#9;C25.4,14.8,25.4,14.8,25.4,14.8C25.4,14.8,25.4,14.8,25.4,14.8c0,0.1,0,0.1,0,0.2c-0.1,0-0.1,0-0.2,0c0,0,0,0,0-0.1&#10;&#9;c0-0.1,0-0.1,0-0.2c0.1,0,0.1,0,0.2,0C25.4,14.7,25.4,14.8,25.4,14.8C25.4,14.8,25.4,14.8,25.4,14.8z M22.4,15c0,0,0-0.1,0-0.2&#10;&#9;c0,0,0-0.1,0-0.1c0.1,0,0.1,0,0.2,0c0,0,0,0.1,0,0.1c0,0-0.1,0-0.1,0c0,0,0,0,0,0C22.5,14.9,22.5,14.9,22.4,15&#10;&#9;c0.1-0.1,0.1-0.1,0.2-0.1c0,0,0,0.1,0,0.1L22.4,15z M22.7,14.8c0,0,0-0.1,0-0.1c0,0,0.1,0,0.1,0c0,0,0.1,0,0.1,0c0,0,0,0.1,0,0.1&#10;&#9;c0,0,0,0,0,0C22.8,14.8,22.7,14.8,22.7,14.8C22.7,14.8,22.7,14.8,22.7,14.8z M22.7,14.9C22.7,14.9,22.7,14.9,22.7,14.9&#10;&#9;c0.1,0,0.1,0,0.2,0c0,0,0,0,0,0l0,0L22.7,14.9C22.7,14.9,22.7,14.9,22.7,14.9z M23,15C23,14.9,23,14.9,23,15c0,0,0.1,0,0.1,0&#10;&#9;c0,0,0,0,0,0c0,0,0,0,0,0L23,15C23,15,23,15,23,15z M23.3,14.9c0.1,0,0.2,0,0.3,0c0,0,0,0,0,0c0,0,0,0,0,0L23.3,14.9&#10;&#9;C23.3,15,23.3,15,23.3,14.9C23.3,14.9,23.3,14.9,23.3,14.9z M23.6,14.7c0,0,0.1,0,0.1,0c0,0,0,0,0,0c0,0,0,0.1,0,0.1&#10;&#9;c0,0-0.1,0-0.1,0c0,0,0,0,0,0C23.6,14.8,23.6,14.7,23.6,14.7z M23.6,14.9C23.6,14.9,23.6,14.9,23.6,14.9&#10;&#9;C23.6,14.9,23.7,14.9,23.6,14.9c0.1,0,0.1,0,0.2,0c0,0,0,0,0,0.1L23.6,14.9C23.6,14.9,23.6,14.9,23.6,14.9z M23.9,14.9&#10;&#9;C23.9,14.9,23.9,14.9,23.9,14.9C23.9,14.8,23.9,14.8,23.9,14.9c0-0.1,0-0.1,0-0.2c0,0,0,0,0,0c0.1,0,0.1,0,0.2,0c0,0,0,0,0,0&#10;&#9;c0,0,0,0.1,0,0.1c0,0,0,0.1,0,0.1c0,0,0,0,0,0L23.9,14.9C23.9,15,23.9,14.9,23.9,14.9C23.9,14.9,23.9,14.9,23.9,14.9z M24.2,14.9&#10;&#9;C24.2,14.9,24.2,14.9,24.2,14.9C24.2,14.9,24.2,14.9,24.2,14.9c0.1-0.1,0.2-0.1,0.2-0.1c0,0,0,0,0,0.1L24.2,14.9&#10;&#9;C24.2,14.9,24.2,14.9,24.2,14.9z M24.5,14.9C24.5,14.9,24.5,14.9,24.5,14.9C24.5,14.9,24.6,14.9,24.5,14.9c0.1-0.1,0.1-0.1,0.1-0.1&#10;&#9;c0,0,0,0,0,0.1C24.6,14.9,24.6,14.9,24.5,14.9z M24.8,14.9c0.1,0,0.1,0,0.2,0c0,0,0,0,0,0.1C24.9,14.9,24.8,14.9,24.8,14.9&#10;&#9;C24.8,14.9,24.8,14.9,24.8,14.9C24.8,14.9,24.8,14.9,24.8,14.9z M25,14.9C25.1,14.9,25.1,14.8,25,14.9L25,14.9&#10;&#9;C25.1,14.8,25.1,14.8,25,14.9C25.1,14.8,25.1,14.8,25,14.9C25.1,14.8,25.1,14.8,25,14.9c0-0.1,0-0.1,0-0.1c0,0,0,0,0,0&#10;&#9;c0,0,0.1,0,0.1,0c0,0.1,0,0.1,0,0.2c0,0,0,0,0,0.1C25.1,14.9,25.1,14.9,25,14.9C25,14.9,25,14.9,25,14.9C25,14.9,25,14.9,25,14.9z&#10;&#9; M24.8,14.7c0,0,0.1,0,0.1,0c0,0,0,0,0,0c0,0,0,0,0,0c0,0-0.1,0-0.2,0C24.7,14.7,24.7,14.7,24.8,14.7L24.8,14.7L24.8,14.7&#10;&#9;C24.7,14.6,24.7,14.6,24.8,14.7C24.7,14.6,24.7,14.7,24.8,14.7z M24.6,14.8C24.6,14.8,24.6,14.8,24.6,14.8c-0.1,0-0.1,0-0.1,0&#10;&#9;c0,0,0-0.1,0-0.1c0,0,0-0.1,0-0.1c0,0,0.1,0,0.1,0c0,0,0,0,0,0C24.6,14.7,24.6,14.7,24.6,14.8z M24.4,14.7&#10;&#9;C24.4,14.7,24.4,14.7,24.4,14.7C24.3,14.8,24.3,14.8,24.4,14.7c-0.1,0.1-0.2,0.1-0.2,0.1c0,0,0-0.1,0-0.1c0,0,0,0,0,0c0,0,0,0,0,0&#10;&#9;C24.3,14.7,24.3,14.7,24.4,14.7L24.4,14.7C24.4,14.7,24.4,14.7,24.4,14.7C24.4,14.6,24.4,14.6,24.4,14.7&#10;&#9;C24.3,14.6,24.3,14.6,24.4,14.7C24.3,14.6,24.4,14.6,24.4,14.7C24.4,14.6,24.4,14.7,24.4,14.7z M23.4,14.7c0,0,0,0,0.1,0&#10;&#9;c0,0,0,0,0,0c0,0,0,0.1,0,0.1c-0.1,0-0.2,0-0.3,0c0,0,0,0,0,0c0-0.1,0-0.1,0-0.2C23.3,14.6,23.4,14.6,23.4,14.7&#10;&#9;C23.4,14.6,23.4,14.6,23.4,14.7L23.4,14.7C23.4,14.6,23.4,14.6,23.4,14.7C23.4,14.6,23.4,14.7,23.4,14.7z M23.1,14.8&#10;&#9;C23.1,14.8,23.1,14.8,23.1,14.8c-0.1,0-0.1,0-0.2,0c0,0,0,0,0,0c0,0,0-0.1,0-0.1c0,0,0,0,0,0c0,0,0,0,0,0c0.1,0,0.1,0,0.2,0&#10;&#9;C23.1,14.7,23.1,14.7,23.1,14.8z M21.9,14.6C21.9,14.6,21.9,14.6,21.9,14.6C21.9,14.6,21.9,14.6,21.9,14.6&#10;&#9;C21.9,14.6,21.9,14.6,21.9,14.6z M19.3,15C19.3,15,19.3,15,19.3,15c-0.1,0-0.2,0-0.3,0c0,0,0-0.1,0-0.1C19.2,14.9,19.2,14.9,19.3,15&#10;&#9;C19.3,14.9,19.3,14.9,19.3,15C19.3,15,19.3,15,19.3,15z M19.6,14.9C19.6,14.9,19.6,14.9,19.6,14.9c0,0-0.1,0-0.1,0c0,0,0,0,0-0.1&#10;&#9;c0,0,0,0,0-0.1c0,0,0.1,0,0.1,0c0,0,0,0,0,0C19.6,14.8,19.6,14.8,19.6,14.9C19.6,14.8,19.6,14.8,19.6,14.9z M19.7,14.8&#10;&#9;c0,0,0-0.1,0-0.1c0,0,0.1,0,0.1,0c0,0,0.1,0,0.1,0c0,0,0,0.1,0,0.1c0,0,0,0,0,0c0,0,0,0,0,0c0,0,0,0,0,0c0,0,0,0.1,0,0.1&#10;&#9;c0,0,0,0,0,0l-0.2,0c0,0,0,0,0-0.1C19.7,14.9,19.7,14.9,19.7,14.8z M20,14.7c0.1,0,0.1,0,0.2,0c0,0,0,0,0,0.1c0,0,0,0,0,0&#10;&#9;c-0.1,0-0.1,0-0.2,0C20,14.8,20,14.8,20,14.7z M20.3,14.8C20.3,14.8,20.3,14.8,20.3,14.8c0-0.1,0-0.1,0-0.1c0,0,0,0,0,0&#10;&#9;c0.1,0,0.1,0,0.2,0c0,0,0,0,0,0c0,0,0,0.1,0,0.1C20.5,14.8,20.4,14.8,20.3,14.8z M21.3,14.8C21.3,14.8,21.3,14.8,21.3,14.8&#10;&#9;C21.3,14.8,21.3,14.8,21.3,14.8c0-0.1,0-0.1,0-0.2c0,0,0.1,0,0.1,0C21.4,14.7,21.4,14.7,21.3,14.8C21.4,14.8,21.4,14.8,21.3,14.8&#10;&#9;C21.4,14.8,21.4,14.8,21.3,14.8z M21,14.8c0,0,0-0.1,0-0.1c0,0,0,0,0-0.1c0,0,0.1,0,0.1,0c0,0,0,0,0,0c0,0,0,0.1,0,0.1c0,0,0,0,0,0&#10;&#9;C21.1,14.8,21.1,14.8,21,14.8z M20.7,14.8C20.7,14.8,20.7,14.8,20.7,14.8c0-0.1,0-0.2,0-0.2c0,0,0.1,0,0.1,0c0,0,0.1,0,0.1,0&#10;&#9;c0,0,0,0,0,0.1c0,0,0,0.1,0,0.1C20.8,14.8,20.7,14.8,20.7,14.8z M20.7,14.9c0.1,0,0.1,0,0.2,0c0,0,0,0,0,0.1c0,0,0,0,0,0L20.7,14.9&#10;&#9;C20.7,15,20.7,15,20.7,14.9z M21,15C21,15,21,15,21,15C21,14.9,21,14.9,21,15c0.1-0.1,0.1-0.1,0.2-0.1c0,0,0,0,0,0.1L21,15&#10;&#9;C21,15,21,15,21,15z M20.5,14.6c0,0-0.1,0-0.2,0c0,0,0,0,0,0c0,0,0,0,0,0C20.4,14.6,20.5,14.6,20.5,14.6&#10;&#9;C20.5,14.6,20.5,14.6,20.5,14.6z M20.2,14.6c-0.1,0-0.1,0-0.2,0c0,0,0,0,0,0c0,0,0,0,0,0C20.1,14.6,20.2,14.6,20.2,14.6&#10;&#9;C20.2,14.6,20.2,14.6,20.2,14.6z M20,14.6c0,0-0.1,0-0.1,0c-0.1,0-0.1,0-0.2,0c0,0,0,0,0,0C19.8,14.6,19.9,14.6,20,14.6&#10;&#9;C20,14.6,20,14.6,20,14.6z M18.3,14.7C18.3,14.8,18.3,14.8,18.3,14.7C18.3,14.8,18.3,14.8,18.3,14.7c-0.1,0.1-0.2,0.1-0.2,0.1&#10;&#9;c0,0-0.1,0-0.1,0c0,0,0-0.1,0-0.1c0,0,0,0,0,0C18.1,14.7,18.2,14.7,18.3,14.7z M18,15c0,0,0.1,0,0.1,0c0.1,0,0.1,0,0.2,0&#10;&#9;c0,0,0,0,0,0c0,0,0,0,0,0.1c0,0,0,0,0,0.1c0,0,0,0,0,0c-0.1,0-0.2,0-0.4,0C18,15,18,15,18,15z M18.5,15C18.5,15,18.5,15,18.5,15&#10;&#9;c0.1,0,0.1,0,0.1,0c0,0,0,0.1,0,0.1c-0.1,0-0.1,0-0.2,0C18.5,15,18.5,15,18.5,15z M18.6,14.8C18.6,14.8,18.6,14.8,18.6,14.8&#10;&#9;c-0.1,0-0.1,0-0.1,0c0,0,0-0.1,0-0.1c0.1,0,0.1,0,0.2,0C18.6,14.8,18.6,14.8,18.6,14.8C18.6,14.8,18.6,14.8,18.6,14.8z M18.4,14.6&#10;&#9;C18.3,14.6,18.3,14.6,18.4,14.6L18.4,14.6C18.4,14.6,18.4,14.6,18.4,14.6C18.4,14.6,18.4,14.6,18.4,14.6z M17.8,14.7&#10;&#9;C17.8,14.7,17.8,14.7,17.8,14.7C17.9,14.7,17.9,14.7,17.8,14.7c0,0.1,0,0.1,0,0.2c0,0-0.1,0-0.1,0c-0.1,0-0.1,0-0.2,0&#10;&#9;c0,0,0-0.1,0-0.1c0,0,0-0.1,0-0.1L17.8,14.7C17.8,14.6,17.8,14.6,17.8,14.7C17.8,14.7,17.8,14.7,17.8,14.7z M17.4,14.8&#10;&#9;C17.4,14.8,17.4,14.8,17.4,14.8c0-0.1,0-0.1,0-0.2l0.1,0l0.1,0c0,0,0,0.1,0,0.1c0,0,0,0.1,0,0.1C17.5,14.8,17.4,14.8,17.4,14.8z&#10;&#9; M17.1,14.8c0,0,0-0.1,0-0.1c0,0,0,0,0-0.1c0,0,0.1,0,0.1,0c0,0,0,0,0,0l0,0c0,0,0,0.1,0,0.1c0,0,0,0,0,0&#10;&#9;C17.2,14.8,17.1,14.8,17.1,14.8z M16.3,14.7C16.3,14.7,16.3,14.8,16.3,14.7c0,0.1,0,0.1,0,0.1c0,0,0,0-0.1,0c0,0-0.1,0-0.1,0&#10;&#9;c0,0,0-0.1,0-0.1C16.2,14.7,16.2,14.7,16.3,14.7z M16.4,14.8C16.4,14.8,16.4,14.7,16.4,14.8C16.4,14.7,16.4,14.7,16.4,14.8&#10;&#9;c0.1-0.1,0.2-0.1,0.2-0.1c0,0,0,0,0,0c0,0,0,0.1,0,0.1C16.6,14.8,16.5,14.8,16.4,14.8C16.5,14.8,16.4,14.8,16.4,14.8&#10;&#9;C16.4,14.8,16.4,14.8,16.4,14.8z M17,14.6C17,14.7,17,14.7,17,14.6c0,0.1,0,0.1,0,0.2c-0.1,0-0.1,0-0.2,0c0,0,0,0,0,0c0,0,0,0,0-0.1&#10;&#9;c0,0,0-0.1,0-0.1L17,14.6z M16.5,14.9c0.1,0,0.1,0,0.2,0c0,0,0,0.1,0,0.1c0,0,0,0,0,0l0,0C16.5,15,16.5,15,16.5,14.9&#10;&#9;C16.4,15,16.4,15,16.5,14.9C16.4,15,16.4,15,16.5,14.9C16.4,14.9,16.5,14.9,16.5,14.9z M16.7,15C16.7,15,16.7,15,16.7,15&#10;&#9;C16.7,14.9,16.7,14.9,16.7,15c0.1-0.1,0.2-0.1,0.2-0.1c0,0,0,0,0,0.1c0,0,0,0,0,0L16.7,15L16.7,15C16.7,15,16.7,15,16.7,15z&#10;&#9; M15.9,14.7C15.9,14.7,16,14.7,15.9,14.7c0.1,0,0.1,0.1,0.1,0.1c0,0,0,0,0,0c0,0,0,0,0,0c0,0,0,0,0,0c0,0,0,0.1,0,0.1c0,0,0,0,0,0&#10;&#9;l-0.2,0c0,0,0-0.1,0-0.1c0,0,0-0.1,0-0.1c0,0,0-0.1,0-0.1C15.8,14.7,15.9,14.7,15.9,14.7z M15.5,14.9c0,0,0.1,0,0.1,0c0,0,0,0,0,0&#10;&#9;c0,0,0,0,0,0c0,0,0,0.1,0,0.1l-0.2,0c0,0,0,0,0,0C15.5,15,15.5,15,15.5,14.9z M15.4,14.9C15.4,15,15.4,15,15.4,14.9&#10;&#9;c0,0.1,0,0.1,0,0.1l-0.3,0c0,0,0-0.1,0-0.1C15.2,14.9,15.3,14.9,15.4,14.9C15.4,14.9,15.4,14.9,15.4,14.9z M13.4,15.1&#10;&#9;c0,0,0-0.1,0-0.1c0-0.1,0-0.1,0-0.2c0.1,0,0.1,0,0.2,0c0,0,0,0.1,0,0.1c0,0,0,0,0,0c0,0,0,0,0,0l0,0c0,0,0,0,0,0c0,0,0,0,0,0&#10;&#9;c0,0,0,0,0,0c0,0,0,0.1,0,0.1c0,0,0,0,0,0L13.4,15.1z M13.8,14.9c0,0-0.1,0-0.1,0c0,0,0-0.1,0-0.1c0,0,0,0,0,0c0.1,0,0.1,0,0.1,0&#10;&#9;C13.8,14.8,13.8,14.8,13.8,14.9C13.8,14.9,13.8,14.9,13.8,14.9z M13,15C13,15.1,13,15.1,13,15l-0.2,0c0,0,0,0,0,0c0,0,0,0,0-0.1&#10;&#9;C12.9,15,12.9,15,13,15C13,15,13,15,13,15z M13.1,15C13.1,15,13.2,14.9,13.1,15L13.1,15C13.2,14.9,13.2,14.9,13.1,15&#10;&#9;C13.2,14.9,13.2,14.9,13.1,15C13.2,14.9,13.1,14.9,13.1,15c0-0.1,0-0.1,0-0.1c0,0,0,0,0,0c0,0,0.1,0,0.1,0c0,0.1,0,0.1,0,0.2&#10;&#9;c0,0,0,0.1,0,0.1l-0.1,0l-0.1,0C13.1,15.1,13.1,15.1,13.1,15C13.1,15,13.1,15,13.1,15z M13.6,15.1c0,0,0-0.1,0-0.1c0,0,0.1,0,0.1,0&#10;&#9;c0,0,0,0,0,0.1c0,0,0,0.1,0,0.1L13.6,15.1C13.6,15.1,13.6,15.1,13.6,15.1z M13.9,15C13.9,15,13.9,15,13.9,15C13.9,15,14,15,14,15&#10;&#9;c0,0,0,0,0,0c0,0,0,0.1,0,0.1l-0.1,0L13.9,15C13.9,15.1,13.9,15.1,13.9,15z M14.1,14.7c0.1,0,0.2,0,0.3,0c0,0,0,0.1,0,0.1&#10;&#9;c0,0,0,0,0,0c-0.1,0-0.1,0-0.2,0c0,0,0,0,0,0C14.2,14.8,14.2,14.7,14.1,14.7z M14.2,14.9C14.2,14.9,14.2,14.9,14.2,14.9&#10;&#9;c0.1,0,0.2,0,0.2,0c0,0,0,0,0,0c0,0,0,0,0,0.1c0,0,0,0.1,0,0.1l0,0l-0.2,0C14.2,15.1,14.2,15,14.2,14.9C14.2,15,14.2,15,14.2,14.9z&#10;&#9; M14.5,15.1c0,0,0-0.1,0-0.2c0,0,0.1,0,0.1,0c0,0,0,0,0.1,0c0,0,0,0.1,0,0.1c0,0,0,0,0,0L14.5,15.1L14.5,15.1&#10;&#9;C14.5,15.1,14.5,15.1,14.5,15.1z M14.6,14.8C14.6,14.8,14.6,14.8,14.6,14.8C14.5,14.8,14.5,14.8,14.6,14.8c0-0.1,0-0.1,0.1-0.1&#10;&#9;C14.7,14.7,14.7,14.8,14.6,14.8C14.7,14.8,14.7,14.8,14.6,14.8C14.7,14.8,14.6,14.8,14.6,14.8z M13.9,14.7&#10;&#9;C14,14.7,14,14.7,13.9,14.7c0.1,0.1,0.1,0.1,0.1,0.2c0,0,0,0,0,0c0,0-0.1,0-0.1,0c0,0,0,0,0,0C13.9,14.8,13.9,14.7,13.9,14.7&#10;&#9;C13.9,14.7,13.9,14.7,13.9,14.7L13.9,14.7z M13.8,14.7C13.8,14.7,13.8,14.7,13.8,14.7c0,0-0.1,0-0.1,0L13.8,14.7&#10;&#9;C13.8,14.7,13.8,14.7,13.8,14.7z M12.7,15C12.7,15,12.7,15,12.7,15C12.7,15.1,12.7,15.1,12.7,15l-0.1,0.1c0,0,0,0,0,0l0,0&#10;&#9;c0,0,0-0.1,0-0.1C12.6,15,12.6,15,12.7,15C12.7,15,12.7,15,12.7,15z M12.5,15.1l-0.1,0l-0.1,0c0,0,0,0,0,0c0,0,0,0,0-0.1&#10;&#9;c0,0,0,0,0.1,0C12.4,15,12.4,15,12.5,15.1C12.5,15,12.5,15,12.5,15.1z M12.1,14.8c0,0,0,0.1,0,0.1c0,0,0,0.1,0,0.1c0,0,0,0,0,0&#10;&#9;l-0.2,0c0,0,0,0,0,0c0,0,0,0,0-0.1c0,0,0,0,0,0c0,0,0,0,0,0c0,0,0-0.1,0-0.1c0,0,0,0,0,0C12,14.8,12.1,14.8,12.1,14.8&#10;&#9;C12.1,14.8,12.1,14.8,12.1,14.8z M11.7,15C11.7,15,11.7,15,11.7,15c0.1,0,0.1,0,0.2,0c0,0,0,0,0,0.1c0,0,0,0,0,0L11.7,15&#10;&#9;C11.7,15.1,11.7,15,11.7,15C11.7,15,11.7,15,11.7,15z M11.7,14.7C11.7,14.7,11.7,14.7,11.7,14.7C11.7,14.7,11.7,14.7,11.7,14.7&#10;&#9;c0.1,0,0.1,0,0.1,0C11.8,14.7,11.7,14.7,11.7,14.7z M11.7,14.8c0,0,0.1,0,0.1,0c0,0,0,0,0,0c0,0,0,0.1,0,0.1c0,0-0.1,0-0.1,0&#10;&#9;c0,0,0,0,0,0C11.7,14.9,11.7,14.8,11.7,14.8z M16.1,15C16.1,15,16.1,15,16.1,15L16.1,15c0-0.1,0-0.1,0-0.1c0,0,0,0,0,0&#10;&#9;c0,0,0.1,0,0.1,0c0,0,0,0,0.1,0c0,0,0,0.1,0,0.1c0,0,0,0,0,0L16.1,15z M17.1,15C17.1,15,17.1,15,17.1,15c0-0.1,0-0.1,0-0.1&#10;&#9;c0,0,0,0,0,0c0,0,0.1,0,0.1,0c0,0,0.1,0,0.1,0c0,0,0,0.1,0,0.1c0,0,0,0,0,0l0,0L17.1,15z M19.4,15C19.4,15,19.4,15,19.4,15&#10;&#9;c0,0,0-0.1,0-0.1c0,0,0.1,0,0.1,0c0,0,0,0,0,0c0,0,0,0,0,0c0,0,0,0,0,0.1c0,0,0,0,0,0C19.5,15,19.5,15,19.4,15z M20,15L20,15&#10;&#9;C20,15,20,14.9,20,15c0-0.1,0-0.1,0-0.1c0.1,0,0.1,0,0.2,0c0,0,0,0.1,0,0.1C20.2,15,20.1,15,20,15z M20.3,14.9c0.1,0,0.1,0,0.2,0&#10;&#9;c0,0,0,0,0,0.1l-0.1,0C20.4,15,20.4,15,20.3,14.9C20.3,15,20.3,15,20.3,14.9z M25.8,14.9C25.8,14.9,25.8,14.9,25.8,14.9&#10;&#9;C25.8,14.9,25.9,14.9,25.8,14.9c0.1-0.1,0.1-0.1,0.2-0.1c0,0,0,0,0,0c0,0,0,0.1,0,0.1C25.9,15,25.8,15,25.8,14.9&#10;&#9;C25.8,15,25.8,14.9,25.8,14.9z M26.1,14.8C26.1,14.8,26.1,14.8,26.1,14.8c0.1,0,0.1,0,0.2,0c0,0,0,0,0.1,0c0,0,0,0,0,0&#10;&#9;c0,0,0,0.1,0,0.1c-0.1,0-0.1,0-0.2,0c0,0,0,0-0.1,0C26.1,15,26.1,14.9,26.1,14.8C26.1,14.9,26.1,14.9,26.1,14.8z M26.8,14.8&#10;&#9;C26.8,14.8,26.8,14.8,26.8,14.8c0,0-0.1,0-0.2,0c-0.1,0-0.1,0-0.2,0c0,0,0-0.1,0-0.1l0.3,0l0.1,0L26.8,14.8z M19.3,14.6&#10;&#9;C19.3,14.6,19.3,14.6,19.3,14.6C19.3,14.6,19.3,14.6,19.3,14.6c-0.2,0-0.2,0-0.3,0c0,0,0,0,0,0C19.1,14.6,19.2,14.6,19.3,14.6z&#10;&#9; M19,14.6c0,0.1,0,0.1,0,0.2c-0.1,0-0.1,0-0.2,0c0,0,0,0,0,0c0,0,0,0,0,0c0,0,0-0.1,0-0.1C18.8,14.7,18.9,14.7,19,14.6&#10;&#9;C18.9,14.7,18.9,14.7,19,14.6C18.9,14.7,18.9,14.6,19,14.6c-0.1,0-0.1,0-0.2,0c0,0,0,0,0,0c0,0,0,0,0,0C18.8,14.6,18.9,14.6,19,14.6&#10;&#9;C19,14.6,19,14.6,19,14.6z M18.6,14.6C18.6,14.6,18.6,14.6,18.6,14.6C18.6,14.6,18.6,14.6,18.6,14.6c-0.1,0-0.1,0-0.2,0c0,0,0,0,0,0&#10;&#9;l0,0C18.5,14.6,18.6,14.6,18.6,14.6z M15.2,14.7c0,0,0.1,0,0.2,0c0,0,0,0,0,0c0,0,0,0.1,0,0.1c0,0,0,0,0,0.1c0,0,0,0,0,0&#10;&#9;c-0.1,0-0.2,0-0.3,0C15.1,14.8,15.1,14.7,15.2,14.7L15.2,14.7z M15,14.8c-0.1,0-0.1,0-0.2,0c0,0,0,0,0,0c0,0,0,0,0,0&#10;&#9;c0,0,0-0.1,0-0.1c0.1,0,0.1,0,0.1,0c0,0,0,0,0,0c0,0,0,0,0,0l0.1,0C15,14.7,15,14.8,15,14.8z M12.7,14.7&#10;&#9;C12.7,14.7,12.7,14.7,12.7,14.7c0,0.1,0,0.1,0,0.2c0,0,0,0,0,0c0,0-0.1,0-0.1,0c0,0,0-0.1,0-0.1c0,0,0-0.1,0-0.1&#10;&#9;C12.6,14.7,12.7,14.7,12.7,14.7z M12.4,14.8C12.4,14.8,12.4,14.8,12.4,14.8C12.4,14.9,12.4,14.9,12.4,14.8c-0.1,0.1-0.2,0.1-0.2,0.1&#10;&#9;c0,0,0-0.1,0-0.1c0,0,0,0,0,0c0,0,0,0,0,0C12.4,14.8,12.4,14.8,12.4,14.8L12.4,14.8C12.4,14.8,12.4,14.8,12.4,14.8&#10;&#9;C12.4,14.7,12.4,14.7,12.4,14.8c0-0.1-0.1-0.1-0.2-0.1c0,0,0,0,0,0c0,0,0,0,0,0c0.1,0,0.1,0,0.2,0C12.4,14.7,12.4,14.8,12.4,14.8z&#10;&#9; M11.5,14.7C11.6,14.7,11.6,14.7,11.5,14.7C11.5,14.7,11.5,14.7,11.5,14.7L11.5,14.7c-0.1,0-0.1,0.1-0.1,0.1&#10;&#9;C11.4,14.7,11.4,14.8,11.5,14.7c-0.1,0.1,0,0.1,0,0.1c0,0,0,0,0,0c0,0,0,0.1,0,0.1c-0.1,0-0.2,0-0.3,0c0,0,0,0,0,0&#10;&#9;c0-0.1,0-0.1,0-0.2C11.4,14.7,11.5,14.7,11.5,14.7z M11.2,14.9C11.2,14.9,11.2,14.9,11.2,14.9c-0.1,0-0.1,0-0.2,0c0,0,0,0,0,0&#10;&#9;c0,0,0-0.1,0-0.1c0,0,0,0,0,0c0,0,0,0,0,0c0,0,0,0,0,0c0,0,0,0,0,0c0.1,0,0.1,0,0.2,0C11.2,14.7,11.2,14.8,11.2,14.9z M10.9,14.7&#10;&#9;C10.9,14.7,10.9,14.7,10.9,14.7C10.9,14.7,10.9,14.7,10.9,14.7C10.9,14.7,10.9,14.7,10.9,14.7z M2,15.3C2,15.3,2,15.3,2,15.3&#10;&#9;C2,15.3,2,15.3,2,15.3C2,15.3,2,15.3,2,15.3l-0.1-0.2c0,0,0-0.1,0-0.1c0,0,0,0,0,0c0,0,0,0,0,0c0,0,0.1,0,0.1,0c0,0,0,0,0,0&#10;&#9;C2,15,2,15,2,15c0,0.1,0,0.1,0,0.1c0,0,0,0,0,0c0,0,0,0,0,0c0,0,0,0,0-0.1c0,0,0-0.1,0-0.1c0,0,0.1,0,0.1,0c0,0,0,0.1,0,0.1&#10;&#9;c0,0,0,0.1,0,0.1c0,0,0,0.1,0,0.1c0,0,0,0,0,0l-0.1,0L2,15.3L2,15.3L2,15.3z M26,18.8c-0.5,2.1-0.9,4.3-1.4,6.4&#10;&#9;c-0.1,0.5-0.2,1.1-0.3,1.6l-0.1,0.4l0,0.2c0,0,0,0.1,0,0.1c0,0.1-0.1,0.1-0.2,0.2c0,0,0,0,0,0l0,0c0,0,0,0-0.1,0c0,0,0,0,0,0&#10;&#9;c0,0-0.1,0-0.1,0c-1.1,0-2.2,0-3.2,0c-2.2,0-4.3,0-6.4,0c-2.1,0-4.1,0-5.9,0c-0.9,0-1.9,0-2.7,0c-0.1,0-0.3-0.1-0.4-0.2l0,0&#10;&#9;c0,0,0,0,0,0c0,0,0,0,0,0c0,0,0,0,0,0l0,0l0,0l0,0l0,0c0,0,0,0,0,0l0-0.1l0-0.2c-0.1-0.4-0.2-0.8-0.3-1.2c-0.8-3.2-1.4-5.9-1.8-7.8&#10;&#9;c-0.2-0.9-0.4-1.7-0.5-2.2c-0.1-0.2-0.1-0.4-0.1-0.5l0.1,0l0.4,0l0.8,0c0.3,0,0.5,0,0.8,0l0.8,0l0.8,0l0.2,0l0.1,0l0,0l0,0l0.1,0&#10;&#9;l0.4,0c0.1,0,0.3,0,0.4,0l0.4,0c0.1,0,0.3,0,0.4,0l0.4,0l1.5,0c0.4,0,0.8,0,1.3,0l0.4,0l0.8,0l0.8,0l0.8,0l0.4,0l0.1,0l0.1,0l0.2,0&#10;&#9;l1.5,0c0.3,0,0.5,0,0.8,0l0.1,0l0.8,0.1l0.4,0l0.2,0l0,0l0,0l0.1,0l0.1,0l0.4,0c0.1,0,0.3,0,0.4,0l0.4,0c0,0,0,0,0,0&#10;&#9;c1.4,0,2.8,0,4.2,0c0.5,0,1,0,1.5,0c0.1,0,0.2,0,0.3,0c0.2,0,0.4,0,0.6,0l0,0C26.5,16.7,26.2,17.7,26,18.8z M28.4,13.5&#10;&#9;C28.5,13.6,28.4,13.6,28.4,13.5c0,0.2-0.1,0.2-0.1,0.3c0,0,0,0-0.1,0.1c0,0-0.1,0-0.1,0c0,0,0,0-0.1,0l-0.1,0l0,0l0,0c0,0,0,0,0,0&#10;&#9;c-0.1,0-0.2,0-0.4,0l-0.1,0c0,0-0.1,0-0.2,0l0,0l0,0c0,0,0,0,0,0l-0.1,0L27,14c-0.1,0-0.2,0-0.3,0c-0.4,0-0.7,0-1.1,0l-0.1,0l-0.2,0&#10;&#9;l-0.1,0l-0.1,0l-0.4,0c-0.1,0-0.3,0-0.4,0l-0.4,0c-0.1,0-0.3,0-0.4,0l-0.2,0l-0.2,0l-0.4,0l-0.8,0l-0.4,0l-0.1,0l0,0l-0.1,0l-0.2,0&#10;&#9;l-1.6,0l-0.1,0l0,0l0,0l-0.1,0L19,14c-0.1,0-0.2,0-0.3,0c0,0-0.1,0-0.1,0c-0.5,0-0.9,0-1.4,0c-0.5,0-0.9,0-1.4,0l-0.3,0l-0.1,0l0,0&#10;&#9;l0,0l-0.1,0l-0.3,0l-0.6,0l-0.7,0l-0.3,0l-0.3,0c-0.2,0-0.4,0-0.7,0l-0.3,0l-0.4,0l-0.2,0l-0.2,0l-0.3,0c-0.7,0-1.4,0-2.1,0&#10;&#9;c-0.5,0-0.9,0-1.4,0c-0.5,0-0.9,0-1.4,0c-0.2,0-0.4,0-0.7,0c-0.2,0-0.4,0-0.7,0c-0.2,0-0.4,0-0.7,0c-0.1,0-0.2,0-0.3,0l-0.2,0&#10;&#9;l-0.1,0l-0.1,0c-0.4,0-0.9,0-1.3,0c-0.2,0-0.4,0-0.6,0c-0.2,0-0.4,0-0.6,0l-0.1,0c0,0,0,0-0.1,0c0,0-0.1,0-0.1,0&#10;&#9;c-0.1,0-0.1-0.1-0.2-0.1c0,0-0.1-0.1-0.1-0.2l0,0l0,0c0,0,0,0,0,0l0-0.1c0-0.4,0-0.8,0-1.2l0-0.1l0,0c0,0,0,0,0,0l0,0l0,0&#10;&#9;c0,0,0-0.1,0-0.1c0,0,0-0.1,0-0.1c0,0,0,0,0.1-0.1c0,0,0,0,0.1-0.1c0,0,0.1,0,0.1,0c0,0,0.1,0,0.1,0l0,0c0,0,0,0,0,0l0.1,0l0,0l0,0&#10;&#9;c0,0,0,0,0,0l0.1,0c0.1,0,0.2,0,0.3,0c0.2,0,0.4,0,0.6,0c0.8,0,1.5,0,2.2,0c0.3,0,0.7,0,1,0c0.3,0,0.7,0,1,0c0.3,0,0.6,0,0.9,0&#10;&#9;c0.3,0,0.6,0,0.9,0c1.1,0,2.1,0,2.9,0c0.8,0,1.5,0,1.9,0c0.2,0,0.3,0,0.4,0c0,0.3,0,0.6,0,0.9c0,0.2,0,0.3,0,0.4&#10;&#9;c0,0.2,0.1,0.4,0.2,0.5c0,0,0.1,0.1,0.1,0.1c0,0,0,0,0,0l0,0c0,0,0.1,0.1,0.1,0.1c0,0,0.1,0,0.1,0.1c0,0,0,0,0.1,0l0.1,0&#10;&#9;c0,0,0.1,0,0.1,0c0,0,0.1,0,0.1,0l0,0l0,0l0,0c0,0,0,0,0,0l0,0c0.2,0,0.5,0,0.6,0c0,0,0.1,0,0.1,0c0,0,0.1,0,0.1,0&#10;&#9;c0.1,0,0.1,0,0.2,0c0.1,0,0.2-0.1,0.3-0.1c0.1-0.1,0.2-0.2,0.3-0.3l0-0.4c0,0,0-0.4,0.1-1.2c0-0.1,0-0.1,0-0.2c0.1,0,0.3,0,0.4,0&#10;&#9;c0.2,0,0.5,0,0.8,0c0.2,0,0.3,0,0.5,0c0.2,0,0.4,0,0.6,0c0.4,0,0.9,0,1.3,0c0.5,0,1,0,1.6,0c0.3,0,0.6,0,0.9,0c0.3,0,0.6,0,0.9,0&#10;&#9;c0.3,0,0.6,0,1,0c0.2,0,0.3,0,0.5,0c0.2,0,0.3,0,0.5,0c0.2,0,0.4,0,0.5,0c0.2,0,0.4,0,0.5,0c0.2,0,0.4,0,0.6,0c0.2,0,0.4,0,0.6,0&#10;&#9;c0.1,0,0.2,0,0.3,0c0.1,0,0.2,0,0.3,0c0.1,0,0.2,0,0.3,0l0.1,0c0,0,0,0,0,0c0,0,0.1,0,0.1,0c0.1,0,0.2,0.1,0.3,0.2&#10;&#9;c0,0.1,0.1,0.1,0.1,0.2c0,0,0,0,0,0l0,0.1l0,0.1c0,0.4,0,0.8,0,1.2C28.5,13.5,28.5,13.5,28.4,13.5z" style="user-select: auto;"/>
<path class="st0" d="M15,12.7C15,12.7,15,12.7,15,12.7c0.1-0.1,0.1-0.1,0.1-0.2c0,0,0-0.1,0-0.1c0,0,0,0,0,0c0,0,0,0,0,0&#10;&#9;c0,0,0,0,0,0c0,0,0,0,0,0l0-0.1c0,0,0,0,0-0.1c0,0,0-0.1,0-0.1c0,0,0-0.1,0-0.1c0,0,0-0.1-0.1-0.1c0,0-0.1-0.1-0.1-0.1&#10;&#9;c0,0-0.1,0-0.1-0.1c-0.1,0-0.1,0-0.1,0c-0.1,0-0.2,0-0.3,0c-0.1,0-0.2,0.1-0.3,0.2c0,0.1-0.1,0.1-0.1,0.2l0,0.1c0,0,0,0,0,0l0,0l0,0&#10;&#9;l0,0l0,0l0,0l0,0l0,0c0,0.1,0.1,0.2,0.1,0.3c0.1,0.1,0.2,0.2,0.3,0.2c0,0,0.1,0,0.1,0l0,0c0,0,0,0,0,0c0,0,0,0,0.1,0l0,0l0,0l0,0&#10;&#9;l0,0C14.7,12.9,14.8,12.8,15,12.7C14.9,12.8,15,12.7,15,12.7z" style="user-select: auto;"/>
</svg>