<svg xmlns="http://www.w3.org/2000/svg" xmlns:xlink="http://www.w3.org/1999/xlink" x="0px" y="0px" viewBox="0 0 32 29.5" style="user-select: auto;" xml:space="preserve">
<g style="user-select: auto;">
	<path class="st0" d="M8.7,10.1c-0.3,1.2,0.3,2.6-0.3,3.5c-1.1-0.1-3.1,0.3-3.3-1.1c0.3-0.8,0-1.5,0.2-2.3C6,9.9,7.6,10.1,8.7,10.1z&#10;&#9;&#9; M6.2,12c0.2-0.4,0.5-0.6,0.5-1C6.2,11,6,11.7,6.2,12z M6.5,12.3c0.3-0.3,0.7-0.8,0.7-1.2C6.9,11.5,6.6,11.8,6.5,12.3z M6.9,12.7&#10;&#9;&#9;c0.1,0,0.3,0,0.4,0c0.2-0.3,0.5-1.1,0.4-1.4C7.6,11.9,6.9,12,6.9,12.7z" style="user-select: auto;"/>
	<path class="st0" d="M21,11.3c0.2,0.2,0,0.6-0.1,0.9c-2.6,0.4-5.5-0.4-8.3-0.1c-0.7,0.1-3,0.7-2.7-0.7c0.4-0.1,0.8,0,1.2,0&#10;&#9;&#9;c1,0,2-0.3,2.9-0.3C16.3,11,18.6,11.5,21,11.3z" style="user-select: auto;"/>
	<path class="st0" d="M18,16.4c-0.1,0.2,0,0.6-0.2,0.8c-2.1,0-4.8,0.1-7.2-0.2C10.2,17,9.5,17,9.2,16.6c0.1-0.2,0.1-0.3,0.2-0.5&#10;&#9;&#9;C12.1,16.4,15.4,16.1,18,16.4z" style="user-select: auto;"/>
	<path class="st0" d="M7.3,19.8c0.3,0.8,0.1,1.8,0.3,2.5c-0.3,0-0.3,0.2-0.3,0.6c-0.7,0.1-1.5-0.5-2.1-0.5c-0.3,0-0.2,0.4-0.5,0.3&#10;&#9;&#9;c-0.1-0.1-0.3-0.1-0.4-0.2c0.2-1.2,0.1-2.2,0.3-3C5.5,19.7,6.2,19.9,7.3,19.8z M6.4,21.9c0.2,0.1,0.3-0.3,0.1-0.3&#10;&#9;&#9;C6.5,21.7,6.4,21.7,6.4,21.9z" style="user-select: auto;"/>
	<path class="st0" d="M25.6,9c0.8-0.5,1.3-1.4,2.1-2.2c0.4-0.4,0.8-0.7,1.2-1c0.4-0.3,0.6-0.9,1.2-0.9c0.7,0.1,0.9,0.9,1.3,1.4&#10;&#9;&#9;c0.2,0.3,0.5,0.4,0.7,0.7c-0.8,1.7-2,2.9-3.1,4.4c-0.3,0.5-0.8,0.9-1,1.5c-1,0.9-1.7,2.1-2.7,3c0,0.3-0.1,0.7-0.3,0.9&#10;&#9;&#9;c0.2,1.7-0.2,3.5-0.4,5.3c-0.3,2.4-0.3,4.8-1.1,6.6c-3.2,0.2-6.4-0.2-9.7-0.7c-3.2-0.5-6.7-0.1-10.5-0.4c-0.9-0.1-1.8-0.5-2.3-0.9&#10;&#9;&#9;c0.1-3,0.3-6.5,0.6-9.5c0.2-2,0.6-4.2,0.9-6.4c0.3-2.4,0.4-4.8,0.8-7.2c0-0.2,0.2-0.4,0.2-0.6c0-0.4-0.4-0.6-0.2-1&#10;&#9;&#9;c3.8,0,8.5-0.5,12.9-0.3c1,0.1,2.1,0,3.2-0.1c1.4-0.1,2.4,0,3.6-0.2c1.3,1,2.1,2.6,3,4C26.3,6.4,25.7,7.7,25.6,9z M4.1,2.6&#10;&#9;&#9;C3.5,8,2.7,13.5,2.2,18.7C2,20.6,1.8,23,2,24.6c-0.2,0.3-0.2,0.9-0.2,1.3c0.5,0.5,1.3,0.6,2.1,0.6c2.4,0.1,5.1-0.2,7.8,0.1&#10;&#9;&#9;c1.2,0.1,2.4,0.2,3.6,0.4c0.6,0.1,1,0.1,1.6,0.1c0.3,0,0.6,0.2,1,0.2c1.7,0.2,3.4,0.2,5,0c0.6-3.4,1-7.2,1.3-10.2&#10;&#9;&#9;c-1,1-2.2,2.4-3.3,3.9c-0.2,0.3-0.4,0.7-0.6,1c-0.2,0.2-0.6,0.3-0.9,0.5c-0.3,0.2-0.6,0.4-0.9,0.5c-0.4,0.2-1.6,0.9-2.1,0.6&#10;&#9;&#9;c-0.3-0.2-0.1-0.6-0.3-0.9c-1.1,0.2-2.1,0.2-3.3,0.2c-0.8,0-1.6,0-2.2-0.1c-0.2,0-0.4-0.2-0.6-0.2c-0.5-0.1-1.5,0.1-1.4-0.5&#10;&#9;&#9;c0.1-0.4,0.6-0.3,1.1-0.3c1.9,0.1,4.2,0.3,6.1,0.2c0.2-0.3,0.5-0.4,0.9-0.5c0.5-1.2,0.7-2.3,1.4-3.3c0.7-0.9,1.5-1.7,2.2-2.5&#10;&#9;&#9;c1.4-1.7,2.7-3.6,4.3-5.2c-0.1-1.3,0.3-2.7,0.5-4c-0.9,0.1-1.6,0.4-2.6,0.5c-0.1,0.4-0.1,1.2-0.5,1.4c-0.3,0.2-0.7,0-1.2-0.1&#10;&#9;&#9;c-1-0.1-2.2,0.1-3.5,0.1c-1.6,0-3.5,0.1-5.1,0.1c-1.1,0-2.3-0.1-3.3-0.2C8,8,7.1,8.2,6.6,8C6.3,7.9,6.1,7.4,5.8,7.3&#10;&#9;&#9;c0-1,0.1-2.4,0.7-2.9C11,5,16.5,4.1,20.7,4.7c0.3-0.9,0.8-1.6,1-2.6C16,2.6,9.5,2,4.1,2.6z M23,2.5c-0.3,0.7-1,1.4-1,2.1&#10;&#9;&#9;c0.4-0.7,1.1-1.4,1.2-2.1C23.1,2.5,23,2.5,23,2.5z M23.4,4c0.2-0.1,0.4-0.2,0.5-0.5C23.6,3.6,23.5,3.8,23.4,4z M24.1,4.1&#10;&#9;&#9;c-0.4,0.6-0.9,1.1-1.3,1.7c0.9-0.2,0.9-1.2,1.6-1.7C24.3,4.1,24.2,4.1,24.1,4.1z M22.1,5.9c0.4-0.1,0.4-0.4,0.6-0.7&#10;&#9;&#9;c0.2-0.2,0.7-0.8,0.6-1C22.9,4.8,22.4,5.2,22.1,5.9z M23.7,5.7c0.7,0,0.7-0.7,1-0.9c0-0.1-0.1-0.1-0.2-0.2&#10;&#9;&#9;C24.3,5,23.8,5.2,23.7,5.7z M21.6,5.7c0.3,0,0.6-0.6,0.4-0.6C21.9,5.3,21.6,5.4,21.6,5.7z M6.8,6.4c0.1-0.3,0.4-0.5,0.4-1&#10;&#9;&#9;C6.7,5,6.6,6.2,6.8,6.4z M14.5,7.4c1-0.2,1.1-1.4,1.8-1.8c0-0.1,0-0.1-0.1-0.2C15.6,6,14.9,6.5,14.5,7.4z M13.5,7.4&#10;&#9;&#9;c0.1,0.1,0.2,0.1,0.4,0.1c0.5-0.7,1.1-1.2,1.5-2C14.3,5.7,14,6.6,13.5,7.4z M15.4,7.3c0.2,0,0.2,0.1,0.5,0.1c0.5-0.6,0.9-1.2,1.3-2&#10;&#9;&#9;C16.4,5.9,15.9,6.6,15.4,7.3z M7.8,5.5c-0.3,0.7-0.9,1-1,1.8c0.1,0.1,0.3-0.1,0.5,0.1c0.3-0.7,1-1.1,1.2-1.9C8.3,5.5,8,5.5,7.8,5.5&#10;&#9;&#9;z M8.4,7.3c0.5,0,0.4-0.5,0.7-0.5c0.2-0.5,0.9-0.8,0.9-1.3C9.3,5.9,8.9,6.6,8.4,7.3z M11.6,5.5c-0.4,0.6-1.1,1.1-1.4,1.8&#10;&#9;&#9;c0.2,0.1,0.3,0,0.6,0c0.4-0.6,1-1,1.2-1.8C11.9,5.5,11.7,5.5,11.6,5.5z M12.7,5.5c-0.5,0.6-1.1,1.1-1.4,1.8c0.6,0.2,0.8-0.4,1-0.7&#10;&#9;&#9;c0.3-0.4,0.6-0.7,0.7-1.2C12.9,5.5,12.8,5.5,12.7,5.5z M13.8,5.5c-0.6,0.6-1.1,1.2-1.6,1.9c0.2,0.1,0.5,0,0.7,0.1&#10;&#9;&#9;c0.4-0.7,1-1.2,1.3-2C14.1,5.5,14,5.5,13.8,5.5z M17.8,5.5c-0.4,0.6-1.1,1-1.3,1.8c0.2,0.1,0.5,0,0.9,0c0.3-0.7,0.8-1.2,1.1-1.8&#10;&#9;&#9;C18.4,5.4,18.1,5.5,17.8,5.5z M19.2,5.5C18.7,6,18.1,6.4,18,7.3c0.3,0,0.5,0,0.7-0.1c0.2-0.7,0.6-1.1,0.9-1.7&#10;&#9;&#9;C19.4,5.5,19.4,5.4,19.2,5.5z M9.3,7.2c0.4,0.2,0.7-0.3,0.9-0.6c0.2-0.3,0.4-0.7,0.6-1c0.1,0,0.1-0.1,0-0.1&#10;&#9;&#9;C10.4,6.1,9.6,6.5,9.3,7.2z M19.1,7.2c0.8,0,0.9-1.1,1.3-1.7C19.7,5.9,19.4,6.6,19.1,7.2z M30,6c-0.9,0.1-1.1,0.8-1.6,1.3&#10;&#9;&#9;c0.4,0.5,1,0.8,1.6,1.1c0.3-0.4,0.7-0.7,0.9-1.2C30.6,6.8,30.4,6.3,30,6z M20,7.2c0.5-0.1,0.9,0,1.6,0c0-0.2-0.1-0.2-0.1-0.3&#10;&#9;&#9;c-0.4-0.1-0.6,0.1-0.9,0.2C20.8,6.5,19.9,6.5,20,7.2z M27.3,9.1c0.4-0.2,0.4-0.8,0.9-1c-0.1-0.1-0.2-0.2-0.4-0.2&#10;&#9;&#9;C27.7,8.4,27.4,8.6,27.3,9.1z M28.1,9.7c0.3-0.3,0.5-0.6,0.7-1C28.5,9,28.1,9.2,28.1,9.7z M28.6,10.2c0.2-0.3,0.8-0.9,0.6-1.1&#10;&#9;&#9;C29,9.4,28.4,9.6,28.6,10.2z M27.5,10.1c-0.3-0.2-0.5-0.5-0.9-0.7c0,0-0.1,0-0.1,0c-0.1,0.2-0.3,0.4-0.5,0.5c0,0.1-0.1,0.2-0.1,0.3&#10;&#9;&#9;c-1.9,2.2-3.9,4.3-5.5,6.7c-0.2,0-0.3,0.3-0.5,0.3c-0.2,0.8-1,1-1.3,1.8c0.3,0.3,0.4,0.7,0.9,0.9c0-0.2,0.1-0.4,0.3-0.3&#10;&#9;&#9;c0.4,0,0.3,0.4,0.6,0.5c0.2-0.1,0.3-0.3,0.4-0.5c-0.4-0.1-0.7-0.8-0.1-0.9c0.2,0.1,0.2,0.5,0.5,0.5c0.2-0.2,0.4-0.4,0.5-0.6&#10;&#9;&#9;c-0.1-0.3-0.5-0.3-0.4-0.7c0.1,0,0.1-0.2,0.2-0.1c0.3,0.1,0.3,0.4,0.6,0.5c0.1-0.2,0.4-0.4,0.5-0.7c-0.2-0.2-0.8-0.8-0.3-1&#10;&#9;&#9;c0.3,0.1,0.3,0.4,0.6,0.6c0.4-0.2,0.6-0.5,0.7-0.9c-0.3-0.2-0.8-0.7-0.5-1c0.4,0,0.4,0.5,0.8,0.6c0.3-0.1,0.4-0.3,0.6-0.5&#10;&#9;&#9;c-0.1-0.3-0.5-0.8,0-1c0.2,0.1,0.1,0.6,0.5,0.5c0.3-0.2,0.5-0.5,0.6-0.8c-0.1-0.3-0.4-0.5-0.4-0.9c0.1,0,0-0.2,0.2-0.2&#10;&#9;&#9;c0.4,0.1,0.3,0.6,0.6,0.7c0.3-0.4,0.7-0.8,1-1.2c0-0.2-0.3-0.7,0-0.8c0.2,0,0.2,0.2,0.5,0.2c0.1-0.1,0.1-0.2,0.2-0.3&#10;&#9;&#9;c-0.1-0.2-0.4-0.5-0.1-0.8c0.3,0,0.4,0.3,0.6,0.1C28.2,10.3,27.7,10.3,27.5,10.1z M17.7,20.8c0.3,0.3,0.5,0.8,0.9,1&#10;&#9;&#9;c0.3-0.1,0.5-0.3,0.6-0.6c-0.4-0.5-0.6-1-1.2-1.3C17.8,20.1,17.8,20.5,17.7,20.8z M19.9,20.5c-0.1,0-0.2-0.4-0.3-0.2&#10;&#9;&#9;C19.7,20.4,19.8,20.7,19.9,20.5z" style="user-select: auto;"/>
	<path class="st0" d="M8.4,14.8c-0.1,1,0.1,2.3-0.3,3C6.7,18,5.7,18,4.6,17.8C4.2,17,4.8,16,4.7,15C5.6,14.6,7.2,14.7,8.4,14.8z&#10;&#9;&#9; M6.1,16.7c0.1,0,0.2,0.1,0.3,0.1c0.1-0.4,0.5-0.7,0.6-1.2C6.5,15.9,6.2,16.3,6.1,16.7z M6.7,17.1c0.3-0.1,0.5-0.6,0.5-0.9&#10;&#9;&#9;C7.1,16.6,6.7,16.7,6.7,17.1z M7.3,17.1c0.1,0,0.2,0,0.2,0c0-0.1,0.1-0.3-0.1-0.3C7.4,16.9,7.3,16.9,7.3,17.1z" style="user-select: auto;"/>
</g>
</svg>