<svg class="svg-search-opener" xmlns="http://www.w3.org/2000/svg" xmlns:xlink="http://www.w3.org/1999/xlink" x="0px" y="0px" viewBox="0 0 28 28" style="user-select: auto;" xml:space="preserve">
<g style="user-select: auto;">
	<path class="st0" d="M27.8,24.2c0-0.1-0.2-0.3-0.2-0.3l-0.4-0.4l-0.7-0.8l-0.3-0.4L25.9,22c-0.1-0.1-0.2-0.3-0.4-0.4l-0.4-0.3&#10;&#9;&#9;l-0.2-0.2l-0.2-0.2l-0.4-0.4c-0.2-0.2-0.5-0.5-0.7-0.7c-0.2-0.2-0.5-0.5-0.7-0.7l-0.7-0.8c-0.2-0.2-0.5-0.5-0.7-0.7&#10;&#9;&#9;c-0.2-0.2-0.5-0.5-0.8-0.7c-0.3-0.2-0.5-0.5-0.9-0.6c-0.2-0.1-0.3-0.2-0.6-0.2c-0.1,0-0.2,0-0.4,0c0,0-0.1,0-0.1,0l0,0l0,0l0,0l0,0&#10;&#9;&#9;l0,0c-0.1,0,0,0,0,0l0,0l-0.1,0c-0.2,0.1-0.3,0.2-0.4,0.4c0,0,0,0,0,0c0,0,0,0,0-0.1c0,0,0-0.1-0.1-0.1c0-0.1-0.1-0.1-0.1-0.2&#10;&#9;&#9;c0-0.1-0.1-0.1-0.1-0.2c0-0.1-0.1-0.1-0.1-0.2c-0.1-0.1-0.1-0.1-0.2-0.2c-0.1-0.1-0.1-0.1-0.2-0.2c-0.1-0.1-0.1-0.1-0.2-0.2&#10;&#9;&#9;c-0.1-0.1-0.1-0.1-0.2-0.2C17,15,17,15,16.9,14.9c0,0-0.1,0-0.1-0.1l0.1-0.1l0.2-0.3c0.2-0.4,0.4-0.8,0.6-1.2&#10;&#9;&#9;c0.1-0.3,0.2-0.6,0.3-1c0.1-0.2,0.2-0.5,0.2-0.7c0.2-0.9,0.4-1.8,0.3-2.6l0-0.3l-0.1-0.3c0-0.1,0-0.2-0.1-0.3l0-0.1l0-0.1l0-0.2&#10;&#9;&#9;c-0.1-0.4-0.3-0.8-0.4-1.2c-0.3-0.8-0.7-1.5-1.1-2.2c-0.2-0.3-0.5-0.7-0.7-1c-0.1-0.2-0.3-0.3-0.4-0.4c-0.1-0.1-0.1-0.1-0.2-0.2&#10;&#9;&#9;c-0.1-0.1-0.1-0.1-0.2-0.2c-0.6-0.5-1.3-0.9-1.9-1.2c-0.6-0.3-1.3-0.6-2-0.8C10,0,8.7-0.1,7.6,0.1c-1.1,0.2-2,0.6-2.7,1&#10;&#9;&#9;C4.3,1.5,3.8,1.9,3.5,2.2C3.3,2.4,3.2,2.5,3.2,2.5C3.1,2.6,3,2.7,3,2.7c0,0,0,0.1,0,0.1c0,0,0,0,0,0c0,0-0.1,0.1-0.2,0.1&#10;&#9;&#9;C2.7,3,2.7,3,2.6,3.1C2.5,3.2,2.4,3.3,2.4,3.4C2.3,3.5,2.2,3.6,2.1,3.7C2,3.8,1.9,3.9,1.8,4.1C1.7,4.2,1.6,4.4,1.5,4.6&#10;&#9;&#9;C1.3,4.9,1.1,5.3,0.9,5.7C0.7,6.1,0.5,6.6,0.4,7.1c-0.3,1.1-0.4,2.3-0.2,3.7c0.1,0.4,0.2,0.9,0.3,1.3c0.1,0.3,0.2,0.7,0.3,1&#10;&#9;&#9;c0.2,0.7,0.6,1.4,1,2.1c0.2,0.3,0.4,0.7,0.7,1c0.3,0.3,0.5,0.6,0.8,0.9c0.3,0.3,0.6,0.5,1,0.8C4.2,17.9,4.3,18,4.4,18&#10;&#9;&#9;c0.1,0.1,0.2,0.1,0.3,0.2c0.1,0,0.2,0.1,0.3,0.1c0.1,0,0.2,0.1,0.3,0.1c0.4,0.2,0.8,0.3,1.2,0.4c0.4,0.1,0.9,0.2,1.3,0.2&#10;&#9;&#9;c0.4,0,0.9,0,1.3,0c0.4,0,0.9-0.1,1.3-0.2c1.5-0.3,3.1-0.9,4.3-1.9c0,0,0,0,0,0c0,0.1,0.1,0.1,0.1,0.2c0,0.1,0.1,0.1,0.2,0.2&#10;&#9;&#9;c0.1,0.1,0.2,0.3,0.3,0.4c0.1,0.1,0.1,0.1,0.2,0.2c0.1,0.1,0.1,0.1,0.2,0.2c0.1,0.1,0.1,0.1,0.2,0.2c0.1,0,0.1,0.1,0.2,0.1&#10;&#9;&#9;c0,0,0,0,0.1,0c0,0,0,0,0,0c0,0,0,0,0,0c0,0,0,0,0,0c0,0,0.1,0,0.1,0c0,0,0,0,0,0l-0.3,0.2c-0.1,0-0.2,0.1-0.2,0.2&#10;&#9;&#9;c0,0-0.1,0.1-0.1,0.1c0,0.1-0.1,0.1-0.1,0.2c0,0.1,0,0.3,0,0.4c0,0.1,0.1,0.2,0.1,0.3c0.2,0.3,0.4,0.6,0.6,0.9&#10;&#9;&#9;c0.5,0.5,0.9,1,1.4,1.5c0.5,0.5,0.9,1,1.4,1.5c0.5,0.5,0.9,1,1.4,1.5l0.4,0.4l0.2,0.2l0.2,0.2l0.4,0.3l0.1,0.1l0,0l0,0l0,0l0,0l0,0&#10;&#9;&#9;l0.2,0.2l0.8,0.6l0.2,0.2c0.1,0.1,0.1,0.1,0.2,0.2c0,0,0.1,0.1,0.1,0.1l0.1,0.1c0.1,0.1,0.2,0.1,0.3,0.1c0.4,0.1,0.8,0.1,1.2,0&#10;&#9;&#9;c0.4-0.1,0.7-0.2,1.1-0.4l0.1-0.1c0,0,0.1-0.1,0.1-0.1c0,0,0.1-0.1,0.1-0.1l0,0l0,0l0,0c0.1-0.1,0.3-0.3,0.4-0.4&#10;&#9;&#9;c0.2-0.3,0.4-0.6,0.6-1c0.1-0.2,0.1-0.4,0.2-0.6c0-0.2,0.1-0.4,0-0.7C27.9,24.4,27.9,24.3,27.8,24.2z M3.9,17.2&#10;&#9;&#9;c0.1,0.1,0.3,0.2,0.4,0.3c0.1,0,0.2,0.1,0.2,0.1c0,0,0,0,0,0c0,0-0.1,0-0.1-0.1C4.2,17.4,4,17.3,3.9,17.2z M4.6,17.7&#10;&#9;&#9;C4.6,17.7,4.6,17.7,4.6,17.7C4.6,17.7,4.6,17.7,4.6,17.7c0,0,0.1,0,0.2,0l0.1,0c0,0,0,0.1,0,0.1C4.8,17.8,4.7,17.8,4.6,17.7z&#10;&#9;&#9; M5.1,18C5.1,18,5,17.9,5,17.9c0,0,0-0.1,0-0.1c0,0,0.1,0,0.1,0C5.1,17.9,5.1,17.9,5.1,18C5.1,17.9,5.1,18,5.1,18z M5.3,18.1&#10;&#9;&#9;C5.3,18,5.3,18,5.3,18.1c0-0.1,0.1-0.1,0.1,0c0,0,0,0,0.1,0c0,0,0,0.1,0,0.1c0,0,0,0,0,0L5.3,18.1z M6.4,18.3c0,0,0,0.1,0,0.1&#10;&#9;&#9;c-0.1,0-0.2-0.1-0.3-0.1c0,0,0-0.1,0-0.1C6.2,18.3,6.3,18.3,6.4,18.3z M6,18.4c0,0-0.1,0-0.1,0c0,0,0-0.1,0-0.1c0,0,0.1,0,0.1,0&#10;&#9;&#9;C6,18.3,6,18.3,6,18.4z M5.7,18.1c0,0,0,0.1,0,0.1c-0.1,0-0.1,0-0.2-0.1c0,0,0,0,0-0.1c0,0,0,0,0-0.1C5.6,18.1,5.7,18.1,5.7,18.1z&#10;&#9;&#9; M6.5,18.5c0,0,0-0.1,0-0.1c0.1,0,0.1,0,0.2,0c0,0,0,0.1,0,0.1c0,0,0,0-0.1,0C6.6,18.5,6.5,18.5,6.5,18.5z M7.7,18.6&#10;&#9;&#9;c0,0.1,0,0.1,0,0.2c-0.1,0-0.2,0-0.3,0c0-0.1,0-0.1,0-0.2C7.5,18.5,7.6,18.6,7.7,18.6z M7.3,18.5c0,0,0,0.1,0,0.2&#10;&#9;&#9;c-0.1,0-0.1,0-0.2,0c0-0.1,0-0.1,0-0.2C7.2,18.5,7.2,18.5,7.3,18.5z M7,18.5c0,0,0,0.1,0,0.1c-0.1,0-0.1,0-0.2,0c0,0,0-0.1,0-0.1&#10;&#9;&#9;C6.8,18.4,6.9,18.5,7,18.5z M7.8,18.7c0-0.1,0-0.1,0-0.2c0,0,0.1,0,0.1,0c0,0,0,0,0,0c0,0.1,0,0.1,0,0.2&#10;&#9;&#9;C7.9,18.7,7.9,18.7,7.8,18.7C7.8,18.7,7.8,18.7,7.8,18.7z M8.3,18.6c0,0,0,0.1,0,0.1c0,0,0,0,0,0c-0.1,0-0.1,0-0.2,0&#10;&#9;&#9;c0-0.1,0-0.1,0-0.2C8.1,18.6,8.2,18.6,8.3,18.6z M8.4,18.8C8.4,18.7,8.4,18.7,8.4,18.8c0-0.1,0-0.1,0-0.2c0.1,0,0.1,0,0.2,0&#10;&#9;&#9;c0,0,0,0.1,0.1,0.2C8.6,18.8,8.5,18.8,8.4,18.8z M8.9,18.6c0,0.1,0,0.1,0,0.2c0,0-0.1,0-0.1,0c0-0.1,0-0.1-0.1-0.2&#10;&#9;&#9;C8.8,18.6,8.8,18.6,8.9,18.6z M9.1,18.8C9.1,18.8,9.1,18.8,9.1,18.8C9,18.7,9,18.7,9,18.6c0.1,0,0.2,0,0.3,0c0,0,0,0.1,0,0.1&#10;&#9;&#9;C9.3,18.7,9.2,18.8,9.1,18.8z M10.2,18.5c0,0,0,0.1,0,0.1c-0.1,0-0.1,0-0.2,0c0,0,0,0,0,0c0,0,0-0.1,0-0.1&#10;&#9;&#9;C10.1,18.5,10.1,18.5,10.2,18.5z M9.9,18.5c0,0,0,0.1,0,0.1c0,0,0,0,0,0c-0.1,0-0.1,0-0.2,0c0,0,0-0.1,0-0.1&#10;&#9;&#9;C9.8,18.6,9.8,18.5,9.9,18.5z M9.6,18.6c0,0,0,0.1,0,0.1c0,0-0.1,0-0.1,0c0,0,0-0.1,0-0.1C9.5,18.6,9.5,18.6,9.6,18.6z M10.4,18.6&#10;&#9;&#9;C10.4,18.6,10.4,18.6,10.4,18.6c0,0-0.1-0.1-0.1-0.1c0.1,0,0.1,0,0.2,0c0,0,0,0.1,0,0.1C10.5,18.6,10.5,18.6,10.4,18.6z M13.7,17.3&#10;&#9;&#9;C13.7,17.3,13.7,17.3,13.7,17.3C13.7,17.3,13.8,17.3,13.7,17.3C13.8,17.3,13.7,17.3,13.7,17.3z M13.6,17.4&#10;&#9;&#9;C13.6,17.4,13.6,17.4,13.6,17.4c-0.1,0.1-0.1,0.1-0.2,0.1c0,0,0,0,0,0C13.4,17.5,13.5,17.4,13.6,17.4z M13.3,17.6&#10;&#9;&#9;C13.3,17.6,13.3,17.6,13.3,17.6c-0.1,0.1-0.1,0.1-0.2,0.1c0,0,0,0,0,0C13.1,17.6,13.2,17.6,13.3,17.6z M12.9,17.7&#10;&#9;&#9;C12.9,17.7,12.9,17.7,12.9,17.7c-0.1,0.1-0.2,0.1-0.2,0.2c0,0,0,0,0-0.1C12.7,17.8,12.8,17.8,12.9,17.7z M12.5,17.9&#10;&#9;&#9;C12.5,17.9,12.6,17.9,12.5,17.9c0,0.1-0.1,0.1-0.2,0.1c0,0,0,0,0-0.1C12.4,17.9,12.5,17.9,12.5,17.9z M12.2,18&#10;&#9;&#9;C12.2,18,12.2,18,12.2,18c0,0.1-0.1,0.1-0.1,0.1c0,0,0-0.1,0-0.1C12.1,18,12.2,18,12.2,18z M11.9,18.1C11.9,18.1,12,18.1,11.9,18.1&#10;&#9;&#9;c0,0.1-0.1,0.1-0.2,0.2c0,0,0-0.1-0.1-0.1C11.8,18.1,11.9,18.1,11.9,18.1z M11.6,18.2C11.6,18.2,11.6,18.3,11.6,18.2&#10;&#9;&#9;c0,0.1-0.2,0.2-0.3,0.2c0,0,0-0.1,0-0.1C11.4,18.3,11.5,18.2,11.6,18.2z M11.2,18.3c0,0,0,0.1,0,0.1c-0.1,0-0.1,0-0.2,0&#10;&#9;&#9;c0,0,0-0.1,0-0.1c0,0,0,0,0,0C11,18.3,11.1,18.3,11.2,18.3z M10.9,18.4C10.9,18.4,10.9,18.4,10.9,18.4c0,0.1,0.1,0.1,0.1,0.1&#10;&#9;&#9;c-0.1,0-0.2,0-0.2,0.1c0,0,0-0.1,0-0.1C10.7,18.4,10.8,18.4,10.9,18.4z M15,15.7c-1.3,1.1-2.9,1.8-4.5,2.1&#10;&#9;&#9;c-1.6,0.3-3.4,0.2-4.8-0.4c-0.1,0-0.2-0.1-0.3-0.1l-0.1-0.1l-0.1-0.1c-0.1,0-0.2-0.1-0.3-0.1l-0.2-0.1c-0.3-0.2-0.6-0.4-0.9-0.7&#10;&#9;&#9;c-0.3-0.3-0.6-0.5-0.8-0.8c-0.1-0.1-0.1-0.1-0.2-0.2c-0.1-0.1-0.1-0.1-0.2-0.2c-0.1-0.1-0.2-0.3-0.3-0.4c-0.2-0.3-0.4-0.6-0.6-0.9&#10;&#9;&#9;c-0.2-0.3-0.3-0.6-0.4-1c-0.2-0.6-0.4-1.3-0.5-1.9c-0.1-0.6-0.1-1.3-0.1-1.8c0-0.6,0.1-1.1,0.2-1.6C0.8,7,0.9,6.8,1,6.5&#10;&#9;&#9;C1,6.4,1.1,6.2,1.2,6c0.2-0.4,0.4-0.8,0.5-1.2c0.4-0.7,0.7-1.2,1-1.5c0.1-0.1,0.1-0.1,0.2-0.2C3,3.1,3,3.1,3.1,3c0,0,0.1,0,0.1-0.1&#10;&#9;&#9;c0,0,0.1,0,0.1,0c0,0,0,0,0.1-0.1c0,0,0,0,0,0c0,0,0,0,0,0c0.1-0.1,0.2-0.2,0.4-0.3c0.3-0.3,0.8-0.6,1.4-1c0.7-0.4,1.5-0.7,2.5-0.9&#10;&#9;&#9;c1-0.2,2.2-0.1,3.4,0.3C11.8,1,12.4,1.3,13,1.6c0.6,0.3,1.2,0.7,1.8,1.2C14.9,2.9,14.9,2.9,15,3c0.1,0.1,0.1,0.1,0.2,0.2&#10;&#9;&#9;c0.1,0.1,0.3,0.3,0.4,0.4c0.2,0.3,0.5,0.6,0.7,0.9c0.4,0.7,0.8,1.4,1,2.1c0.1,0.4,0.3,0.8,0.4,1.2l0,0.1l0,0.1l0,0.1&#10;&#9;&#9;c0,0.1,0.1,0.2,0.1,0.3l0,0.3l0,0.3c0,0.8-0.1,1.6-0.3,2.4c-0.1,0.4-0.2,0.8-0.4,1.2c-0.2,0.4-0.3,0.8-0.5,1.1L16.4,14l-0.2,0.3&#10;&#9;&#9;c-0.1,0.1-0.1,0.2-0.2,0.3c-0.1,0.1-0.1,0.2-0.2,0.2C15.6,15.1,15.3,15.4,15,15.7z M15.5,17.1c0,0-0.1-0.1-0.1-0.1&#10;&#9;&#9;c0.1,0,0.1,0,0.2,0C15.5,17,15.5,17.1,15.5,17.1C15.5,17.1,15.5,17.1,15.5,17.1z M15.5,16.8c-0.1,0-0.2,0-0.2,0c0,0,0,0,0,0&#10;&#9;&#9;c0,0,0,0-0.1-0.1c0.1,0,0.1-0.1,0.2-0.1c0,0,0.1-0.1,0.1-0.1c0,0,0,0,0,0c0,0,0,0,0.1,0C15.5,16.6,15.5,16.7,15.5,16.8z M15.6,17.2&#10;&#9;&#9;c0-0.1,0-0.2,0-0.2c0,0,0.1,0,0.1,0c0,0,0.1,0,0.1,0c0,0.1,0,0.2,0,0.3C15.8,17.2,15.7,17.2,15.6,17.2&#10;&#9;&#9;C15.7,17.2,15.6,17.2,15.6,17.2z M15.8,17.4c0,0-0.1-0.1-0.1-0.1c0,0,0.1,0,0.1,0C15.9,17.4,15.9,17.4,15.8,17.4&#10;&#9;&#9;C15.9,17.4,15.8,17.4,15.8,17.4z M16.2,17.8C16.2,17.8,16.2,17.8,16.2,17.8c-0.1-0.1-0.1-0.2-0.2-0.2c0,0,0,0,0,0&#10;&#9;&#9;c0.1,0,0.1,0,0.2,0C16.2,17.7,16.2,17.7,16.2,17.8C16.2,17.8,16.2,17.8,16.2,17.8z M16.2,17.5c-0.1,0-0.1,0-0.2,0c0,0,0,0-0.1,0&#10;&#9;&#9;c0-0.1,0-0.1,0-0.2c0,0,0.1,0,0.1,0c0,0,0.1,0,0.1,0C16.2,17.3,16.2,17.4,16.2,17.5z M16.3,17.6c0.1,0,0.2,0,0.2,0&#10;&#9;&#9;c0,0.1,0,0.1,0,0.2c0,0,0,0.1,0,0.1c0,0-0.1,0-0.1,0c0,0-0.1,0-0.1,0c0,0,0-0.1,0-0.1C16.4,17.7,16.4,17.7,16.3,17.6z M16.4,18&#10;&#9;&#9;c0,0,0.1,0,0.1,0c0,0,0,0,0.1,0c0,0.1,0,0.2,0,0.3c0,0,0,0,0,0c0,0,0,0-0.1-0.1c0,0,0,0-0.1-0.1C16.4,18.1,16.4,18,16.4,18z&#10;&#9;&#9; M16.3,19.6C16.3,19.6,16.3,19.6,16.3,19.6C16.3,19.6,16.2,19.6,16.3,19.6C16.3,19.6,16.3,19.6,16.3,19.6&#10;&#9;&#9;C16.3,19.6,16.3,19.6,16.3,19.6z M16.3,19.5C16.3,19.5,16.3,19.5,16.3,19.5C16.2,19.5,16.2,19.5,16.3,19.5c-0.1-0.1-0.1-0.1,0-0.2&#10;&#9;&#9;c0,0,0,0,0.1,0C16.3,19.3,16.3,19.4,16.3,19.5z M16.4,19.8c0-0.1,0-0.1,0-0.2c0,0,0,0,0,0c0,0,0,0,0,0c0.1,0,0.1,0,0.2,0&#10;&#9;&#9;c0,0,0,0,0,0.1c0,0.1,0,0.2,0,0.2c0,0,0,0,0,0C16.5,19.9,16.5,19.9,16.4,19.8C16.4,19.9,16.4,19.9,16.4,19.8z M16.5,20&#10;&#9;&#9;C16.5,20,16.5,20,16.5,20c0.1,0,0.1,0,0.1,0c0,0.1,0,0.1,0,0.2C16.6,20.1,16.5,20,16.5,20z M16.6,19.4c-0.1,0-0.1,0-0.2,0&#10;&#9;&#9;c0-0.1,0-0.1,0-0.2c0.1,0,0.1,0,0.2,0C16.6,19.3,16.6,19.3,16.6,19.4z M16.6,19.1c-0.1,0-0.2,0-0.2,0.1c0,0,0,0,0,0l0,0&#10;&#9;&#9;c0,0,0,0,0,0l0.2-0.2c0,0,0,0,0,0C16.7,18.9,16.7,19,16.6,19.1z M16.6,17C16.6,17,16.6,17,16.6,17c0,0-0.1,0.1-0.1,0.3&#10;&#9;&#9;c0,0.1,0,0.1,0,0.2c-0.1,0-0.1,0-0.2,0c0-0.1,0-0.2,0-0.2c0-0.1,0-0.2,0-0.2c0,0,0,0,0,0c0,0,0,0,0,0c0,0,0,0.1,0,0.2&#10;&#9;&#9;c0,0-0.1,0-0.1,0c0,0-0.1,0-0.1,0c0-0.1,0-0.2,0-0.3c0.1,0,0.1,0,0.2,0c0.1,0,0.2,0,0.2,0l0,0c0,0,0,0,0,0c0,0,0,0,0,0&#10;&#9;&#9;c0,0-0.1,0-0.2,0c-0.1,0-0.1,0-0.2,0c0-0.1,0-0.2,0-0.2c0,0,0,0,0,0c0,0,0,0,0,0c0,0,0,0.1,0,0.2c0,0-0.1,0-0.1,0c0,0,0,0-0.1,0&#10;&#9;&#9;c0-0.1,0-0.2,0-0.3c0.1,0,0.1,0,0.2,0c0.1,0,0.1,0,0.1,0c0,0,0,0,0,0c0,0,0,0,0,0c0,0,0,0-0.1,0c-0.1,0-0.1,0-0.2,0c0,0,0,0,0,0&#10;&#9;&#9;c0.2-0.2,0.5-0.5,0.7-0.7c0.1-0.1,0.1-0.2,0.2-0.3c0,0,0.1-0.1,0.1-0.1c0,0,0,0,0,0c0,0.1,0.1,0.1,0.1,0.2c0,0.1,0.1,0.1,0.1,0.2&#10;&#9;&#9;c0.1,0.1,0.2,0.3,0.3,0.4c0.1,0.1,0.1,0.1,0.2,0.2c0.1,0.1,0.1,0.1,0.2,0.2c0.1,0.1,0.1,0.1,0.2,0.2c0.1,0.1,0.1,0.1,0.2,0.1&#10;&#9;&#9;c0,0,0.1,0.1,0.1,0.1c0,0-0.1,0.1-0.1,0.1c-0.3,0.3-0.6,0.6-0.9,0.9c0,0-0.1,0-0.1,0c-0.1,0-0.1,0-0.2,0c0,0,0-0.1,0-0.1&#10;&#9;&#9;c0-0.1,0-0.1,0-0.2c0,0,0,0,0,0c0.1,0,0.2,0,0.2,0l0,0c0,0,0,0,0,0c0,0,0,0,0,0c0,0-0.1,0-0.2,0c0,0,0,0,0,0c0-0.1,0-0.2,0-0.2&#10;&#9;&#9;C16.7,17.1,16.7,17,16.6,17C16.7,17,16.7,17,16.6,17z M16.7,18c0.1,0,0.2,0,0.2,0c0,0,0,0,0,0c-0.1,0.1-0.2,0.2-0.3,0.3&#10;&#9;&#9;C16.7,18.2,16.7,18.1,16.7,18z M16.9,19.5c0,0.1,0,0.1,0,0.2c0,0,0,0.1,0,0.1c0,0,0,0-0.1,0c0,0-0.1,0-0.1,0c0-0.1,0-0.1,0-0.2&#10;&#9;&#9;c0,0,0-0.1,0-0.1C16.8,19.5,16.9,19.5,16.9,19.5z M16.7,19.4c0-0.1,0-0.1,0-0.2c0,0,0,0,0,0c0.1,0,0.1,0,0.2-0.1c0,0.1,0,0.1,0,0.2&#10;&#9;&#9;c0,0,0,0,0,0C16.9,19.4,16.8,19.4,16.7,19.4z M16.7,19.9c0,0,0.1,0,0.1,0c0,0,0,0,0.1,0c0,0,0,0.1,0,0.1c0,0,0,0,0,0.1&#10;&#9;&#9;c-0.1,0-0.2,0-0.2,0C16.7,20.1,16.7,20,16.7,19.9z M17,20.5C16.9,20.5,16.9,20.4,17,20.5c-0.1-0.1-0.2-0.2-0.2-0.2&#10;&#9;&#9;c0.1,0,0.1,0,0.2,0C17,20.3,17,20.4,17,20.5C17,20.5,17,20.5,17,20.5z M17.1,20c0,0,0-0.1,0-0.1c0.1,0,0.1,0,0.2,0c0,0,0.1,0,0.1,0&#10;&#9;&#9;c0,0,0,0.1,0,0.1c0,0,0,0.1,0,0.1C17.2,20.1,17.1,20.1,17.1,20C17.1,20.1,17.1,20,17.1,20z M17.1,20.2c0.1,0,0.2,0,0.2,0&#10;&#9;&#9;c0,0.1,0,0.1,0,0.2c-0.1,0-0.1,0-0.2,0C17.1,20.4,17.1,20.3,17.1,20.2z M17.1,20.6C17.1,20.6,17.1,20.6,17.1,20.6&#10;&#9;&#9;c0.1,0,0.1,0,0.2-0.1c0,0,0,0,0,0c0,0.1,0,0.2,0,0.2C17.2,20.7,17.2,20.7,17.1,20.6z M17.4,20.6C17.4,20.6,17.4,20.5,17.4,20.6&#10;&#9;&#9;c0.1-0.1,0.2-0.1,0.3-0.1c0,0.1,0,0.2,0,0.3c-0.1,0-0.1,0-0.2,0c0,0-0.1,0-0.1,0C17.4,20.8,17.4,20.7,17.4,20.6z M17.6,21.1&#10;&#9;&#9;c-0.1,0-0.1-0.1-0.2-0.1c0,0,0,0,0.1,0c0,0,0.1,0,0.1,0C17.7,21,17.7,21.1,17.6,21.1L17.6,21.1z M18,21.5l-0.2-0.2c0,0,0,0,0,0&#10;&#9;&#9;c0.1,0,0.1,0,0.2,0C18,21.3,18,21.4,18,21.5z M18,20.9c0,0.1,0,0.1,0,0.2c-0.1,0-0.1,0-0.2,0c0-0.1,0-0.2,0-0.2&#10;&#9;&#9;C17.9,20.9,17.9,20.9,18,20.9C18,20.9,18,20.9,18,20.9z M18.1,20.9C18.1,20.9,18.1,20.9,18.1,20.9C18.1,20.9,18.1,20.9,18.1,20.9&#10;&#9;&#9;c0.1,0,0.2-0.1,0.2-0.1c0,0.1,0,0.2,0,0.2c-0.1,0-0.1,0-0.2,0C18.1,21,18.1,21,18.1,20.9z M18.1,21.5c0-0.1,0-0.2,0-0.2&#10;&#9;&#9;c0,0,0,0,0,0c0.1,0,0.1,0,0.2,0c0,0,0,0,0,0c0,0.1,0,0.2,0,0.2c0,0,0,0,0,0C18.3,21.5,18.2,21.5,18.1,21.5&#10;&#9;&#9;C18.1,21.5,18.1,21.5,18.1,21.5z M18.1,21.6c0.1,0,0.1,0,0.2,0c0,0.1,0,0.2,0,0.2L18.1,21.6z M18.5,21.6&#10;&#9;&#9;C18.5,21.6,18.5,21.6,18.5,21.6c0.2,0,0.2-0.1,0.2-0.1c0,0,0,0,0,0c0,0,0,0,0,0c0,0,0,0-0.1,0c0,0-0.1,0-0.1,0c0-0.1,0-0.1,0-0.2&#10;&#9;&#9;c0,0,0,0,0,0c0.1,0,0.1,0,0.2,0c0.1,0,0.1,0,0.2,0c0,0,0,0.1,0,0.2c0,0.1,0,0.3,0,0.5c0,0-0.1,0-0.1,0c-0.1,0-0.1,0-0.2,0&#10;&#9;&#9;C18.5,21.7,18.5,21.6,18.5,21.6z M18.8,22.2c-0.1-0.1-0.2-0.2-0.3-0.3c0,0,0,0,0-0.1c0,0,0.1,0,0.2,0c0,0,0.1,0,0.1,0c0,0,0,0,0,0&#10;&#9;&#9;C18.8,22,18.8,22.1,18.8,22.2C18.8,22.2,18.8,22.2,18.8,22.2z M18.9,21.9C18.9,21.9,18.9,21.9,18.9,21.9c0.1,0,0.2,0,0.3,0&#10;&#9;&#9;c0,0,0,0,0,0c0,0.1,0,0.2,0,0.3c0,0,0,0,0,0.1c0,0,0,0,0,0c-0.1,0-0.1,0-0.2,0c0,0-0.1,0-0.1,0C18.9,22.1,18.9,22,18.9,21.9z&#10;&#9;&#9; M18.9,22.4C18.9,22.4,18.9,22.3,18.9,22.4c0-0.1,0.1-0.1,0.1-0.1c0.1,0,0.1,0,0.2,0c0,0,0,0,0,0c0,0.1,0,0.2,0,0.3&#10;&#9;&#9;c0,0-0.1,0-0.1,0C19.1,22.5,19,22.4,18.9,22.4z M19.2,22.7C19.2,22.7,19.3,22.7,19.2,22.7C19.3,22.7,19.3,22.7,19.2,22.7&#10;&#9;&#9;C19.3,22.7,19.2,22.7,19.2,22.7z M19.4,22.3c0.1,0,0.1,0,0.2,0c0.1,0,0.1,0,0.1,0c0,0,0,0,0,0c0,0,0,0,0,0c0,0-0.1,0-0.2,0&#10;&#9;&#9;c0,0-0.1,0-0.2,0c0,0,0,0,0-0.1c0-0.1,0-0.2,0-0.3c0.1,0,0.3,0,0.4,0c0,0,0,0.1,0,0.3c0,0.1,0,0.3,0,0.5c-0.1,0-0.3,0-0.4,0&#10;&#9;&#9;C19.4,22.5,19.4,22.4,19.4,22.3z M19.4,22.8c0,0,0-0.1,0-0.1c0.1,0,0.2,0,0.4,0c0,0.1,0,0.2,0,0.4c0,0-0.1,0-0.1,0c0,0-0.1,0-0.1,0&#10;&#9;&#9;C19.5,23,19.5,22.9,19.4,22.8z M19.8,23.3c0,0-0.1-0.1-0.1-0.1c0,0,0,0,0,0c0,0,0.1,0,0.1,0C19.8,23.2,19.8,23.2,19.8,23.3&#10;&#9;&#9;C19.8,23.2,19.8,23.2,19.8,23.3L19.8,23.3z M19.9,22.2C19.9,22.2,19.9,22.2,19.9,22.2c0.2,0,0.3,0,0.4,0c0,0.1,0,0.2,0,0.3&#10;&#9;&#9;c-0.1,0-0.2,0-0.4,0C19.9,22.4,19.9,22.3,19.9,22.2z M19.9,22.6c0.1,0,0.3,0,0.4,0c0,0.1,0,0.2,0,0.3c0,0,0,0.1,0,0.1&#10;&#9;&#9;c-0.1,0-0.2,0-0.3,0c0,0-0.1,0-0.1,0C19.9,22.9,19.9,22.8,19.9,22.6z M20,23.4L20,23.4c-0.1-0.1-0.1-0.2-0.1-0.2c0,0,0-0.1,0-0.1&#10;&#9;&#9;c0,0,0.1,0,0.1,0c0.1,0,0.2,0,0.3,0c0,0.1,0,0.2,0,0.3C20.2,23.4,20.2,23.4,20,23.4C20.1,23.4,20,23.4,20,23.4z M20.3,23.7&#10;&#9;&#9;l-0.2-0.2c0,0,0,0,0,0c0.1,0,0.2,0,0.2,0C20.4,23.6,20.4,23.7,20.3,23.7C20.4,23.7,20.3,23.7,20.3,23.7z M20.4,23.1&#10;&#9;&#9;c0.1,0,0.2,0,0.3,0c0,0.1,0,0.2,0,0.3c0,0-0.1,0-0.1,0c-0.1,0-0.1,0-0.2,0C20.5,23.3,20.4,23.2,20.4,23.1z M20.5,23.5&#10;&#9;&#9;c0.1,0,0.1,0,0.2,0c0,0,0.1,0,0.1,0c0,0.1,0,0.1,0,0.2c0,0,0,0,0,0.1c-0.1,0-0.2,0-0.3,0C20.5,23.6,20.5,23.6,20.5,23.5z&#10;&#9;&#9; M20.7,24.1L20.5,24c0,0,0-0.1,0-0.1c0.1,0,0.2,0,0.3,0c0,0.1,0,0.2,0,0.3C20.8,24.1,20.8,24.1,20.7,24.1z M20.8,24.3&#10;&#9;&#9;C20.8,24.3,20.9,24.3,20.8,24.3C20.9,24.3,20.9,24.3,20.8,24.3L20.8,24.3z M20.9,23.8c0.1,0,0.2,0,0.2,0c0,0,0,0,0,0c0,0,0,0,0,0&#10;&#9;&#9;l0,0C21.1,23.7,21,23.7,20.9,23.8c0-0.1,0-0.1,0-0.2c0-0.1,0-0.1,0-0.2c0.1,0,0.2,0,0.3,0c0,0.1,0,0.1,0,0.2c0,0.1,0,0.3,0,0.5&#10;&#9;&#9;c-0.1,0-0.2,0-0.3,0C21,24,21,23.9,20.9,23.8z M21,24.5C21,24.4,21,24.4,21,24.5c0-0.1,0-0.2,0-0.2c0.1,0,0.2,0,0.3,0&#10;&#9;&#9;c0,0.1,0,0.1,0,0.2c0,0.1,0,0.1,0,0.2c-0.1,0-0.1,0-0.2,0L21,24.5z M21.2,24.7L21.2,24.7C21.3,24.7,21.3,24.7,21.2,24.7&#10;&#9;&#9;C21.3,24.7,21.3,24.7,21.2,24.7L21.2,24.7z M21.5,24.9c0-0.1,0-0.1,0-0.2c0,0,0,0,0,0c0.1,0,0.2,0,0.3,0c0,0,0,0,0,0.1&#10;&#9;&#9;c0,0.1,0,0.2,0,0.2C21.7,25,21.6,25,21.5,24.9L21.5,24.9z M21.8,25.2l-0.1-0.1c0,0,0.1,0,0.1,0c0,0,0,0,0,0&#10;&#9;&#9;C21.8,25.1,21.8,25.2,21.8,25.2L21.8,25.2z M22,25.4L22,25.4L22,25.4c-0.1-0.2-0.1-0.3-0.1-0.4c0,0,0.1,0,0.1,0c0.1,0,0.1,0,0.2,0&#10;&#9;&#9;c0,0.1,0,0.1,0,0.2c0,0.1,0,0.1,0,0.2c0,0,0,0,0,0C22.1,25.4,22.1,25.4,22,25.4z M22.1,25.5c0,0,0.1,0,0.1,0c0,0,0,0,0,0&#10;&#9;&#9;c0,0,0,0,0,0.1c0,0,0,0,0,0.1L22.1,25.5z M22.3,25.2c0-0.1,0-0.1,0-0.2c0.1,0,0.2,0,0.2,0c0,0,0,0,0,0c0,0,0,0,0,0&#10;&#9;&#9;c0,0.1,0,0.2,0,0.4c0,0-0.1,0-0.1,0c-0.1,0-0.1,0-0.2,0c0,0,0,0,0,0C22.4,25.3,22.3,25.3,22.3,25.2z M22.4,25.8L22.4,25.8&#10;&#9;&#9;L22.4,25.8c-0.1-0.1-0.1-0.2-0.1-0.3c0,0,0,0,0,0c0.1,0,0.1,0,0.2,0c0,0,0.1,0,0.1,0c0,0,0,0.1,0,0.1c0,0.1,0,0.1,0,0.2&#10;&#9;&#9;C22.6,25.8,22.5,25.8,22.4,25.8L22.4,25.8z M22.6,25.9c0,0,0.1,0,0.1,0c0,0,0,0,0,0c0,0,0,0.1,0,0.1L22.6,25.9z M22.8,25.6&#10;&#9;&#9;c0,0,0-0.1,0-0.1c0,0,0.1,0,0.1,0c0,0,0.1,0,0.1,0c0,0,0,0.1,0,0.2c0,0,0,0.1,0,0.1c0,0-0.1,0-0.1,0c-0.1,0-0.1,0-0.2,0&#10;&#9;&#9;c0,0,0,0,0,0C22.8,25.7,22.8,25.7,22.8,25.6z M22.9,26.2l-0.1-0.1c0-0.1,0-0.1,0-0.2c0,0,0,0,0,0c0.1,0,0.1,0,0.2,0&#10;&#9;&#9;c0,0,0.1,0,0.1,0c0,0.1,0,0.2,0,0.3c0,0,0,0,0,0c0,0,0,0-0.1,0C23,26.2,23,26.2,22.9,26.2z M23.1,26.3&#10;&#9;&#9;C23.1,26.3,23.1,26.3,23.1,26.3C23.1,26.3,23.1,26.3,23.1,26.3c0.1,0,0.1,0.1,0.1,0.1L23.1,26.3z M23.2,25.6c0-0.1,0-0.2,0-0.2&#10;&#9;&#9;c0.2,0,0.3-0.1,0.4-0.1c0,0.1,0,0.2,0,0.3c-0.1,0-0.2,0-0.3,0c0,0-0.1,0-0.1,0C23.2,25.7,23.2,25.6,23.2,25.6z M23.3,26.1&#10;&#9;&#9;c0-0.1,0-0.2,0-0.3c0,0,0.1,0,0.1,0c0.1,0,0.2,0,0.2-0.1c0,0.1,0,0.1,0,0.2c0,0.1,0,0.1,0,0.2c0,0-0.1,0-0.1,0&#10;&#9;&#9;C23.5,26.1,23.4,26.1,23.3,26.1C23.3,26.2,23.3,26.1,23.3,26.1z M23.4,26.6l-0.1-0.1c0-0.1,0-0.1,0-0.2c0.1,0,0.2,0,0.3,0&#10;&#9;&#9;c0.1,0,0.1,0,0.1,0c0,0.1,0,0.2,0,0.3c0,0-0.1,0-0.1,0C23.5,26.6,23.5,26.6,23.4,26.6z M23.7,26.8l-0.2-0.1c0,0,0.1,0,0.1,0&#10;&#9;&#9;c0,0,0.1,0,0.1,0C23.7,26.7,23.7,26.8,23.7,26.8C23.7,26.8,23.7,26.8,23.7,26.8z M23.9,26.9C23.9,26.9,23.9,26.9,23.9,26.9&#10;&#9;&#9;c0-0.1,0-0.2,0-0.2c0.1,0,0.2,0,0.3,0c0,0,0,0,0,0.1c0,0.1,0,0.1,0,0.2c-0.1,0-0.1,0-0.2,0C24,26.9,23.9,26.9,23.9,26.9z&#10;&#9;&#9; M24.3,27.1c-0.1,0-0.1,0-0.2-0.1L24,27c0,0,0,0,0,0c0.1,0,0.2,0,0.2,0C24.2,27,24.3,27.1,24.3,27.1C24.3,27.1,24.3,27.1,24.3,27.1&#10;&#9;&#9;z M24.4,27.2c0-0.1,0-0.1,0-0.2c0,0,0,0,0,0c0.1,0,0.2-0.1,0.2-0.1l0,0c0,0,0,0,0,0c0,0,0,0,0,0c0,0-0.1,0-0.2,0c0,0,0,0,0,0&#10;&#9;&#9;c0-0.1,0-0.1,0-0.2c0,0,0,0,0-0.1c0,0,0,0,0.1,0c0.1,0,0.2,0,0.3,0c0,0.1,0,0.3,0,0.5c0,0,0,0.1,0,0.1&#10;&#9;&#9;C24.6,27.2,24.5,27.2,24.4,27.2z M24.8,26.3C24.8,26.3,24.7,26.3,24.8,26.3C24.7,26.2,24.7,26.3,24.8,26.3c-0.1,0-0.1,0.1-0.1,0.2&#10;&#9;&#9;c-0.1,0-0.2,0-0.3,0c0,0,0,0-0.1,0c0-0.1,0-0.2,0-0.3c0.1,0,0.2,0,0.3,0c0.2,0,0.3-0.1,0.4-0.1c0,0,0.1,0,0.1,0c0,0.1,0,0.2,0,0.4&#10;&#9;&#9;c-0.1,0-0.2,0-0.3,0C24.8,26.3,24.8,26.3,24.8,26.3z M25.1,27.2c-0.1,0-0.1,0-0.2,0c0,0,0-0.1,0-0.1c0-0.2,0-0.4-0.1-0.5&#10;&#9;&#9;c0.1,0,0.2,0,0.3-0.1c0,0.1,0,0.2,0,0.3c-0.1,0-0.2,0.1-0.2,0.1c0,0,0,0,0,0c0,0,0,0,0,0c0,0,0.1,0,0.2,0c0,0,0,0,0,0.1&#10;&#9;&#9;c0,0.1,0,0.1,0,0.2C25.2,27.1,25.1,27.1,25.1,27.2z M25.3,27.1c0,0,0-0.1,0-0.2c0,0,0,0,0-0.1c0.1,0,0.3,0,0.4-0.1c0,0,0,0.1,0,0.1&#10;&#9;&#9;C25.6,27,25.5,27,25.3,27.1z M25.9,26.8C25.9,26.8,25.9,26.8,25.9,26.8C25.9,26.8,25.9,26.8,25.9,26.8L25.9,26.8z M27,25.4&#10;&#9;&#9;c-0.1,0.3-0.3,0.5-0.5,0.8c-0.1,0.1-0.1,0.1-0.2,0.2c0,0,0,0,0,0c0-0.1,0-0.2,0-0.2c0,0,0,0,0,0c0,0,0,0,0,0c0,0,0,0.1,0,0.2&#10;&#9;&#9;c0,0,0,0.1,0,0.1c0,0,0,0,0,0l0,0l0,0c0,0,0,0,0,0l0,0c-0.1,0-0.1,0-0.2,0c0,0,0,0-0.1,0c0-0.1,0-0.2,0-0.3c0-0.1,0-0.2,0-0.2&#10;&#9;&#9;c0,0,0,0,0,0c0,0,0,0,0,0c0,0,0,0.1,0,0.2c0,0.1,0,0.2,0,0.3c-0.1,0-0.1,0-0.2,0c-0.1,0-0.2,0-0.3,0c0-0.1,0-0.2,0-0.3&#10;&#9;&#9;c0.1,0,0.2-0.1,0.2-0.1c0,0,0,0,0,0c0,0,0,0,0,0c0,0-0.1,0-0.2,0c0-0.2,0-0.3-0.1-0.5c0-0.1-0.1-0.2-0.1-0.2c0,0,0,0,0,0&#10;&#9;&#9;c0,0,0,0,0,0c0,0,0,0.1,0,0.2c0,0,0,0,0,0c0,0-0.1,0-0.1,0c-0.1,0-0.3,0-0.4,0c-0.1,0-0.2,0-0.3,0.1c0-0.1,0-0.2,0-0.2c0,0,0,0,0,0&#10;&#9;&#9;c0,0,0,0,0,0c0,0,0,0.1,0,0.2c0,0,0,0,0,0c-0.1,0-0.2,0.1-0.2,0.1c0,0,0,0,0,0c0,0,0,0,0,0c0,0,0.1,0,0.2,0c0,0,0,0,0,0&#10;&#9;&#9;c0,0.1,0,0.2,0,0.3c-0.1,0-0.2,0-0.4,0c0-0.2,0-0.4-0.1-0.6c0-0.1,0-0.1,0-0.2c0.1,0,0.2,0,0.3-0.1c0.2,0,0.3-0.1,0.3-0.1l0,0&#10;&#9;&#9;c0,0,0,0,0,0c0,0,0,0,0,0c0,0-0.1,0-0.3,0c0,0-0.1,0-0.1,0c0,0-0.1,0-0.1,0c0-0.1,0-0.2,0-0.3c0.1,0,0.2-0.1,0.2-0.1l0,0&#10;&#9;&#9;c0,0,0,0,0,0c0,0,0,0,0,0c0,0-0.1,0-0.2,0c0-0.1,0-0.1,0-0.2c0-0.1,0-0.1,0-0.2c0,0,0.1,0,0.1,0c0.1,0,0.1,0,0.1,0c0,0,0,0,0,0&#10;&#9;&#9;c0,0,0,0,0,0l0,0c0,0-0.1,0-0.1,0c0,0-0.1,0-0.1,0c0-0.1,0-0.1,0-0.1c0,0,0,0,0,0c0,0,0,0,0,0c0,0,0,0.1,0,0.1c0,0-0.1,0-0.1,0&#10;&#9;&#9;c-0.1,0-0.2,0-0.3,0c0,0,0,0,0,0c0,0,0-0.1,0-0.2c0-0.1,0-0.1,0-0.2c0.1,0,0.2,0,0.3,0c0.1,0,0.2-0.1,0.2-0.1l0,0c0,0,0,0,0,0&#10;&#9;&#9;c0,0,0,0,0,0c0,0-0.1,0-0.2,0c-0.1,0-0.2,0-0.3,0c0,0,0,0,0,0c0-0.1,0-0.2,0-0.2c0,0,0,0,0,0c0,0,0,0,0,0l0,0c0,0,0,0.1,0,0.2&#10;&#9;&#9;c0,0,0,0,0,0c-0.1,0-0.3,0-0.4,0.1c-0.1,0-0.2,0-0.2,0l0,0c0,0,0,0,0,0c0,0,0,0,0,0c0,0,0.1,0,0.2,0c0.1,0,0.2,0,0.4,0&#10;&#9;&#9;c0,0.1,0,0.1,0,0.2c0,0.1,0,0.3,0,0.3c0,0.1,0,0.2,0,0.2c0,0,0,0,0,0c0,0,0,0,0,0l0,0c0,0,0-0.1,0-0.2c0,0,0-0.1,0-0.1c0,0,0,0,0,0&#10;&#9;&#9;c0.1,0,0.2,0,0.3,0c0,0,0.1,0,0.1,0c0,0,0,0.1,0,0.2c0,0.1,0,0.1,0,0.2c0,0-0.1,0-0.1,0c-0.1,0-0.1,0-0.2,0c-0.1,0-0.2,0-0.4,0.1&#10;&#9;&#9;c0,0-0.1,0-0.1,0c0-0.1,0-0.2,0-0.3c0,0,0,0,0-0.1c0.1,0,0.1,0,0.1,0c0,0,0,0,0,0c0,0,0,0,0,0c0,0,0,0-0.1,0c0-0.1,0-0.1,0-0.1l0,0&#10;&#9;&#9;c0,0,0,0,0,0c0,0,0,0,0,0c0,0,0,0,0,0.1c0,0,0,0-0.1,0c-0.1,0-0.2,0-0.2,0c0,0,0,0,0-0.1c0-0.1,0-0.1,0-0.2c0-0.1,0-0.1,0-0.2&#10;&#9;&#9;c0-0.2-0.1-0.3-0.1-0.3c0,0,0,0,0,0c0,0,0,0,0,0c0,0,0,0.1,0,0.3c0,0.1,0,0.2,0,0.3c0,0,0,0,0,0.1c-0.1,0-0.1,0-0.2,0&#10;&#9;&#9;c0,0-0.1,0-0.1,0c0-0.1,0-0.2,0-0.2c0,0,0-0.1,0-0.1c0,0,0,0,0,0c0.1,0,0.2-0.1,0.2-0.1c0,0,0,0,0,0c0,0,0,0,0,0c0,0-0.1,0-0.2,0&#10;&#9;&#9;c0,0,0,0,0,0c0-0.1,0-0.1,0-0.2c0-0.1,0-0.1,0-0.2c0-0.1,0-0.1,0-0.2c0-0.2-0.1-0.3-0.1-0.3c0,0,0,0,0,0c0,0,0,0,0,0&#10;&#9;&#9;c0,0,0,0.1,0,0.3c0,0.1,0,0.2,0,0.3c0,0.1,0,0.1,0,0.2c-0.1,0-0.2,0-0.3,0c0,0,0,0,0,0c0-0.1,0-0.1,0-0.2c0-0.1,0-0.1,0-0.2&#10;&#9;&#9;c0.1,0,0.2,0,0.2,0c0,0,0,0,0,0c0,0,0,0,0,0l0,0c0,0-0.1,0-0.2,0c0,0,0-0.1,0-0.1c0-0.1,0-0.3,0-0.4c0-0.1,0-0.2,0-0.2&#10;&#9;&#9;c0.1,0,0.2,0,0.2,0c0,0,0,0,0,0c0,0,0,0,0,0c0,0-0.1,0-0.2,0c0,0,0,0,0,0c0,0,0,0,0,0c0,0,0,0,0,0c0,0,0,0,0,0c-0.1,0-0.2,0-0.3,0&#10;&#9;&#9;c0,0,0-0.1,0-0.1c0-0.1,0-0.2,0-0.2c0,0,0.1,0,0.1,0c0.2,0,0.3-0.1,0.3-0.1c0,0,0,0,0,0c0,0,0,0,0,0c0,0-0.1,0-0.3,0&#10;&#9;&#9;c0,0-0.1,0-0.1,0c0,0,0,0,0,0c0-0.2-0.1-0.3-0.1-0.3c0,0,0,0,0,0c0,0,0,0,0,0c0,0,0,0.1,0,0.4c0,0,0,0,0,0c-0.1,0-0.2,0-0.3,0&#10;&#9;&#9;c0,0,0,0,0-0.1c0-0.1,0-0.2,0-0.3c0.1,0,0.2,0,0.2,0c0,0,0,0,0,0c0,0,0,0,0,0c0,0-0.1,0-0.2,0c0-0.1,0-0.2,0-0.3c0.1,0,0.1,0,0.2,0&#10;&#9;&#9;c0.1,0,0.1,0,0.1,0c0,0,0,0,0,0c0,0,0,0,0,0l0,0c0,0-0.1,0-0.1,0c-0.1,0-0.1,0-0.2,0c0,0,0-0.1,0-0.1c0-0.3-0.1-0.4-0.1-0.4&#10;&#9;&#9;c0,0,0,0,0,0c0,0,0,0,0,0c0,0,0,0.2,0,0.4c0,0,0,0.1,0,0.1c-0.1,0-0.2,0-0.3,0.1c0,0-0.1,0-0.1,0c0,0,0-0.1,0-0.1&#10;&#9;&#9;c0-0.2,0-0.3,0-0.3c0,0,0,0,0,0c0.1,0,0.2,0,0.2,0c0,0,0,0,0,0c0,0,0,0,0,0c0,0-0.1,0-0.2,0c-0.1,0-0.2,0-0.4,0c0-0.1,0-0.2,0-0.3&#10;&#9;&#9;c0,0,0.1,0,0.1,0c0.1,0,0.2,0,0.3-0.1c0.1,0,0.1-0.1,0.1-0.1c0,0,0,0,0,0c0,0,0,0,0,0l0,0c0,0-0.1,0-0.1,0c-0.1,0-0.2,0-0.3,0&#10;&#9;&#9;c0,0-0.1,0-0.1,0c0,0,0,0,0,0c0-0.2,0-0.4,0-0.4c0,0,0,0,0,0c0,0,0,0,0,0c0,0,0,0.1,0,0.4c0,0,0,0,0,0c0,0-0.1,0-0.1,0&#10;&#9;&#9;c-0.1,0-0.1,0-0.1,0c0,0,0,0,0,0c0,0,0,0,0,0c0,0,0.1,0,0.1,0c0,0,0,0,0.1,0c0,0.1,0,0.2,0,0.2c0,0,0,0,0,0c-0.1,0-0.2,0-0.3,0&#10;&#9;&#9;c0-0.2,0-0.3,0-0.5c0-0.2,0-0.3,0-0.3c0,0,0,0,0,0c0,0,0,0,0,0c0,0,0,0,0,0.1c0,0-0.1,0-0.2,0c0,0-0.1,0-0.1,0c0-0.1,0-0.2,0-0.2&#10;&#9;&#9;c0.1,0,0.2,0,0.3-0.1c0.2,0,0.3-0.1,0.3-0.1c0,0,0,0,0,0c0,0,0,0,0,0c0,0-0.1,0-0.3,0c-0.1,0-0.2,0-0.3,0c0-0.1,0-0.2,0-0.4&#10;&#9;&#9;c0,0,0.1,0,0.1,0c0.1,0,0.2,0,0.2,0c0.1,0,0.1,0,0.1,0c0,0,0,0,0,0c0,0,0,0,0,0c0,0,0,0-0.1,0c-0.1,0-0.1,0-0.2,0c0,0,0,0-0.1,0&#10;&#9;&#9;c0,0,0,0,0,0c0-0.3,0-0.5,0-0.5l0,0c0,0,0,0,0,0c0,0,0,0,0,0c0,0,0,0.2,0,0.5c0,0,0,0,0,0c0,0,0,0,0,0c-0.1,0-0.1,0-0.1,0&#10;&#9;&#9;c0,0,0,0,0,0c0,0,0,0,0,0l0,0c0,0,0,0,0.1,0c0,0,0,0,0,0c0,0.1,0,0.2,0,0.3c0,0,0,0,0,0c-0.1,0-0.1,0-0.2,0c0,0,0,0,0,0&#10;&#9;&#9;c0-0.1,0-0.1,0-0.1c0,0,0,0,0,0c0,0,0,0,0,0c0,0,0,0,0,0.1c-0.1,0-0.1,0-0.2,0c0-0.1,0-0.2,0-0.3c0,0,0,0,0,0&#10;&#9;&#9;c0.1,0,0.2-0.1,0.2-0.1c0,0,0,0,0,0c0,0,0,0,0,0c0,0-0.1,0-0.2,0c0,0,0,0,0,0c0-0.2,0-0.3,0-0.3c0,0,0,0,0,0c0,0,0,0,0,0&#10;&#9;&#9;c0,0,0,0.1,0,0.3c0,0,0,0,0,0c-0.1,0-0.2,0-0.3,0c0-0.1,0-0.2,0-0.2c0.1,0,0.1,0,0.1,0c0,0,0,0,0,0c0,0,0,0,0,0c0,0-0.1,0-0.1,0&#10;&#9;&#9;c0,0,0-0.1,0-0.1c0-0.1,0-0.1,0-0.2c0.2,0,0.3-0.1,0.5-0.1c0.2,0,0.3-0.1,0.3-0.1c0,0,0,0,0,0c0,0,0,0,0,0c0,0-0.1,0-0.3,0&#10;&#9;&#9;c-0.1,0-0.3,0-0.4,0.1c0,0,0,0,0,0c0,0,0,0,0,0c0,0,0,0,0,0c0,0-0.1,0-0.1,0c0,0-0.1,0-0.1,0c0,0,0-0.1,0-0.1c0-0.1,0-0.1,0-0.2&#10;&#9;&#9;c0,0,0,0,0,0c0.1,0,0.2,0,0.3-0.1c0.2,0,0.3-0.1,0.3-0.1c0,0,0,0,0,0c0,0,0,0,0,0c0,0-0.1,0-0.3,0c-0.1,0-0.2,0-0.3,0&#10;&#9;&#9;c0-0.1,0-0.2,0-0.2c0,0,0.1,0,0.1,0c0.1,0,0.2-0.1,0.2-0.1c0,0,0,0,0,0c0,0,0,0,0,0c0,0-0.1,0-0.2,0c-0.1,0-0.2,0-0.4,0.1&#10;&#9;&#9;c0-0.1,0-0.1,0-0.2c0,0,0,0,0.1,0c0.1,0,0.1,0,0.2-0.1c0,0,0.1,0,0.1,0l0,0c0,0,0,0,0,0c0,0,0,0,0,0c0,0,0,0-0.1,0&#10;&#9;&#9;c-0.1,0-0.1,0-0.2,0c0,0,0,0,0,0l0,0c0,0,0,0,0,0l0,0c0.5-0.5,1-0.9,1.5-1.4c0.2-0.2,0.5-0.4,0.8-0.6l0,0l0,0l0,0l0,0l0,0&#10;&#9;&#9;c0,0,0,0,0,0c0,0,0,0,0,0c0,0,0.1,0,0.1,0c0.1,0,0.2,0.1,0.4,0.2c0.3,0.2,0.5,0.4,0.7,0.6c0.2,0.2,0.5,0.5,0.7,0.7&#10;&#9;&#9;c0.2,0.2,0.5,0.5,0.7,0.7l0.7,0.8c0.2,0.3,0.5,0.5,0.7,0.8c0.2,0.2,0.5,0.5,0.7,0.7l0.4,0.4l0.2,0.2l0.2,0.2l0.4,0.4&#10;&#9;&#9;c0.1,0.1,0.2,0.2,0.3,0.4l0.3,0.4l0.3,0.4l0.7,0.8l0.3,0.4c0.1,0.1,0.1,0.1,0.1,0.1c0,0,0,0.1,0,0.1C27.2,24.9,27.1,25.2,27,25.4z" style="user-select: auto;"/>
	<path class="st0" d="M15.6,9.9c0-0.1,0-0.2,0-0.3l0-0.3c0-0.2,0-0.4-0.1-0.6c-0.1-0.4-0.2-0.8-0.3-1.2c-0.2-0.8-0.6-1.5-1-2.2&#10;&#9;&#9;c-0.2-0.3-0.5-0.7-0.8-1c-0.3-0.3-0.6-0.6-0.9-0.8c-0.1-0.1-0.2-0.1-0.3-0.2l-0.1-0.1c0,0-0.1-0.1-0.1-0.1&#10;&#9;&#9;c-0.1-0.1-0.2-0.1-0.3-0.2l-0.3-0.1c-0.4-0.2-0.8-0.3-1.2-0.3C9.9,2.5,9.4,2.5,9,2.5c-0.4,0-0.8,0.1-1.2,0.2C7.4,2.9,7,3,6.6,3.2&#10;&#9;&#9;C6.3,3.4,5.9,3.6,5.6,3.8C4.9,4.3,4.3,4.9,3.8,5.5C3.4,6.2,3,7,2.8,7.8c0,0.1,0,0.2-0.1,0.3c0,0.1,0,0.2,0,0.3l0,0.3l0,0.3&#10;&#9;&#9;c0,0.1,0,0.2,0,0.3c0,0.1,0,0.2,0,0.3l0,0.3c0,0.1,0,0.2,0,0.3c0.1,0.3,0.1,0.7,0.2,1c0.1,0.2,0.1,0.3,0.2,0.5&#10;&#9;&#9;c0.1,0.4,0.3,0.7,0.5,1.1C4,13.4,4.5,14,5,14.4c0,0,0,0,0,0c0.2,0.1,0.3,0.3,0.5,0.4c0.2,0.1,0.3,0.2,0.5,0.3&#10;&#9;&#9;c0.2,0.1,0.4,0.2,0.5,0.3c0.2,0.1,0.4,0.2,0.6,0.2c0.2,0.1,0.4,0.1,0.6,0.2C8,16,8.2,16,8.4,16.1c0.4,0.1,0.8,0.1,1.2,0&#10;&#9;&#9;c0.8-0.1,1.6-0.4,2.3-0.8c0.1,0,0.1-0.1,0.2-0.1c0.3-0.2,0.6-0.3,0.9-0.5c0.3-0.2,0.6-0.4,0.8-0.7c0,0,0.1,0,0.1,0l0.3-0.3&#10;&#9;&#9;c0,0,0.1-0.1,0.1-0.1l0.1-0.1l0.2-0.2c0.1-0.1,0.1-0.1,0.1-0.2l0.1-0.2l0.3-0.4l0,0l0,0c0.2-0.4,0.3-0.7,0.4-1.1c0-0.1,0-0.1,0-0.2&#10;&#9;&#9;C15.6,10.8,15.6,10.4,15.6,9.9z M12.7,4.3C12.7,4.3,12.7,4.3,12.7,4.3C12.6,4.2,12.6,4.2,12.7,4.3C12.7,4.3,12.7,4.3,12.7,4.3z&#10;&#9;&#9; M12.6,4.2C12.6,4.2,12.5,4.2,12.6,4.2c-0.1,0-0.1,0-0.1-0.1c0,0,0,0,0,0C12.5,4.1,12.5,4.1,12.6,4.2z M12.3,4&#10;&#9;&#9;C12.3,4,12.3,4,12.3,4l-0.2-0.1c0,0,0,0,0,0c0,0,0,0,0,0C12.2,3.9,12.2,3.9,12.3,4C12.3,4,12.3,4,12.3,4z M12.1,3.8&#10;&#9;&#9;C12.1,3.8,12,3.8,12.1,3.8c-0.1,0-0.1,0-0.2,0c0,0,0,0,0-0.1L12.1,3.8C12,3.8,12.1,3.8,12.1,3.8z M11.8,3.6&#10;&#9;&#9;C11.8,3.6,11.8,3.6,11.8,3.6C11.8,3.7,11.8,3.7,11.8,3.6L11.8,3.6L11.8,3.6C11.7,3.7,11.7,3.6,11.8,3.6C11.7,3.6,11.8,3.6,11.8,3.6&#10;&#9;&#9;z M11.6,3.5C11.6,3.6,11.6,3.6,11.6,3.5c-0.1,0.1-0.1,0.1-0.2,0c0,0,0-0.1,0-0.1c0,0,0,0,0,0L11.6,3.5C11.6,3.5,11.6,3.5,11.6,3.5z&#10;&#9;&#9; M9.2,3c0.1,0,0.1,0,0.2,0v0.2c-0.1,0-0.1,0-0.2,0V3z M9.4,3c0,0,0.1,0,0.1,0c0,0.1,0,0.1,0,0.2c0,0-0.1,0-0.1,0V3z M9.7,3&#10;&#9;&#9;c0.1,0,0.1,0,0.2,0c0,0.1,0,0.1,0,0.2c-0.1,0-0.1,0-0.2,0C9.7,3.1,9.7,3.1,9.7,3z M10,3.2c0-0.1,0-0.1,0-0.2c0.1,0,0.1,0,0.2,0&#10;&#9;&#9;c0,0.1,0,0.1,0,0.2C10.1,3.2,10,3.2,10,3.2z M10.2,3.2c0-0.1,0-0.1,0-0.2c0,0,0.1,0,0.1,0c0,0,0,0.1,0,0.2&#10;&#9;&#9;C10.3,3.3,10.3,3.3,10.2,3.2z M10.5,3.1c0.1,0,0.1,0,0.2,0c0,0,0,0.1,0,0.1c-0.1,0-0.1,0-0.2,0C10.5,3.2,10.5,3.2,10.5,3.1z&#10;&#9;&#9; M10.8,3.2c0,0,0.1,0,0.1,0c0,0,0,0.1-0.1,0.1c0,0-0.1,0-0.1,0C10.8,3.3,10.8,3.3,10.8,3.2z M11,3.3c0,0,0.1,0,0.1,0.1&#10;&#9;&#9;c0,0,0,0.1-0.1,0.1c-0.1,0-0.1,0-0.2,0C11,3.4,11,3.3,11,3.3z M11.3,3.4l0.1,0.1c0,0,0,0.1,0,0.1c0,0,0,0,0,0c0,0-0.1,0-0.1,0&#10;&#9;&#9;C11.2,3.5,11.3,3.4,11.3,3.4z M9,3v0.2c0,0-0.1,0-0.1,0c0,0,0,0,0,0c0,0,0,0,0-0.1c0,0,0-0.1,0-0.1C9,3.1,9,3.1,9,3z M8.1,3.4&#10;&#9;&#9;C8.1,3.4,8.1,3.4,8.1,3.4c0,0,0-0.1,0-0.1c0,0,0.1,0,0.1,0c0,0,0,0,0,0c0,0,0,0.1,0,0.1C8.2,3.3,8.1,3.3,8.1,3.4z M8.3,3.3&#10;&#9;&#9;c0,0,0-0.1-0.1-0.1c0,0,0,0,0,0c0.1,0,0.1,0,0.2,0c0,0,0,0.1,0,0.1C8.5,3.3,8.4,3.3,8.3,3.3z M8.6,3.3c0,0,0-0.1,0-0.1&#10;&#9;&#9;c0.1,0,0.1,0,0.2,0c0,0,0,0.1,0,0.1c0,0,0,0,0,0.1C8.8,3.2,8.7,3.2,8.6,3.3z M7.9,3.3c0,0,0,0.1,0,0.1c-0.1,0-0.1,0-0.2,0&#10;&#9;&#9;c0,0,0-0.1,0-0.1c0,0,0,0,0,0C7.8,3.3,7.9,3.3,7.9,3.3z M6.2,4.1C6.2,4.1,6.2,4.1,6.2,4.1C6.2,4,6.3,4,6.3,4c0,0,0,0,0,0&#10;&#9;&#9;C6.3,4,6.2,4.1,6.2,4.1z M6.5,3.9C6.5,3.9,6.4,3.9,6.5,3.9c0.1-0.1,0.1-0.1,0.2-0.2c0,0,0,0,0,0.1c0,0,0,0,0,0&#10;&#9;&#9;C6.6,3.9,6.5,3.9,6.5,3.9z M6.8,3.8C6.8,3.8,6.8,3.7,6.8,3.8c0-0.1,0-0.1,0.1-0.1c0,0,0,0,0,0c0,0,0,0,0,0.1&#10;&#9;&#9;C6.9,3.7,6.9,3.8,6.8,3.8z M7,3.7C7,3.7,7,3.6,7,3.7c0-0.1,0.1-0.1,0.1-0.1c0,0,0,0.1,0,0.1C7.1,3.6,7.1,3.7,7,3.7z M7.3,3.6&#10;&#9;&#9;C7.3,3.6,7.3,3.5,7.3,3.6c0-0.1,0.1-0.1,0.1-0.2c0,0,0,0,0,0.1c0,0,0,0,0,0C7.4,3.6,7.3,3.6,7.3,3.6z M7.5,3.5&#10;&#9;&#9;C7.5,3.5,7.5,3.5,7.5,3.5c0-0.1,0-0.1,0-0.1c0,0,0.1,0,0.1,0c0,0,0,0,0,0c0,0,0,0.1,0,0.1C7.6,3.5,7.6,3.5,7.5,3.5z M6.1,4.1&#10;&#9;&#9;C6.1,4.1,6.1,4.1,6.1,4.1c0,0-0.1,0.1-0.2,0.1C6,4.2,6,4.2,6.1,4.1z M14.8,12.2l-0.2,0.4l-0.1,0.2c0,0.1-0.1,0.1-0.1,0.2l-0.1,0.2&#10;&#9;&#9;l-0.1,0.1c0,0,0,0.1-0.1,0.1l-0.3,0.4c0,0,0,0.1,0,0.1c-0.5,0.5-1.2,0.9-1.9,1.2c-0.2,0.1-0.4,0.2-0.5,0.2L11,15.4&#10;&#9;&#9;c-0.1,0-0.2,0.1-0.3,0.1c-0.2,0.1-0.4,0.1-0.6,0.1c-0.2,0-0.4,0.1-0.6,0.1c-0.2,0-0.4,0-0.6,0c-0.1,0-0.2,0-0.3,0&#10;&#9;&#9;c-0.1,0-0.2,0-0.3,0c-0.2,0-0.4-0.1-0.6-0.1c-0.2-0.1-0.4-0.1-0.5-0.2c-0.2-0.1-0.4-0.2-0.5-0.2c-0.2-0.1-0.3-0.2-0.5-0.3&#10;&#9;&#9;c-0.2-0.1-0.3-0.2-0.5-0.3c-0.1-0.1-0.3-0.2-0.4-0.4c-0.3-0.3-0.5-0.5-0.8-0.8c-0.1-0.1-0.2-0.3-0.3-0.5c-0.1-0.2-0.2-0.3-0.3-0.5&#10;&#9;&#9;c-0.1-0.2-0.2-0.3-0.3-0.5c-0.1-0.2-0.2-0.4-0.2-0.5c-0.1-0.4-0.2-0.7-0.3-1.1c0-0.1,0-0.2,0-0.3l0-0.3c0-0.1,0-0.2,0-0.3&#10;&#9;&#9;c0-0.1,0-0.2,0-0.3l0-0.3l0-0.3c0,0,0-0.1,0-0.1c0,0,0,0,0,0c0.2-0.7,0.5-1.4,1-2c0.5-0.6,1-1.1,1.6-1.5c0.3-0.2,0.6-0.4,1-0.6&#10;&#9;&#9;C7.2,4,7.5,3.9,7.9,3.8C8.3,3.7,8.6,3.6,9,3.6c0.4,0,0.7,0,1.1,0c0.4,0.1,0.7,0.1,1.1,0.3c0.1,0,0.2,0.1,0.3,0.1L11.6,4l0.1,0.1&#10;&#9;&#9;c0.1,0,0.2,0.1,0.2,0.1l0.2,0.2c0.1,0,0.1,0.1,0.2,0.1c0,0,0,0,0,0c0,0,0,0,0,0c0.5,0.4,1,0.9,1.4,1.4c0.1,0.1,0.2,0.3,0.3,0.5&#10;&#9;&#9;c0.1,0.2,0.2,0.3,0.3,0.5c0.2,0.3,0.3,0.7,0.4,1C15,8.3,15.1,8.7,15.2,9c0,0.1,0,0.2,0,0.3l0,0.3c0,0.1,0,0.2,0,0.3&#10;&#9;&#9;C15.2,10.7,15.1,11.5,14.8,12.2z" style="user-select: auto;"/>
	<path class="st0" d="M21.7,22.9C21.7,22.9,21.7,22.8,21.7,22.9C21.7,22.8,21.7,22.8,21.7,22.9c-0.1-0.1-0.1-0.1-0.2-0.1&#10;&#9;&#9;c0,0-0.1,0-0.1,0c0,0,0,0,0,0c0,0,0,0,0,0c0,0,0,0,0,0.1c0,0,0,0,0.1,0c0,0,0.1,0,0.1,0C21.6,22.9,21.6,22.9,21.7,22.9&#10;&#9;&#9;C21.7,22.9,21.7,22.9,21.7,22.9z" style="user-select: auto;"/>
	<path class="st0" d="M22.8,23.9L22.8,23.9c0,0-0.1,0-0.2,0c-0.1,0-0.2,0-0.3,0c-0.1,0-0.1,0-0.2,0c-0.1,0-0.1,0-0.2,0&#10;&#9;&#9;C22,24,21.9,24,21.9,24c0,0,0,0,0,0c0,0,0,0,0,0c0,0,0.1,0,0.2,0c0.1,0,0.2,0,0.3,0c0.1,0,0.2,0,0.3-0.1C22.8,24,22.9,24,22.8,23.9&#10;&#9;&#9;C22.9,24,22.9,23.9,22.8,23.9C22.9,23.9,22.9,23.9,22.8,23.9z" style="user-select: auto;"/>
	<path class="st0" d="M25.9,25.8C25.9,25.8,25.9,25.8,25.9,25.8c-0.1,0-0.2,0-0.3,0c-0.1,0-0.1,0-0.2,0c-0.1,0-0.1,0-0.1,0&#10;&#9;&#9;c0,0,0,0,0,0c0,0,0,0,0,0c0,0,0,0,0.1,0c0.1,0,0.1,0,0.2,0C25.7,26,25.8,26,25.9,25.8C25.9,25.9,26,25.9,25.9,25.8&#10;&#9;&#9;C26,25.9,26,25.9,25.9,25.8C26,25.9,26,25.9,25.9,25.8z" style="user-select: auto;"/>
	<path class="st0" d="M18.3,19.1C18.3,19.1,18.2,19.1,18.3,19.1c-0.1,0-0.2,0-0.3,0c-0.1,0-0.1,0-0.2,0c-0.1,0-0.1,0-0.1,0l0,0&#10;&#9;&#9;c0,0,0,0,0,0c0,0,0,0,0,0c0,0,0,0,0.1,0c0.1,0,0.1,0,0.2,0C18.1,19.3,18.1,19.3,18.3,19.1C18.2,19.2,18.3,19.2,18.3,19.1L18.3,19.1&#10;&#9;&#9;C18.3,19.2,18.3,19.2,18.3,19.1C18.3,19.2,18.3,19.1,18.3,19.1z" style="user-select: auto;"/>
	<path class="st0" d="M20.6,21.7C20.6,21.7,20.6,21.7,20.6,21.7c-0.1,0-0.1,0-0.2,0c0,0,0,0,0,0c0,0,0,0,0,0c0,0,0,0,0,0&#10;&#9;&#9;c0,0,0.1,0,0.1,0c0,0,0.1,0,0.1,0C20.7,21.8,20.7,21.7,20.6,21.7L20.6,21.7C20.7,21.7,20.7,21.7,20.6,21.7&#10;&#9;&#9;C20.7,21.7,20.7,21.7,20.6,21.7z" style="user-select: auto;"/>
	<path class="st0" d="M25,25.4C25,25.4,25,25.4,25,25.4c-0.1,0-0.2,0-0.3,0c-0.1,0-0.1,0-0.2,0.1c0,0-0.1,0-0.1,0c0,0,0,0,0,0&#10;&#9;&#9;c0,0,0,0,0,0c0,0,0,0,0.1,0c0,0,0.1,0,0.2,0C24.9,25.5,24.9,25.5,25,25.4C25,25.5,25,25.5,25,25.4C25,25.5,25.1,25.5,25,25.4&#10;&#9;&#9;C25.1,25.4,25,25.4,25,25.4z" style="user-select: auto;"/>
	<path class="st0" d="M22.1,23.3C22.1,23.3,22.2,23.3,22.1,23.3C22.2,23.3,22.2,23.3,22.1,23.3C22.2,23.3,22.2,23.3,22.1,23.3&#10;&#9;&#9;c0.1-0.1,0.1-0.1,0-0.1c0,0-0.1,0-0.2,0c-0.1,0-0.1,0-0.2,0c0,0-0.1,0-0.1,0c0,0,0,0,0,0c0,0,0,0,0,0c0,0,0,0,0.1,0&#10;&#9;&#9;c0,0,0.1,0,0.2,0C22,23.4,22,23.4,22.1,23.3z" style="user-select: auto;"/>
</g>
</svg>