<svg xmlns="http://www.w3.org/2000/svg" xmlns:xlink="http://www.w3.org/1999/xlink" x="0px" y="0px" viewBox="0 0 22 28" style="user-select: auto;" xml:space="preserve">
<g style="user-select: auto;">
	<path class="st0" d="M19.7,11.4c1,0,1.3,1.8,1.6,2.6c0.4,1.3,0.7,2.5,0.7,3.7c0,1.3-0.4,2.5-0.9,3.6c-0.3,0.9-0.8,1.5-1.3,2.2&#10;&#9;&#9;c-0.5,0.6-0.9,1-1.6,1.5c-0.4,0.2-0.6,0.6-0.9,0.8c-0.4,0.3-1,0.5-1.5,0.7c-0.5,0.3-1.1,0.4-1.7,0.5c-0.2,0.1-0.5,0.3-0.7,0.3&#10;&#9;&#9;c-0.9,0.2-1.9,0.1-2.8,0.1c-1.5,0-2.9,0.1-4.2-0.4c-0.3-0.1-0.7-0.3-1-0.5c-2-1-3.6-2.8-4.6-5c-0.1-0.3-0.3-0.5-0.4-0.7&#10;&#9;&#9;C0,19.7-0.1,17.7,0.1,16c0.1-1.2,0.4-2.6,0.8-3.6c0.4-1,0.7-1.6,1.4-2.5c0.5-0.7,1-1.1,1.6-1.7c0.5-0.5,1-0.8,1.8-1.3&#10;&#9;&#9;C6,6.6,6.6,6.2,7,6.1C7.8,5.9,8.4,6,9.3,5.8c0.3-1.2,0.6-2.3,1.3-3.1c0.5-0.6,1.7-1.6,2.6-1.9c0.6-0.2,1.4-0.3,2.1-0.4&#10;&#9;&#9;c3-0.4,5.3,2,5.5,4.6c0,0.8,0.1,1.8,0,2.6C20.7,9.1,20.2,10.3,19.7,11.4z M16.8,1.4c-1.1,0.5-2.2,1.4-3.4,1.8&#10;&#9;&#9;c-0.1,0.1,0,0.3-0.1,0.4C12.2,4.4,11,5.1,10,6c0,0.1,0,0.2,0,0.3c1.1-0.8,2.1-1.7,3.2-2.4c1.3-0.8,2.8-1.4,3.9-2.4&#10;&#9;&#9;C17,1.4,16.8,1.4,16.8,1.4z M14.8,1.5c-0.1,0.1-0.2,0.2-0.3,0.2c-0.3,0.2-0.8,0.4-1.2,0.6c-0.3,0.2-0.9,0.4-0.8,0.8&#10;&#9;&#9;c0.7-0.2,1.4-0.9,2-1.3C14.6,1.8,15.1,1.6,14.8,1.5C14.9,1.5,14.9,1.5,14.8,1.5z M11.7,3.1c0.7-0.4,1.5-0.8,2.1-1.4&#10;&#9;&#9;C13,1.9,12.3,2.5,11.7,3.1z M18.1,1.9c-0.5,0.6-1.4,0.8-1.9,1.5c0.1,0,0.3,0,0.4,0c0.6-0.4,1.3-0.7,1.8-1.3&#10;&#9;&#9;C18.3,2,18.2,1.9,18.1,1.9z M15.1,3.2c0.1,0.1,0.3,0,0.5,0c0.3-0.3,1-0.5,1.3-0.8c0,0,0.2-0.3,0.1-0.3C16.3,2.5,15.7,2.8,15.1,3.2z&#10;&#9;&#9; M18.7,2.4c-0.5,0.4-1.2,0.7-1.7,1c0.2,0.9,1.7-0.6,1.9-0.9C18.9,2.5,18.9,2.4,18.7,2.4z M19.2,3C18.8,3.4,18,3.5,17.6,4&#10;&#9;&#9;c0.1,0.2,0.2,0.3,0.4,0.3c0.5-0.4,1.1-0.6,1.5-1.1C19.5,3.1,19.4,3,19.2,3z M11.4,4.6c0.4-0.3,1.4-0.9,0.8-1.2&#10;&#9;&#9;c-0.7,0.6-1.9,0.9-1.9,2C10.5,5.2,10.9,4.9,11.4,4.6z M11,3.7c0.1,0,0.2-0.1,0.2-0.2C11.1,3.4,11.1,3.6,11,3.7z M18.1,4.6&#10;&#9;&#9;c0,0.2,0,0.2,0,0.3c0.7-0.2,1.3-0.6,1.6-1.1C19.2,3.8,18.7,4.4,18.1,4.6z M17.8,5.9c-0.4-1.8-3-2.5-4.3-1c-1,1.4-0.3,3.9,1.4,4.2&#10;&#9;&#9;C15,9.1,15,9.3,15.1,9.4C16.8,9.2,18.3,7.7,17.8,5.9z M18.6,5.7c0.6-0.3,1.6-0.5,1.4-1.3C19.4,4.8,18.1,4.9,18.6,5.7z M12.5,4.9&#10;&#9;&#9;c-0.6,0.6-1.8,1.1-2.4,1.8C10,6.7,10,7,10,7.1c0.7-0.4,1.5-1.2,2.1-1.7c0.2-0.2,0.5-0.3,0.5-0.6C12.6,4.9,12.5,4.9,12.5,4.9z&#10;&#9;&#9; M18.6,6.1c-0.1,0.3-0.1,0.5,0,0.8c0.3-0.1,0.6-0.4,0.9-0.6c0.2-0.2,0.7-0.4,0.6-0.8C19.5,5.6,19.1,5.8,18.6,6.1z M10.1,7.6&#10;&#9;&#9;c-0.1,0.1,0,0.4,0,0.5c0.5-0.4,1.1-0.9,1.6-1.3C12,6.6,12.5,6.5,12.3,6C11.4,6.4,10.8,7,10.1,7.6z M20,6.7c-0.6,0.7-1.9,0.9-2,1.9&#10;&#9;&#9;c0.8-0.5,1.5-1.1,2.1-1.8C20.2,6.7,20.1,6.6,20,6.7z M18.4,7.3C18.8,7.3,19,7,19.2,6.8C18.9,6.9,18.5,6.9,18.4,7.3z M6.8,7.4&#10;&#9;&#9;C6.5,7.7,6.4,8.5,6.2,8.9c0,0-0.1,0.1,0,0c-0.2,0.8-0.3,1.7-0.4,2.4c1.2-0.2,2.5-0.2,3.7-0.4C9.4,9.5,9.5,8.3,9.3,6.9&#10;&#9;&#9;C8.4,6.8,7.2,6.8,6.8,7.4z M12.2,7c-0.4,0.1-1.9,1.1-1.9,1.4c-0.1,0.4,0.2,0.8,0.4,1.1c0.3-0.3,0.7-0.6,1.1-0.9&#10;&#9;&#9;c0.4-0.3,1-0.5,0.8-1c-0.8,0.3-1.3,0.9-2,1.3C10.9,8,11.9,7.8,12.4,7C12.3,7,12.3,7,12.2,7z M17.2,9.7c-0.1,0-0.1-0.1-0.3-0.1&#10;&#9;&#9;C16.7,9.8,17,9.8,17,10c-0.2,0.2-0.6,0.4-0.6,0.8c-1.3,0.9-2.7,1.6-3.7,2.7c0.1,0.2,0.2,0.4,0.4,0.4c1.2-1.1,2.4-2.2,3.8-3.2&#10;&#9;&#9;c0-0.1,0-0.2,0-0.2c0.8-0.9,1.9-1.5,2.8-2.3c0.1-0.1,0.3-0.3,0.3-0.6C19,8.2,18.1,8.9,17.2,9.7z M5.5,8.2c-1.4,1.2-2.7,2.5-3.4,4.3&#10;&#9;&#9;c1-0.2,1.8-0.6,2.8-0.9C5,10.4,5.4,9.3,5.5,8.2C5.6,8.2,5.6,8.2,5.5,8.2z M12.7,8.4c-0.1,0-0.2,0.2-0.3,0.3&#10;&#9;&#9;c-0.6,0.4-1.9,0.9-1.6,1.6c0.2-0.1,0.3-0.3,0.5-0.5c0.5-0.5,1.2-0.8,1.6-1.4C12.8,8.4,12.8,8.4,12.7,8.4z M17.7,10.2&#10;&#9;&#9;c0.1,0,0.1,0.2,0.3,0.2c0.6-0.4,1-0.9,1.6-1.3C19.7,9,20,9,19.9,8.7c0-0.1-0.1-0.1-0.1-0.1C19.2,9.2,18.2,9.5,17.7,10.2z M13.1,8.9&#10;&#9;&#9;c-0.7,0.6-1.5,1-2.1,1.7c0,0.2,0.1,0.2,0.1,0.3c0.5-0.2,0.8-0.6,1.1-0.9c0.5-0.2,0.9-0.5,1.2-1C13.3,9,13.3,8.9,13.1,8.9z&#10;&#9;&#9; M12.5,10.3c-0.6,0.4-1.3,0.6-1,1.4c0.7-0.7,1.7-1.3,2.3-2C13.3,9.5,13,10,12.5,10.3z M17.8,11c0.2,0,0.2,0.2,0.4,0.2&#10;&#9;&#9;c0.3-0.6,1.5-0.8,1.3-1.6C19,10.1,18.3,10.4,17.8,11z M16.2,9.9c-0.4,0-0.6,0.3-0.9,0.5c-0.9,0.6-2,1.2-2.7,1.8&#10;&#9;&#9;c-0.2,0-0.5,0.1-0.6,0.2c0.1,0.3,0.2,0.5,0.4,0.6C13.6,11.9,15,11,16.2,9.9C16.3,9.9,16.2,9.9,16.2,9.9z M14.4,10&#10;&#9;&#9;c-0.2,0.3-0.7,0.4-1,0.7c-0.3,0.2-0.6,0.5-0.8,0.7c-0.3,0.2-0.8,0.4-0.7,0.9c0.6-0.1,1-0.8,1.6-1.1c0.8-0.1,1.2-0.6,1.7-1&#10;&#9;&#9;C14.9,10,14.6,10,14.4,10z M13.4,14.2c0.1,0.1,0.1,0.3,0.3,0.3c1.1-1.2,2.4-2.1,3.7-3.1c-0.2-0.2,0.1-0.4-0.1-0.5&#10;&#9;&#9;C15.9,11.8,14.5,12.8,13.4,14.2z M14,14.6c0,0.1,0.2,0.2,0.2,0.2c1.3-0.9,2.2-2.2,3.6-3c0,0.1,0.1,0.1,0.1,0.2c-1,1-2.6,1.8-3.4,3&#10;&#9;&#9;c0.2,0.1,0.3,0.2,0.5,0.2c0.6-0.9,1.5-1.4,2.3-2c0.1,0,0.2,0,0.3,0c0.2-0.3,0.4-0.7,0.7-1.1c0.2-0.4,0.6-0.7,0.5-1.1&#10;&#9;&#9;C17,12,15.3,13.1,14,14.6z M10.2,11.8c-0.2,1.4,0,3.2,0,4.9c2.1,0.2,3.5,0.2,5.7,0.2c0-0.2,0.1-0.2,0-0.4c-0.2-0.1-0.3,0.2-0.6,0.1&#10;&#9;&#9;c-0.3-0.2-0.5-0.5-0.7-0.8c-1.8-0.8-2.9-2.4-3.8-4C10.6,11.8,10.4,11.8,10.2,11.8z M5.6,12.4c-0.1,1.4-0.3,3-0.3,4.2&#10;&#9;&#9;c1.2,0.3,2.6,0.2,4,0.2c0.1-1.7,0.1-3.4,0-4.9C8.2,11.9,6.7,12.1,5.6,12.4z M19,12.6c-0.6,1.1-1.5,2-2.3,2.9c0.1,0.5,0,0.9,0.1,1.3&#10;&#9;&#9;c1.3,0,2.8,0.3,4,0.1C20.9,15.3,19.9,13.4,19,12.6z M1.6,13.7c-0.4,0.9-0.5,2-0.7,3.1c1.2,0.1,2.4,0.1,3.6,0c0-1.1,0.4-2.8,0.2-4&#10;&#9;&#9;C3.6,13,2.6,13.4,1.6,13.7z M15.3,15.5c0.7,0.2,1-0.8,1.5-1.2C16.2,14.6,15.6,14.9,15.3,15.5z M0.9,17.7c0,0.9,0.1,1.8,0.3,2.5&#10;&#9;&#9;c0.9,0.7,2.1,1,3.5,1.3c0.1-1.3-0.1-2.6-0.2-3.8C3,17.7,2.1,17.6,0.9,17.7z M5.2,17.8c0.1,1.2,0.2,2.6,0.3,3.8&#10;&#9;&#9;C6.7,21.9,8.2,22,9.6,22c-0.1-1.5-0.1-2.8-0.2-4.3c-1.2,0-2.7-0.1-4-0.1C5.3,17.6,5.2,17.7,5.2,17.8z M10.2,17.8&#10;&#9;&#9;c0,1.5,0,2.8,0.2,4.3c1.5,0.2,3.3,0,4.9-0.2c0.4-1.1,0.6-2.7,0.6-3.9C14.3,17.7,12,17.6,10.2,17.8z M16.7,17.9&#10;&#9;&#9;c0,1.2-0.3,2.5-0.5,3.6c1.5,0.1,2.7-0.8,4-0.9c0.4-0.7,0.6-1.6,0.6-2.6C19.4,17.8,18.3,17.9,16.7,17.9z M5.5,25.4&#10;&#9;&#9;c-0.3-1-0.5-2.1-0.7-3.1c-1.2-0.2-2-0.6-3.1-1C2.5,23.2,3.5,24.8,5.5,25.4z M15.9,22.6c-0.3,1.1-0.7,2-1,3c2.2-0.6,3.7-2,4.8-3.8&#10;&#9;&#9;C18.4,21.9,17.2,22.4,15.9,22.6z M5.7,22.5c0,0.5,0.2,1.2,0.3,1.8c0.1,0.5,0.3,1.3,0.6,1.5c0.3,0.3,1.2,0.3,1.8,0.5&#10;&#9;&#9;c0.4,0.1,0.8,0.3,1.2,0.1c-0.1-0.8,0.2-2.3,0-3.5C8.2,22.8,7.1,22.7,5.7,22.5z M10.4,23c0,1.1,0.1,2.5,0,3.6c1.3,0,2.3-0.2,3.3-0.5&#10;&#9;&#9;c0.6-1,1.1-2.1,1.4-3.4C13.6,22.9,11.8,22.9,10.4,23z" style="user-select: auto;"/>
</g>
</svg>